SplineFontDB: 3.0
FontName: Jost-Heavy
FullName: Jost* 800 Heavy
FamilyName: Jost* Heavy
Weight: Heavy
Copyright: Copyright (c) 2018, Owen Earl,,,
UComments: "2018-6-8: Created with FontForge (http://fontforge.org)"
Version: 003.300
ItalicAngle: 0
UnderlinePosition: -100
UnderlineWidth: 50
Ascent: 800
Descent: 200
InvalidEm: 0
LayerCount: 2
Layer: 0 0 "Back" 1
Layer: 1 0 "Fore" 0
XUID: [1021 69 1495626776 4534362]
FSType: 0
OS2Version: 0
OS2_WeightWidthSlopeOnly: 0
OS2_UseTypoMetrics: 0
CreationTime: 1528479348
ModificationTime: 1577664326
PfmFamily: 17
TTFWeight: 800
TTFWidth: 5
LineGap: 100
VLineGap: 0
OS2TypoAscent: 825
OS2TypoAOffset: 0
OS2TypoDescent: -225
OS2TypoDOffset: 0
OS2TypoLinegap: 100
OS2WinAscent: 900
OS2WinAOffset: 0
OS2WinDescent: 300
OS2WinDOffset: 0
HheadAscent: 1030
HheadAOffset: 0
HheadDescent: -350
HheadDOffset: 0
OS2CapHeight: 700
OS2XHeight: 460
OS2Vendor: 'PfEd'
Lookup: 1 0 0 "alt a" { "alt a"  } ['ss01' ('DFLT' <'dflt' > 'latn' <'dflt' > ) ]
Lookup: 1 0 0 "Tabular Numbers lookup" { "Tabular Numbers lookup"  } ['tnum' ('DFLT' <'dflt' > 'grek' <'dflt' > 'latn' <'dflt' > ) ]
Lookup: 258 0 0 "Lets get our kern on" { "kernin like nobodys business" [150,0,0] } ['kern' ('DFLT' <'dflt' > 'latn' <'dflt' > ) ]
MarkAttachClasses: 1
DEI: 91125
KernClass2: 16 14 "kernin like nobodys business"
 43 slash seven V W Wcircumflex uni040E uni0423
 175 quotedbl quotesingle asterisk grave dieresis ordfeminine macron degree acute ordmasculine circumflex breve dotaccent ring tilde quoteleft quoteright quotedblleft quotedblright
 25 nine question F P uni0420
 131 A L backslash Agrave Aacute Acircumflex Atilde Adieresis Aring Amacron Abreve Aogonek Lacute uni013B Lslash uni0410 uni0414 uni041C
 58 three eight B C germandbls uni0411 uni0412 uni0417 uni0421
 29 K X Z uni0416 uni041A uni0425
 157 at D G O Ograve Oacute Ocircumflex Otilde Odieresis Oslash Dcaron Dcroat Gcircumflex Gbreve Gdotaccent uni0122 Omacron Obreve uni041E uni0424 uni042D uni042E

StartChar: H
Encoding: 72 72 0
Width: 759
VWidth: 0
Flags: HMW
LayerCount: 2
Fore
SplineSet
150 280 m 1
 210 452 l 1
 729 452 l 1
 668 280 l 1
 150 280 l 1
692 700 m 1
 882 700 l 1
 642 0 l 1
 452 0 l 1
 692 700 l 1
250 700 m 1
 440 700 l 1
 198 0 l 1
 10 0 l 1
 250 700 l 1
EndSplineSet
EndChar

StartChar: O
Encoding: 79 79 1
Width: 781
VWidth: 0
Flags: HMW
LayerCount: 2
Fore
SplineSet
292 350 m 0
 261 268 272 163 380 160 c 0
 490 157 584 254 621 350 c 0
 653 434 640 538 532 540 c 0
 422 542 328 446 292 350 c 0
92 350 m 0
 156 552 354 718 570 718 c 0
 778 718 879 539 820 350 c 0
 756 146 557 -27 338 -26 c 0
 127 -25 33 161 92 350 c 0
EndSplineSet
EndChar

StartChar: I
Encoding: 73 73 2
Width: 321
VWidth: 0
Flags: HMW
LayerCount: 2
Fore
SplineSet
250 700 m 1
 443 700 l 1
 202 0 l 1
 10 0 l 1
 250 700 l 1
EndSplineSet
EndChar

StartChar: C
Encoding: 67 67 3
Width: 663
VWidth: 0
Flags: HMW
LayerCount: 2
Fore
SplineSet
298 350 m 0
 263 258 302 170 406 167 c 0
 490 165 566 210 634 254 c 1
 574 50 l 1
 506 10 432 -18 352 -18 c 0
 142 -18 30 154 92 350 c 0
 157 558 362 718 582 718 c 0
 656 718 716 693 772 648 c 1
 710 444 l 1
 672 500 622 533 552 533 c 0
 442 532 336 452 298 350 c 0
EndSplineSet
EndChar

StartChar: E
Encoding: 69 69 4
Width: 582
VWidth: 0
Flags: HMW
LayerCount: 2
Fore
SplineSet
134 0 m 1
 190 157 l 1
 528 157 l 1
 472 0 l 1
 134 0 l 1
320 543 m 1
 374 700 l 1
 713 700 l 1
 658 543 l 1
 320 543 l 1
232 288 m 1
 286 440 l 1
 606 440 l 1
 552 288 l 1
 232 288 l 1
250 700 m 1
 432 700 l 1
 191 0 l 1
 10 0 l 1
 250 700 l 1
EndSplineSet
EndChar

StartChar: F
Encoding: 70 70 6
Width: 535
VWidth: 0
Flags: HMW
LayerCount: 2
Fore
SplineSet
317 534 m 1
 374 700 l 1
 675 700 l 1
 618 534 l 1
 317 534 l 1
224 263 m 1
 278 416 l 1
 570 416 l 1
 516 263 l 1
 224 263 l 1
250 700 m 1
 432 700 l 1
 191 0 l 1
 10 0 l 1
 250 700 l 1
EndSplineSet
EndChar

StartChar: G
Encoding: 71 71 7
Width: 776
VWidth: 0
Flags: HMW
LayerCount: 2
Fore
SplineSet
426 246 m 1
 477 390 l 1
 819 390 l 1
 761 174 609 -26 355 -26 c 0
 142 -26 31 157 92 350 c 0
 158 558 365 718 586 718 c 0
 708 718 794 652 846 544 c 1
 655 462 l 1
 639 514 610 551 551 551 c 0
 434 551 329 453 289 350 c 0
 254 258 271 141 389 141 c 0
 473 141 529 180 575 246 c 1
 426 246 l 1
EndSplineSet
EndChar

StartChar: T
Encoding: 84 84 8
Width: 555
VWidth: 0
Flags: HMW
LayerCount: 2
Fore
SplineSet
124 526 m 1
 184 700 l 1
 742 700 l 1
 682 526 l 1
 498 526 l 1
 318 0 l 1
 128 0 l 1
 309 526 l 1
 124 526 l 1
EndSplineSet
EndChar

StartChar: L
Encoding: 76 76 9
Width: 518
VWidth: 0
Flags: HMW
LayerCount: 2
Fore
SplineSet
250 700 m 1
 440 700 l 1
 256 166 l 1
 523 166 l 1
 465 0 l 1
 10 0 l 1
 250 700 l 1
EndSplineSet
EndChar

StartChar: D
Encoding: 68 68 10
Width: 704
VWidth: 0
Flags: HMW
LayerCount: 2
Fore
SplineSet
250 700 m 1
 446 700 l 1
 206 0 l 1
 10 0 l 1
 250 700 l 1
272 0 m 2
 134 0 l 1
 194 170 l 1
 300 170 l 2
 414 170 507 244 547 350 c 0
 585 447 552 530 444 530 c 2
 314 530 l 1
 374 700 l 1
 488 700 l 2
 692 700 805 547 743 350 c 0
 679 142 488 0 272 0 c 2
EndSplineSet
EndChar

StartChar: Q
Encoding: 81 81 11
Width: 833
VWidth: 0
Flags: HMW
LayerCount: 2
Fore
SplineSet
292 350 m 0
 258 260 278 146 394 144 c 0
 503 142 598 230 636 326 c 0
 671 416 655 537 536 540 c 0
 426 542 329 447 292 350 c 0
92 350 m 0
 156 552 358 719 574 718 c 0
 782 717 878 538 820 350 c 0
 756 148 562 -27 343 -26 c 0
 132 -25 33 160 92 350 c 0
384 300 m 1
 554 300 l 1
 775 -16 l 1
 596 -16 l 1
 384 300 l 1
EndSplineSet
EndChar

StartChar: A
Encoding: 65 65 12
Width: 711
VWidth: 0
Flags: HMW
LayerCount: 2
Fore
SplineSet
165 112 m 1
 220 256 l 1
 564 256 l 1
 519 112 l 1
 165 112 l 1
442 412 m 1
 290 202 l 1
 287 158 l 1
 158 0 l 1
 -66 0 l 1
 555 752 l 1
 660 0 l 1
 456 0 l 1
 438 153 l 1
 459 202 l 1
 442 412 l 1
EndSplineSet
EndChar

StartChar: R
Encoding: 82 82 13
Width: 633
VWidth: 0
Flags: HMW
LayerCount: 2
Fore
SplineSet
300 308 m 1
 483 308 l 1
 574 0 l 1
 367 0 l 1
 300 308 l 1
250 700 m 1
 440 700 l 1
 198 0 l 1
 10 0 l 1
 250 700 l 1
312 535 m 1
 367 700 l 1
 500 700 l 2
 638 700 736 614 700 466 c 0
 664 315 511 231 362 231 c 2
 205 231 l 1
 258 380 l 1
 376 380 l 2
 426 380 484 407 502 458 c 0
 518 504 492 534 448 535 c 2
 312 535 l 1
EndSplineSet
EndChar

StartChar: V
Encoding: 86 86 14
Width: 711
VWidth: 0
Flags: HMW
LayerCount: 2
Fore
SplineSet
418 327 m 1
 676 699 l 1
 904 699 l 1
 310 -52 l 1
 180 700 l 1
 392 700 l 1
 418 327 l 1
EndSplineSet
EndChar

StartChar: M
Encoding: 77 77 15
Width: 861
VWidth: 0
Flags: HMW
LayerCount: 2
Fore
SplineSet
322 320 m 1
 174 0 l 1
 -30 0 l 1
 338 735 l 1
 484 336 l 1
 918 746 l 1
 778 0 l 1
 580 0 l 1
 652 307 l 1
 404 62 l 1
 322 320 l 1
EndSplineSet
EndChar

StartChar: W
Encoding: 87 87 16
Width: 1022
VWidth: 0
Flags: HMW
LayerCount: 2
Fore
SplineSet
755 323 m 1
 978 700 l 1
 1210 699 l 1
 684 -46 l 1
 588 338 l 1
 248 -48 l 1
 184 700 l 1
 402 700 l 1
 391 328 l 1
 702 740 l 1
 755 323 l 1
EndSplineSet
EndChar

StartChar: N
Encoding: 78 78 17
Width: 751
VWidth: 0
Flags: HMW
LayerCount: 2
Fore
SplineSet
692 700 m 1
 872 700 l 1
 622 -32 l 1
 314 358 l 1
 192 0 l 1
 10 0 l 1
 260 732 l 1
 568 342 l 1
 692 700 l 1
EndSplineSet
EndChar

StartChar: a
Encoding: 97 97 18
Width: 528
VWidth: 0
Flags: HMW
LayerCount: 2
Fore
SplineSet
177 136 m 0
 172 113 190 100 210 98 c 0
 268 93 306 145 334 187 c 1
 332 128 l 1
 294 47 225 -9 133 -9 c 0
 50 -9 -17 44 8 132 c 0
 36 229 145 276 239 276 c 0
 293 276 340 263 382 230 c 1
 358 154 l 1
 331 176 304 189 268 188 c 0
 232 187 183 171 177 136 c 0
168 308 m 1
 146 424 l 1
 216 451 289 474 365 474 c 0
 457 474 565 432 537 322 c 1
 428 0 l 1
 266 0 l 1
 368 284 l 1
 378 320 362 340 324 344 c 0
 272 350 216 326 168 308 c 1
EndSplineSet
Substitution2: "alt a" a.alt
EndChar

StartChar: X
Encoding: 88 88 19
Width: 682
VWidth: 0
Flags: HMW
LayerCount: 2
Fore
SplineSet
614 699 m 1
 856 699 l 1
 532 348 l 1
 644 0 l 1
 421 0 l 1
 379 209 l 1
 202 0 l 1
 -40 0 l 1
 308 364 l 1
 210 700 l 1
 433 700 l 1
 464 520 l 1
 614 699 l 1
EndSplineSet
EndChar

StartChar: K
Encoding: 75 75 20
Width: 695
VWidth: 0
Flags: HMW
LayerCount: 2
Fore
SplineSet
250 700 m 1
 447 700 l 1
 206 0 l 1
 10 0 l 1
 250 700 l 1
648 699 m 1
 880 699 l 1
 495 364 l 1
 642 0 l 1
 428 0 l 1
 277 375 l 1
 648 699 l 1
EndSplineSet
EndChar

StartChar: Y
Encoding: 89 89 21
Width: 648
VWidth: 0
Flags: HMW
LayerCount: 2
Fore
SplineSet
619 699 m 1
 846 699 l 1
 460 271 l 1
 367 0 l 1
 174 0 l 1
 274 289 l 1
 184 700 l 1
 392 700 l 1
 422 462 l 1
 619 699 l 1
EndSplineSet
EndChar

StartChar: B
Encoding: 66 66 22
Width: 654
VWidth: 0
Flags: HMW
LayerCount: 2
Fore
SplineSet
262 342 m 1
 292 424 l 1
 390 424 l 2
 432 424 484 448 500 492 c 0
 514 532 488 551 452 552 c 2
 391 552 l 1
 248 148 l 1
 314 148 l 2
 364 150 428 169 446 224 c 0
 462 274 422 289 380 291 c 2
 244 292 l 1
 282 398 l 1
 420 398 l 2
 538 398 670 333 630 194 c 0
 590 50 441 0 307 0 c 2
 10 0 l 1
 250 700 l 1
 506 700 l 2
 610 700 742 650 704 520 c 0
 668 393 525 342 406 342 c 2
 262 342 l 1
EndSplineSet
EndChar

StartChar: Z
Encoding: 90 90 23
Width: 603
VWidth: 0
Flags: HMW
LayerCount: 2
Fore
SplineSet
182 526 m 1
 242 700 l 1
 786 699 l 1
 303 166 l 1
 562 166 l 1
 503 0 l 1
 -56 0 l 1
 420 526 l 1
 182 526 l 1
EndSplineSet
EndChar

StartChar: o
Encoding: 111 111 24
Width: 566
VWidth: 0
Flags: HMW
LayerCount: 2
Fore
SplineSet
63 231 m 0
 101 371 241 470 384 470 c 0
 521 470 614 365 578 229 c 0
 540 89 399 -10 256 -10 c 0
 120 -10 27 95 63 231 c 0
234 229 m 0
 220 187 230 133 282 131 c 0
 336 129 390 183 406 231 c 0
 420 273 410 328 358 330 c 0
 304 332 250 277 234 229 c 0
EndSplineSet
EndChar

StartChar: J
Encoding: 74 74 25
Width: 336
VWidth: 0
Flags: HMW
LayerCount: 2
Fore
SplineSet
-150 -52 m 1
 -132 -68 -112 -85 -86 -84 c 0
 -43 -82 -6 -41 7 -4 c 2
 250 700 l 1
 458 700 l 1
 202 -53 l 2
 158 -180 33 -244 -98 -244 c 0
 -168 -244 -229 -218 -288 -182 c 1
 -150 -52 l 1
EndSplineSet
EndChar

StartChar: t
Encoding: 116 116 26
Width: 320
VWidth: 0
Flags: HMW
LayerCount: 2
Fore
SplineSet
106 460 m 1
 424 460 l 1
 374 320 l 1
 56 320 l 1
 106 460 l 1
238 620 m 1
 400 620 l 1
 186 0 l 1
 25 0 l 1
 238 620 l 1
EndSplineSet
EndChar

StartChar: d
Encoding: 100 100 27
Width: 592
VWidth: 0
Flags: HMW
LayerCount: 2
Fore
SplineSet
590 780 m 1
 759 780 l 1
 491 0 l 1
 322 0 l 1
 590 780 l 1
50 231 m 0
 86 349 196 470 328 470 c 0
 460 470 477 331 446 229 c 0
 411 115 316 -9 186 -9 c 0
 54 -9 17 123 50 231 c 0
226 229 m 0
 210 187 218 129 272 127 c 0
 328 125 383 183 401 231 c 0
 416 271 413 330 360 333 c 0
 304 336 244 277 226 229 c 0
EndSplineSet
EndChar

StartChar: l
Encoding: 108 108 28
Width: 265
VWidth: 0
Flags: HMW
LayerCount: 2
Fore
SplineSet
260 780 m 1
 431 780 l 1
 162 0 l 1
 -6 0 l 1
 260 780 l 1
EndSplineSet
EndChar

StartChar: i
Encoding: 105 105 29
Width: 264
VWidth: 0
Flags: HMW
LayerCount: 2
Fore
SplineSet
194 626 m 0
 194 680 238 716 292 716 c 0
 346 716 390 680 390 626 c 0
 390 572 346 536 292 536 c 0
 238 536 194 572 194 626 c 0
153 460 m 1
 317 460 l 1
 160 0 l 1
 -4 0 l 1
 153 460 l 1
EndSplineSet
EndChar

StartChar: r
Encoding: 114 114 30
Width: 414
VWidth: 0
Flags: HMW
LayerCount: 2
Fore
SplineSet
318 460 m 1
 158 0 l 1
 -6 0 l 1
 152 460 l 1
 318 460 l 1
393 284 m 1
 381 296 368 309 348 310 c 0
 294 312 245 250 231 210 c 1
 232 282 l 1
 266 364 354 472 432 472 c 0
 466 472 485 452 505 428 c 1
 393 284 l 1
EndSplineSet
EndChar

StartChar: c
Encoding: 99 99 31
Width: 456
VWidth: 0
Flags: HMW
LayerCount: 2
Fore
SplineSet
222 229 m 0
 204 176 228 129 286 126 c 0
 340 123 391 157 432 187 c 1
 390 26 l 1
 345 4 297 -10 247 -10 c 0
 110 -10 13 93 50 231 c 0
 88 373 231 470 376 470 c 0
 424 470 467 456 509 434 c 1
 466 273 l 1
 444 310 414 336 368 336 c 0
 300 336 242 287 222 229 c 0
EndSplineSet
EndChar

StartChar: b
Encoding: 98 98 32
Width: 592
VWidth: 0
Flags: HMW
LayerCount: 2
Fore
SplineSet
430 780 m 1
 162 0 l 1
 -8 0 l 1
 260 780 l 1
 430 780 l 1
592 229 m 0
 556 111 447 -10 315 -10 c 0
 183 -10 165 129 196 231 c 0
 231 345 328 469 458 469 c 0
 590 469 625 337 592 229 c 0
417 231 m 0
 433 273 424 331 370 333 c 0
 314 335 259 277 241 229 c 0
 226 189 231 130 284 127 c 0
 340 124 399 183 417 231 c 0
EndSplineSet
EndChar

StartChar: p
Encoding: 112 112 33
Width: 592
VWidth: 0
Flags: HMW
LayerCount: 2
Fore
SplineSet
88 -220 m 1
 -82 -220 l 1
 151 460 l 1
 320 460 l 1
 88 -220 l 1
592 229 m 0
 556 109 447 -19 312 -18 c 0
 174 -17 173 130 204 230 c 0
 239 344 327 476 460 477 c 0
 596 478 625 337 592 229 c 0
417 232 m 0
 433 276 420 322 368 325 c 0
 314 328 258 276 241 228 c 0
 226 185 236 139 286 135 c 0
 340 131 400 184 417 232 c 0
EndSplineSet
EndChar

StartChar: q
Encoding: 113 113 34
Width: 592
VWidth: 0
Flags: HMW
LayerCount: 2
Fore
SplineSet
246 -220 m 1
 480 460 l 1
 650 460 l 1
 416 -220 l 1
 246 -220 l 1
50 231 m 0
 86 351 195 479 330 478 c 0
 468 477 469 330 438 230 c 0
 403 116 316 -16 183 -17 c 0
 47 -18 17 123 50 231 c 0
226 228 m 0
 210 184 223 138 275 135 c 0
 329 132 384 184 401 232 c 0
 416 275 406 321 356 325 c 0
 302 329 243 276 226 228 c 0
EndSplineSet
EndChar

StartChar: h
Encoding: 104 104 35
Width: 546
VWidth: 0
Flags: HMW
LayerCount: 2
Fore
SplineSet
431 780 m 1
 162 0 l 1
 -6 0 l 1
 261 780 l 1
 431 780 l 1
376 280 m 2
 386 306 392 347 354 354 c 0
 312 361 277 309 258 280 c 1
 230 282 l 1
 266 378 332 476 446 478 c 0
 554 480 577 394 548 306 c 1
 444 0 l 1
 276 0 l 1
 376 280 l 2
EndSplineSet
EndChar

StartChar: n
Encoding: 110 110 36
Width: 554
VWidth: 0
Flags: HMW
LayerCount: 2
Fore
SplineSet
376 280 m 2
 385 306 391 354 345 354 c 0
 303 354 274 323 260 283 c 2
 162 0 l 1
 -6 0 l 1
 152 460 l 1
 321 460 l 1
 301 402 l 1
 337 442 384 469 444 470 c 0
 552 472 582 388 552 298 c 2
 452 0 l 1
 276 0 l 1
 376 280 l 2
EndSplineSet
EndChar

StartChar: m
Encoding: 109 109 37
Width: 783
VWidth: 0
Flags: HMW
LayerCount: 2
Fore
SplineSet
782 298 m 2
 680 0 l 1
 510 0 l 1
 612 280 l 2
 619 302 631 353 596 353 c 0
 558 353 526 324 512 282 c 2
 418 0 l 1
 248 0 l 1
 349 281 l 2
 355 303 368 353 334 353 c 0
 299 353 267 325 254 288 c 2
 156 0 l 1
 -6 0 l 1
 152 460 l 1
 314 460 l 1
 294 403 l 1
 329 443 373 469 431 470 c 0
 498 471 527 438 531 392 c 1
 573 438 628 469 694 470 c 0
 800 471 806 381 782 298 c 2
EndSplineSet
EndChar

StartChar: k
Encoding: 107 107 38
Width: 581
VWidth: 0
Flags: HMW
LayerCount: 2
Fore
SplineSet
260 780 m 1
 422 780 l 1
 154 0 l 1
 -6 0 l 1
 260 780 l 1
456 459 m 1
 669 459 l 1
 406 261 l 1
 516 0 l 1
 336 0 l 1
 217 279 l 1
 456 459 l 1
EndSplineSet
EndChar

StartChar: u
Encoding: 117 117 39
Width: 554
VWidth: 0
Flags: HMW
LayerCount: 2
Fore
SplineSet
228 180 m 2
 219 153 211 106 250 106 c 0
 290 106 326 128 342 175 c 2
 441 460 l 1
 610 460 l 1
 452 0 l 1
 282 0 l 1
 302 58 l 1
 266 18 220 -10 160 -10 c 0
 52 -10 25 70 51 162 c 1
 152 460 l 1
 328 460 l 1
 228 180 l 2
EndSplineSet
EndChar

StartChar: e
Encoding: 101 101 40
Width: 556
VWidth: 0
Flags: HMW
LayerCount: 2
Fore
SplineSet
268 -10 m 0
 143 -10 56 58 56 170 c 0
 56 328 200 470 388 470 c 0
 514 470 576 395 576 292 c 0
 576 264 568 226 556 194 c 1
 130 194 l 1
 130 283 l 1
 433 283 l 1
 396 237 l 1
 404 251 411 266 411 280 c 0
 411 330 403 360 358 360 c 0
 293 360 259 308 227 220 c 0
 202 158 228 110 286 110 c 0
 328 110 358 130 386 162 c 1
 532 132 l 1
 482 40 390 -10 268 -10 c 0
EndSplineSet
EndChar

StartChar: g
Encoding: 103 103 41
Width: 585
VWidth: 0
Flags: HMW
LayerCount: 2
Fore
SplineSet
-32 -33 m 1
 124 -35 l 1
 126 -77 132 -104 180 -105 c 0
 248 -107 304 -47 324 11 c 2
 480 460 l 1
 642 460 l 1
 488 9 l 2
 437 -135 326 -240 166 -241 c 0
 31 -242 -44 -167 -32 -33 c 1
54 239 m 0
 90 357 198 470 328 470 c 0
 458 470 482 342 450 238 c 0
 416 124 319 6 191 6 c 0
 61 6 21 131 54 239 c 0
228 236 m 0
 212 192 226 146 278 143 c 0
 332 140 387 192 404 240 c 0
 419 283 410 332 360 333 c 0
 298 334 245 284 228 236 c 0
EndSplineSet
EndChar

StartChar: f
Encoding: 102 102 42
Width: 339
VWidth: 0
Flags: HMW
LayerCount: 2
Fore
SplineSet
112 460 m 1
 437 460 l 1
 388 320 l 1
 62 320 l 1
 112 460 l 1
478 621 m 1
 470 632 460 645 444 646 c 0
 412 646 384 608 374 582 c 2
 172 0 l 1
 11 0 l 1
 224 631 l 2
 260 727 346 799 452 797 c 0
 503 797 540 776 576 742 c 1
 478 621 l 1
EndSplineSet
EndChar

StartChar: s
Encoding: 115 115 43
Width: 444
VWidth: 0
Flags: HMW
LayerCount: 2
Fore
SplineSet
89 174 m 1
 125 140 172 95 226 101 c 0
 244 103 269 117 271 135 c 0
 277 169 226 181 204 190 c 0
 144 214 100 264 116 334 c 0
 136 426 228 468 314 469 c 0
 386 470 447 440 503 406 c 1
 428 295 l 1
 398 326 364 357 318 357 c 0
 298 357 271 346 267 329 c 0
 257 295 321 282 344 272 c 0
 404 246 447 201 434 131 c 0
 414 35 328 -20 232 -22 c 0
 143 -24 66 13 0 59 c 1
 89 174 l 1
EndSplineSet
EndChar

StartChar: y
Encoding: 121 121 44
Width: 512
VWidth: 0
Flags: HMW
LayerCount: 2
Fore
SplineSet
636 459 m 1
 120 -219 l 1
 -56 -219 l 1
 140 38 l 1
 94 460 l 1
 266 460 l 1
 280 88 l 1
 189 90 l 1
 457 459 l 1
 636 459 l 1
EndSplineSet
EndChar

StartChar: w
Encoding: 119 119 45
Width: 738
VWidth: 0
Flags: HMW
LayerCount: 2
Fore
SplineSet
95 460 m 1
 260 460 l 1
 268 252 l 1
 482 500 l 1
 520 248 l 1
 678 459 l 1
 861 459 l 1
 456 -31 l 1
 398 223 l 1
 162 -32 l 1
 95 460 l 1
EndSplineSet
EndChar

StartChar: v
Encoding: 118 118 46
Width: 520
VWidth: 0
Flags: HMW
LayerCount: 2
Fore
SplineSet
106 460 m 1
 279 460 l 1
 296 234 l 1
 458 459 l 1
 640 459 l 1
 211 -64 l 1
 106 460 l 1
EndSplineSet
EndChar

StartChar: x
Encoding: 120 120 47
Width: 532
VWidth: 0
Flags: HMW
LayerCount: 2
Fore
SplineSet
443 460 m 1
 640 460 l 1
 390 228 l 1
 494 0 l 1
 322 0 l 1
 270 126 l 1
 160 0 l 1
 -43 0 l 1
 216 252 l 1
 120 460 l 1
 300 460 l 1
 339 354 l 1
 443 460 l 1
EndSplineSet
EndChar

StartChar: z
Encoding: 122 122 48
Width: 508
VWidth: 0
Flags: HMW
LayerCount: 2
Fore
SplineSet
270 304 m 1
 103 304 l 1
 158 459 l 1
 606 459 l 1
 302 156 l 1
 464 156 l 1
 410 0 l 1
 -49 0 l 1
 270 304 l 1
EndSplineSet
EndChar

StartChar: j
Encoding: 106 106 49
Width: 261
VWidth: 0
Flags: HMW
LayerCount: 2
Fore
SplineSet
192 626 m 0
 192 680 236 716 290 716 c 0
 344 716 388 680 388 626 c 0
 388 572 344 536 290 536 c 0
 236 536 192 572 192 626 c 0
-121 -67 m 1
 -113 -79 -98 -92 -80 -92 c 0
 -48 -93 -24 -53 -16 -29 c 2
 152 460 l 1
 314 460 l 1
 132 -78 l 2
 96 -174 14 -246 -92 -244 c 0
 -143 -244 -182 -222 -218 -188 c 1
 -121 -67 l 1
EndSplineSet
EndChar

StartChar: P
Encoding: 80 80 50
Width: 606
VWidth: 0
Flags: HMW
LayerCount: 2
Fore
SplineSet
250 700 m 1
 440 700 l 1
 198 0 l 1
 10 0 l 1
 250 700 l 1
314 544 m 1
 367 700 l 1
 485 700 l 1
 626 697 714 616 685 466 c 0
 655 311 500 234 348 231 c 1
 205 231 l 1
 261 388 l 1
 380 388 l 1
 430 389 487 415 505 466 c 0
 521 512 494 543 450 544 c 2
 314 544 l 1
EndSplineSet
EndChar

StartChar: U
Encoding: 85 85 51
Width: 680
VWidth: 0
Flags: HMW
LayerCount: 2
Fore
SplineSet
246 700 m 1
 434 700 l 1
 276 246 l 2
 262 198 262 142 324 140 c 0
 391 138 438 193 460 247 c 1
 618 700 l 1
 806 700 l 1
 646 230 l 2
 590 74 460 -34 286 -34 c 0
 128 -34 40 78 86 230 c 1
 246 700 l 1
EndSplineSet
EndChar

StartChar: S
Encoding: 83 83 52
Width: 610
VWidth: 0
Flags: HMW
LayerCount: 2
Fore
SplineSet
178 256 m 1
 200 196 229 141 299 142 c 0
 343 142 388 168 398 204 c 0
 414 254 342 274 307 292 c 0
 223 334 162 410 186 510 c 0
 218 641 360 719 495 718 c 0
 604 717 676 657 708 560 c 1
 550 484 l 1
 533 522 512 555 460 555 c 0
 426 555 385 538 375 506 c 0
 357 458 455 432 486 418 c 0
 573 380 619 302 595 205 c 0
 559 63 414 -27 268 -26 c 0
 148 -25 57 48 28 162 c 1
 178 256 l 1
EndSplineSet
EndChar

StartChar: at
Encoding: 64 64 53
Width: 724
VWidth: 0
Flags: HMW
LayerCount: 2
Fore
SplineSet
366 319 m 0
 360 304 350 267 372 260 c 0
 410 246 460 334 470 362 c 0
 476 377 486 415 464 422 c 0
 426 436 376 347 366 319 c 0
236 312 m 0
 262 401 343 534 450 530 c 0
 534 528 541 431 523 369 c 0
 499 279 422 153 316 153 c 0
 225 153 216 243 236 312 c 0
66 320 m 0
 133 532 342 726 573 726 c 0
 766 726 843 555 792 390 c 0
 758 278 664 136 532 142 c 0
 454 146 447 199 451 263 c 1
 449 304 l 1
 540 520 l 1
 662 520 l 1
 572 314 l 2
 568 305 565 296 561 286 c 0
 557 276 550 256 564 250 c 0
 610 230 662 363 672 391 c 0
 710 495 695 616 557 616 c 0
 387 616 241 470 186 320 c 0
 141 198 178 83 322 80 c 0
 387 79 450 101 510 122 c 1
 520 20 l 1
 448 -12 370 -31 290 -30 c 0
 89 -27 10 140 66 320 c 0
EndSplineSet
EndChar

StartChar: period
Encoding: 46 46 54
Width: 309
VWidth: 0
Flags: HMW
LayerCount: 2
Fore
SplineSet
29 76 m 0
 29 133 73 180 135 180 c 0
 197 180 241 133 241 76 c 0
 241 19 197 -27 135 -27 c 0
 73 -27 29 19 29 76 c 0
EndSplineSet
EndChar

StartChar: comma
Encoding: 44 44 55
Width: 308
VWidth: 0
Flags: HMW
LayerCount: 2
Fore
SplineSet
82 108 m 1
 246 73 l 1
 40 -171 l 1
 -88 -146 l 1
 82 108 l 1
EndSplineSet
EndChar

StartChar: colon
Encoding: 58 58 56
Width: 309
VWidth: 0
Flags: HMW
LayerCount: 2
Fore
SplineSet
21 76 m 0
 21 133 65 180 127 180 c 0
 189 180 233 133 233 76 c 0
 233 19 189 -27 127 -27 c 0
 65 -27 21 19 21 76 c 0
148 448 m 0
 148 505 192 551 254 551 c 0
 316 551 360 505 360 448 c 0
 360 391 316 344 254 344 c 0
 192 344 148 391 148 448 c 0
EndSplineSet
EndChar

StartChar: semicolon
Encoding: 59 59 57
Width: 387
VWidth: 0
Flags: HMW
LayerCount: 2
Fore
SplineSet
200 440 m 0
 200 497 244 543 306 543 c 0
 368 543 412 497 412 440 c 0
 412 383 368 336 306 336 c 0
 244 336 200 383 200 440 c 0
110 108 m 1
 272 73 l 1
 66 -171 l 1
 -62 -146 l 1
 110 108 l 1
EndSplineSet
EndChar

StartChar: quotedbl
Encoding: 34 34 58
Width: 502
VWidth: 0
Flags: HMW
LayerCount: 2
Fore
SplineSet
270 700 m 1
 449 699 l 1
 244 377 l 1
 129 376 l 1
 270 700 l 1
478 700 m 1
 657 699 l 1
 451 377 l 1
 337 376 l 1
 478 700 l 1
EndSplineSet
EndChar

StartChar: exclam
Encoding: 33 33 59
Width: 335
VWidth: 0
Flags: HMW
LayerCount: 2
Fore
SplineSet
251 700 m 1
 456 700 l 1
 266 241 l 1
 126 241 l 1
 251 700 l 1
33 68 m 0
 33 125 77 164 139 164 c 0
 201 164 246 125 246 68 c 0
 246 11 201 -27 139 -27 c 0
 77 -27 33 11 33 68 c 0
EndSplineSet
EndChar

StartChar: quotesingle
Encoding: 39 39 60
Width: 294
VWidth: 0
Flags: HMW
LayerCount: 2
Fore
SplineSet
270 700 m 1
 449 699 l 1
 244 377 l 1
 129 376 l 1
 270 700 l 1
EndSplineSet
EndChar

StartChar: numbersign
Encoding: 35 35 61
Width: 645
VWidth: 0
Flags: HMW
LayerCount: 2
Fore
SplineSet
156 404 m 1
 199 542 l 1
 747 542 l 1
 699 404 l 1
 556 404 l 1
 528 412 l 1
 332 412 l 1
 300 404 l 1
 156 404 l 1
30 164 m 1
 79 302 l 1
 206 302 l 1
 238 294 l 1
 463 294 l 1
 496 302 l 1
 628 302 l 1
 579 164 l 1
 30 164 l 1
628 699 m 1
 782 699 l 1
 381 0 l 1
 230 0 l 1
 358 223 l 1
 382 250 l 1
 498 454 l 1
 510 490 l 1
 628 699 l 1
394 700 m 1
 546 699 l 1
 425 490 l 1
 396 453 l 1
 282 253 l 1
 274 225 l 1
 145 0 l 1
 -4 0 l 1
 394 700 l 1
EndSplineSet
EndChar

StartChar: hyphen
Encoding: 45 45 62
Width: 212
VWidth: 0
Flags: HMW
LayerCount: 2
Fore
SplineSet
2 164 m 1
 54 312 l 1
 264 312 l 1
 212 164 l 1
 2 164 l 1
EndSplineSet
EndChar

StartChar: dollar
Encoding: 36 36 63
Width: 596
VWidth: 0
Flags: HMW
LayerCount: 2
Fore
SplineSet
463 818 m 1
 600 818 l 1
 532 628 l 1
 411 628 l 1
 463 818 l 1
240 66 m 1
 359 66 l 1
 310 -112 l 1
 175 -112 l 1
 240 66 l 1
546 482 m 1
 533 522 516 571 466 571 c 0
 433 571 390 548 378 516 c 0
 354 456 452 435 490 419 c 0
 580 379 627 294 600 197 c 0
 562 56 412 -12 276 -10 c 0
 161 -8 76 61 39 166 c 1
 188 258 l 1
 208 200 237 142 308 142 c 0
 344 142 390 162 403 200 c 0
 421 253 346 276 310 292 c 0
 222 334 158 414 186 516 c 0
 220 640 364 710 484 710 c 0
 591 710 663 656 704 560 c 1
 546 482 l 1
EndSplineSet
EndChar

StartChar: bar
Encoding: 124 124 64
Width: 353
VWidth: 0
Flags: HMW
LayerCount: 2
Fore
SplineSet
299 785 m 1
 470 785 l 1
 162 -215 l 1
 -10 -215 l 1
 299 785 l 1
EndSplineSet
EndChar

StartChar: zero
Encoding: 48 48 65
Width: 640
VWidth: 0
Flags: HMW
LayerCount: 2
Fore
SplineSet
280 350 m 0
 262 300 217 156 308 152 c 0
 402 148 463 278 490 350 c 0
 508 400 555 544 464 548 c 0
 370 552 307 422 280 350 c 0
100 350 m 0
 156 525 297 714 499 714 c 0
 705 714 721 505 672 350 c 0
 616 173 475 -15 272 -14 c 0
 68 -13 51 196 100 350 c 0
EndSplineSet
Substitution2: "Tabular Numbers lookup" uniFF10
EndChar

StartChar: one
Encoding: 49 49 66
Width: 495
VWidth: 0
Flags: HMW
LayerCount: 2
Fore
SplineSet
164 476 m 1
 224 646 l 1
 598 716 l 1
 352 0 l 1
 170 0 l 1
 348 516 l 1
 164 476 l 1
EndSplineSet
Substitution2: "Tabular Numbers lookup" uniFF11
EndChar

StartChar: two
Encoding: 50 50 67
Width: 642
VWidth: 0
Flags: HMW
LayerCount: 2
Fore
SplineSet
-24 0 m 1
 361 314 l 2
 412 356 490 406 508 474 c 0
 518 512 504 547 462 549 c 0
 398 553 358 485 334 436 c 1
 149 436 l 1
 200 590 330 716 500 715 c 0
 628 715 740 622 704 486 c 0
 683 406 620 345 556 299 c 2
 383 178 l 1
 630 178 l 1
 574 0 l 1
 -24 0 l 1
EndSplineSet
Substitution2: "Tabular Numbers lookup" uniFF12
EndChar

StartChar: four
Encoding: 52 52 68
Width: 689
VWidth: 0
Flags: HMW
LayerCount: 2
Fore
SplineSet
-10 121 m 1
 576 699 l 1
 731 700 l 1
 492 0 l 1
 294 0 l 1
 353 175 l 1
 380 186 l 1
 463 420 l 1
 288 256 l 1
 518 256 l 1
 544 284 l 1
 693 284 l 1
 636 120 l 1
 -10 121 l 1
EndSplineSet
Substitution2: "Tabular Numbers lookup" uniFF14
EndChar

StartChar: slash
Encoding: 47 47 69
Width: 598
VWidth: 0
Flags: HMW
LayerCount: 2
Fore
SplineSet
606 699 m 1
 778 699 l 1
 78 -149 l 1
 -98 -149 l 1
 606 699 l 1
EndSplineSet
EndChar

StartChar: backslash
Encoding: 92 92 70
Width: 522
VWidth: 0
Flags: HMW
LayerCount: 2
Fore
SplineSet
200 700 m 1
 354 700 l 1
 452 0 l 1
 300 0 l 1
 200 700 l 1
EndSplineSet
EndChar

StartChar: eight
Encoding: 56 56 71
Width: 612
VWidth: 0
Flags: HMW
LayerCount: 2
Fore
SplineSet
196 532 m 0
 232 654 366 718 486 718 c 0
 594 718 707 653 671 530 c 0
 636 408 499 339 379 339 c 0
 269 339 161 410 196 532 c 0
364 512 m 0
 354 484 361 444 396 444 c 0
 441 444 479 482 491 514 c 0
 501 543 493 581 458 581 c 0
 412 581 376 545 364 512 c 0
56 191 m 0
 95 325 245 398 377 398 c 0
 495 398 618 323 579 189 c 0
 540 56 387 -18 257 -18 c 0
 139 -18 18 59 56 191 c 0
252 218 m 0
 238 182 249 139 292 139 c 0
 345 139 389 181 403 222 c 0
 415 256 401 298 361 298 c 0
 309 298 268 256 252 218 c 0
EndSplineSet
Substitution2: "Tabular Numbers lookup" uniFF18
EndChar

StartChar: nine
Encoding: 57 57 72
Width: 656
VWidth: 0
Flags: HMW
LayerCount: 2
Fore
SplineSet
532 450 m 0
 549 499 528 550 472 552 c 0
 412 554 352 503 334 449 c 0
 317 401 336 347 392 345 c 0
 452 343 514 396 532 450 c 0
317 5 m 1
 68 5 l 1
 360 244 l 1
 414 264 l 1
 378 242 340 223 296 223 c 0
 174 223 120 342 148 450 c 0
 189 608 344 718 505 718 c 0
 659 718 759 603 716 450 c 0
 693 366 632 298 570 240 c 2
 317 5 l 1
EndSplineSet
Substitution2: "Tabular Numbers lookup" uniFF19
EndChar

StartChar: three
Encoding: 51 51 73
Width: 604
VWidth: 0
Flags: HMW
LayerCount: 2
Fore
SplineSet
334 338 m 1
 356 418 l 1
 406 426 493 446 505 506 c 0
 511 537 494 559 463 560 c 0
 415 563 383 522 360 486 c 1
 185 488 l 1
 233 620 348 714 492 714 c 0
 606 714 726 646 692 516 c 0
 652 364 466 342 334 338 c 1
278 -18 m 0
 129 -16 52 92 74 234 c 1
 255 233 l 1
 249 185 255 140 314 136 c 0
 362 134 416 167 432 213 c 0
 457 285 376 295 324 300 c 1
 350 394 l 1
 472 390 652 356 610 192 c 0
 573 50 414 -20 278 -18 c 0
EndSplineSet
Substitution2: "Tabular Numbers lookup" uniFF13
EndChar

StartChar: five
Encoding: 53 53 74
Width: 629
VWidth: 0
Flags: HMW
LayerCount: 2
Fore
SplineSet
630 221 m 0
 590 73 434 -12 288 -14 c 0
 191 -15 105 16 27 62 c 1
 132 226 l 1
 174 192 220 165 278 164 c 0
 334 164 414 185 432 247 c 0
 449 305 390 322 344 324 c 0
 273 326 203 308 135 288 c 1
 350 700 l 1
 760 700 l 1
 707 532 l 1
 442 532 l 1
 364 424 l 1
 402 438 444 449 486 448 c 0
 610 444 660 331 630 221 c 0
EndSplineSet
Substitution2: "Tabular Numbers lookup" uniFF15
EndChar

StartChar: six
Encoding: 54 54 75
Width: 656
VWidth: 0
Flags: HMW
LayerCount: 2
Fore
SplineSet
272 250 m 0
 255 201 276 150 332 148 c 0
 392 146 452 197 470 251 c 0
 487 299 467 353 411 355 c 0
 351 357 290 304 272 250 c 0
486 695 m 1
 736 695 l 1
 444 456 l 1
 390 436 l 1
 426 458 463 477 507 477 c 0
 629 477 683 358 655 250 c 0
 614 92 459 -18 298 -18 c 0
 144 -18 44 97 87 250 c 0
 110 334 172 402 234 460 c 2
 486 695 l 1
EndSplineSet
Substitution2: "Tabular Numbers lookup" uniFF16
EndChar

StartChar: seven
Encoding: 55 55 76
Width: 588
VWidth: 0
Flags: HMW
LayerCount: 2
Fore
SplineSet
150 518 m 1
 207 699 l 1
 778 699 l 1
 241 0 l 1
 29 0 l 1
 440 518 l 1
 150 518 l 1
EndSplineSet
Substitution2: "Tabular Numbers lookup" uniFF17
EndChar

StartChar: plus
Encoding: 43 43 77
Width: 651
VWidth: 0
Flags: HMW
LayerCount: 2
Fore
SplineSet
69 191 m 1
 126 356 l 1
 662 356 l 1
 604 190 l 1
 69 191 l 1
374 552 m 1
 548 553 l 1
 355 -6 l 1
 182 -6 l 1
 374 552 l 1
EndSplineSet
EndChar

StartChar: equal
Encoding: 61 61 78
Width: 591
VWidth: 0
Flags: HMW
LayerCount: 2
Fore
SplineSet
16 67 m 1
 67 215 l 1
 566 215 l 1
 514 67 l 1
 16 67 l 1
90 290 m 1
 143 438 l 1
 642 438 l 1
 590 290 l 1
 90 290 l 1
EndSplineSet
EndChar

StartChar: percent
Encoding: 37 37 79
Width: 912
VWidth: 0
Flags: HMW
LayerCount: 2
Fore
SplineSet
142 530 m 0
 171 632 278 721 386 721 c 0
 492 721 549 624 521 528 c 0
 492 426 384 338 276 338 c 0
 170 338 114 434 142 530 c 0
276 527 m 0
 270 505 280 473 314 473 c 0
 343 473 378 506 386 532 c 0
 392 554 383 586 349 586 c 0
 320 586 284 553 276 527 c 0
523 172 m 0
 552 274 660 362 768 362 c 0
 874 362 930 266 902 170 c 0
 873 68 766 -20 658 -20 c 0
 552 -20 495 76 523 172 c 0
658 168 m 0
 650 146 666 114 692 114 c 0
 721 114 756 140 768 174 c 0
 776 196 760 228 734 228 c 0
 705 228 670 202 658 168 c 0
813 699 m 1
 1000 699 l 1
 230 0 l 1
 44 0 l 1
 813 699 l 1
EndSplineSet
EndChar

StartChar: ampersand
Encoding: 38 38 80
Width: 729
VWidth: 0
Flags: HMW
LayerCount: 2
Fore
SplineSet
293 368 m 2
 262 422 233 476 250 540 c 0
 278 650 406 718 514 718 c 0
 612 718 698 649 672 545 c 0
 646 441 534 381 446 336 c 0
 382 304 262 284 238 204 c 0
 224 160 252 135 294 131 c 0
 428 119 554 262 638 348 c 1
 728 256 l 1
 605 123 435 -16 244 -14 c 0
 128 -13 25 64 59 190 c 0
 98 334 251 371 371 421 c 0
 417 441 507 474 519 530 c 0
 524 554 513 582 478 582 c 0
 447 582 417 561 406 527 c 0
 391 478 427 430 449 392 c 2
 676 0 l 1
 501 0 l 1
 293 368 l 2
EndSplineSet
EndChar

StartChar: question
Encoding: 63 63 81
Width: 609
VWidth: 0
Flags: HMW
LayerCount: 2
Fore
SplineSet
512 501 m 0
 528 549 498 575 452 577 c 0
 383 581 320 532 270 490 c 1
 185 592 l 1
 273 662 376 723 492 722 c 0
 617 721 719 629 680 499 c 0
 644 377 524 314 410 284 c 1
 380 211 l 1
 236 211 l 1
 276 390 l 1
 306 390 l 1
 377 394 486 424 512 501 c 0
146 66 m 0
 146 117 193 155 248 155 c 0
 304 155 350 118 350 66 c 0
 350 13 303 -26 248 -26 c 0
 192 -26 146 12 146 66 c 0
EndSplineSet
EndChar

StartChar: parenleft
Encoding: 40 40 82
Width: 329
VWidth: 0
Flags: HMW
LayerCount: 2
Fore
SplineSet
372 779 m 1
 527 778 l 1
 424 626 329 466 273 290 c 0
 223 132 203 -36 229 -201 c 1
 82 -201 l 1
 50 -37 63 130 110 290 c 0
 163 469 256 633 372 779 c 1
EndSplineSet
EndChar

StartChar: parenright
Encoding: 41 41 83
Width: 329
VWidth: 0
Flags: HMW
LayerCount: 2
Fore
SplineSet
68 -199 m 1
 -86 -198 l 1
 17 -46 111 114 167 290 c 0
 217 448 237 616 211 781 c 1
 358 781 l 1
 390 617 377 450 330 290 c 0
 277 111 184 -53 68 -199 c 1
EndSplineSet
EndChar

StartChar: asterisk
Encoding: 42 42 84
Width: 557
VWidth: 0
Flags: HMW
LayerCount: 2
Fore
SplineSet
624 604 m 1
 622 452 l 1
 376 412 l 1
 376 494 l 1
 624 604 l 1
526 295 m 1
 372 201 l 1
 340 436 l 1
 409 476 l 1
 526 295 l 1
226 206 m 1
 127 307 l 1
 349 475 l 1
 403 425 l 1
 226 206 l 1
134 455 m 1
 226 602 l 1
 408 485 l 1
 361 414 l 1
 134 455 l 1
383 700 m 1
 544 699 l 1
 420 453 l 1
 342 452 l 1
 383 700 l 1
EndSplineSet
EndChar

StartChar: less
Encoding: 60 60 85
Width: 602
VWidth: 0
Flags: HMW
LayerCount: 2
Fore
SplineSet
325 260 m 1
 546 154 l 1
 488 -2 l 1
 76 212 l 1
 116 328 l 1
 676 542 l 1
 614 360 l 1
 325 260 l 1
EndSplineSet
EndChar

StartChar: greater
Encoding: 62 62 86
Width: 602
VWidth: 0
Flags: HMW
LayerCount: 2
Fore
SplineSet
350 270 m 1
 130 377 l 1
 186 534 l 1
 600 320 l 1
 558 204 l 1
 -1 -10 l 1
 61 172 l 1
 350 270 l 1
EndSplineSet
EndChar

StartChar: bracketleft
Encoding: 91 91 87
Width: 358
VWidth: 0
Flags: HMW
LayerCount: 2
Fore
SplineSet
408 632 m 1
 192 -72 l 1
 287 -72 l 1
 240 -220 l 1
 -23 -220 l 1
 286 780 l 1
 549 780 l 1
 502 632 l 1
 408 632 l 1
EndSplineSet
EndChar

StartChar: bracketright
Encoding: 93 93 88
Width: 358
VWidth: 0
Flags: HMW
LayerCount: 2
Fore
SplineSet
55 -72 m 1
 272 632 l 1
 176 632 l 1
 222 780 l 1
 486 780 l 1
 176 -220 l 1
 -87 -220 l 1
 -40 -72 l 1
 55 -72 l 1
EndSplineSet
EndChar

StartChar: asciicircum
Encoding: 94 94 89
Width: 479
VWidth: 0
Flags: HMW
LayerCount: 2
Fore
SplineSet
384 562 m 1
 278 444 l 1
 119 444 l 1
 371 709 l 1
 474 710 l 1
 544 444 l 1
 405 444 l 1
 384 562 l 1
EndSplineSet
EndChar

StartChar: underscore
Encoding: 95 95 90
Width: 508
VWidth: 0
Flags: HMW
LayerCount: 2
Fore
SplineSet
-112 -160 m 1
 -74 -52 l 1
 440 -52 l 1
 402 -160 l 1
 -112 -160 l 1
EndSplineSet
EndChar

StartChar: grave
Encoding: 96 96 91
Width: 352
VWidth: 0
Flags: HMW
LayerCount: 2
Fore
SplineSet
211 657 m 1
 342 709 l 1
 439 543 l 1
 341 502 l 1
 211 657 l 1
EndSplineSet
EndChar

StartChar: braceleft
Encoding: 123 123 92
Width: 399
VWidth: 0
Flags: HMW
LayerCount: 2
Fore
SplineSet
428 594 m 2
 396 489 l 2
 360 375 306 299 182 281 c 1
 186 301 l 1
 302 278 298 187 268 89 c 2
 235 -15 l 2
 226 -43 233 -63 262 -64 c 2
 299 -65 l 1
 259 -199 l 1
 172 -200 l 2
 90 -198 11 -150 39 -60 c 2
 94 118 l 2
 108 168 112 198 66 228 c 1
 102 352 l 1
 154 376 178 410 196 464 c 2
 250 641 l 2
 278 731 364 777 454 780 c 1
 562 780 l 1
 522 646 l 1
 491 646 l 2
 461 646 437 624 428 594 c 2
EndSplineSet
EndChar

StartChar: braceright
Encoding: 125 125 93
Width: 399
VWidth: 0
Flags: HMW
LayerCount: 2
Fore
SplineSet
84 -15 m 2
 116 91 l 2
 152 205 206 281 330 299 c 1
 326 279 l 1
 210 302 212 393 242 491 c 2
 276 596 l 2
 285 623 278 643 250 644 c 2
 213 644 l 1
 252 780 l 1
 340 780 l 2
 422 778 500 730 472 640 c 2
 418 462 l 2
 404 412 399 382 445 352 c 1
 410 228 l 1
 358 204 333 170 315 116 c 2
 262 -61 l 2
 234 -151 146 -197 56 -200 c 1
 -50 -200 l 1
 -11 -66 l 1
 20 -66 l 2
 50 -66 75 -45 84 -15 c 2
EndSplineSet
EndChar

StartChar: asciitilde
Encoding: 126 126 94
Width: 541
VWidth: 0
Flags: HMW
LayerCount: 2
Fore
SplineSet
172 158 m 1
 44 164 l 1
 44 172 44 182 46 190 c 0
 54 228 77 265 104 292 c 0
 141 329 192 353 246 351 c 0
 287 350 322 328 352 302 c 0
 366 290 386 268 406 268 c 0
 424 268 442 290 449 304 c 0
 454 315 454 329 454 341 c 1
 582 334 l 1
 582 324 581 315 579 306 c 0
 571 268 551 230 524 202 c 0
 492 170 445 147 399 148 c 0
 358 149 323 173 292 199 c 0
 274 213 254 234 230 232 c 0
 207 230 183 210 174 190 c 0
 170 180 172 168 172 158 c 1
EndSplineSet
EndChar

StartChar: exclamdown
Encoding: 161 161 95
Width: 335
VWidth: 0
Flags: HMW
LayerCount: 2
Fore
SplineSet
139 -224 m 1
 -68 -224 l 1
 124 234 l 1
 263 234 l 1
 139 -224 l 1
354 405 m 0
 340 353 282 312 228 312 c 0
 174 312 136 355 151 409 c 0
 165 461 224 502 278 502 c 0
 332 502 369 459 354 405 c 0
EndSplineSet
EndChar

StartChar: cent
Encoding: 162 162 96
Width: 545
VWidth: 0
Flags: HMW
LayerCount: 2
Fore
SplineSet
166 38 m 1
 290 38 l 1
 248 -112 l 1
 101 -112 l 1
 166 38 l 1
230 229 m 0
 210 177 234 129 292 126 c 0
 346 123 398 158 440 188 c 1
 392 24 l 1
 347 3 299 -10 249 -10 c 0
 112 -9 18 94 59 231 c 0
 101 373 246 469 392 470 c 0
 440 470 483 457 525 434 c 1
 476 270 l 1
 454 308 429 336 382 336 c 0
 320 336 252 286 230 229 c 0
340 578 m 1
 486 578 l 1
 422 428 l 1
 299 428 l 1
 340 578 l 1
EndSplineSet
EndChar

StartChar: sterling
Encoding: 163 163 97
Width: 583
VWidth: 0
Flags: HMW
LayerCount: 2
Fore
SplineSet
133 370 m 1
 500 370 l 1
 462 262 l 1
 94 262 l 1
 133 370 l 1
513 464 m 1
 519 508 521 558 464 560 c 0
 418 562 374 526 356 486 c 0
 325 416 389 344 368 271 c 0
 335 153 199 85 91 54 c 1
 184 156 l 1
 516 157 l 1
 462 0 l 1
 -10 0 l 1
 75 88 180 175 216 298 c 0
 240 378 170 443 192 523 c 0
 225 645 369 709 486 709 c 0
 602 709 688 638 678 520 c 1
 513 464 l 1
EndSplineSet
EndChar

StartChar: currency
Encoding: 164 164 98
Width: 541
VWidth: 0
Flags: HMW
LayerCount: 2
Fore
SplineSet
133 507 m 1
 216 570 l 1
 280 458 l 1
 206 403 l 1
 133 507 l 1
44 31 m 1
 -2 106 l 1
 123 198 l 1
 169 128 l 1
 44 31 l 1
519 402 m 1
 471 477 l 1
 598 570 l 1
 644 498 l 1
 519 402 l 1
355 136 m 1
 436 198 l 1
 502 88 l 1
 428 32 l 1
 355 136 l 1
92 301 m 0
 130 427 254 540 390 540 c 0
 523 540 582 417 546 299 c 0
 508 173 384 60 248 60 c 0
 115 60 56 183 92 301 c 0
240 298 m 0
 226 260 240 219 284 217 c 0
 332 215 382 260 398 302 c 0
 412 340 400 381 356 383 c 0
 308 385 256 340 240 298 c 0
EndSplineSet
EndChar

StartChar: yen
Encoding: 165 165 99
Width: 654
VWidth: 0
Flags: HMW
LayerCount: 2
Fore
SplineSet
72 258 m 1
 110 365 l 1
 684 365 l 1
 646 258 l 1
 72 258 l 1
22 108 m 1
 60 215 l 1
 633 215 l 1
 595 108 l 1
 22 108 l 1
621 699 m 1
 847 699 l 1
 464 272 l 1
 370 0 l 1
 175 0 l 1
 276 290 l 1
 186 700 l 1
 394 700 l 1
 424 462 l 1
 621 699 l 1
EndSplineSet
EndChar

StartChar: brokenbar
Encoding: 166 166 100
Width: 353
VWidth: 0
Flags: HMW
LayerCount: 2
Fore
SplineSet
275 695 m 1
 447 695 l 1
 352 422 l 1
 180 422 l 1
 275 695 l 1
304 278 m 1
 210 5 l 1
 38 5 l 1
 132 278 l 1
 304 278 l 1
EndSplineSet
EndChar

StartChar: section
Encoding: 167 167 101
Width: 590
VWidth: 0
Flags: HMW
LayerCount: 2
Fore
SplineSet
542 542 m 1
 518 565 492 589 456 588 c 0
 441 588 400 578 396 560 c 0
 392 535 452 530 467 524 c 0
 532 504 579 448 559 378 c 0
 527 264 395 234 292 228 c 1
 306 270 l 1
 341 283 386 300 399 340 c 0
 419 394 353 411 316 429 c 0
 258 458 226 510 244 576 c 0
 272 672 379 726 473 727 c 0
 541 728 599 703 643 653 c 1
 542 542 l 1
127 176 m 1
 161 143 202 112 256 114 c 0
 274 114 312 124 318 144 c 0
 326 174 269 181 251 188 c 0
 187 208 122 252 142 328 c 0
 172 443 314 472 416 478 c 1
 403 438 l 1
 369 424 321 407 308 368 c 0
 288 311 366 301 402 283 c 0
 462 254 500 195 480 129 c 0
 452 28 336 -25 238 -26 c 0
 152 -27 80 6 24 64 c 1
 127 176 l 1
EndSplineSet
EndChar

StartChar: dieresis
Encoding: 168 168 102
Width: 492
VWidth: 0
Flags: HMW
LayerCount: 2
Fore
SplineSet
430 626 m 0
 442 674 498 712 546 712 c 0
 596 712 631 672 619 622 c 0
 607 574 552 534 504 534 c 0
 454 534 418 576 430 626 c 0
188 626 m 0
 200 674 256 712 304 712 c 0
 354 712 390 672 378 622 c 0
 366 574 310 534 262 534 c 0
 212 534 176 576 188 626 c 0
EndSplineSet
EndChar

StartChar: copyright
Encoding: 169 169 103
Width: 752
VWidth: 0
Flags: HMW
LayerCount: 2
Fore
SplineSet
360 349 m 0
 340 293 367 244 428 241 c 0
 478 239 524 266 565 292 c 1
 533 170 l 1
 493 147 452 130 404 130 c 0
 279 130 204 231 236 351 c 0
 270 476 391 570 521 570 c 0
 567 570 604 554 640 528 c 1
 608 406 l 1
 583 438 555 460 512 460 c 0
 447 460 382 410 360 349 c 0
166 350 m 0
 118 206 175 43 345 41 c 0
 521 39 680 190 734 350 c 0
 782 494 725 657 555 659 c 0
 379 661 220 510 166 350 c 0
108 350 m 0
 162 541 346 711 550 710 c 0
 748 709 842 528 792 350 c 0
 738 159 553 -11 349 -10 c 0
 151 -9 58 172 108 350 c 0
EndSplineSet
EndChar

StartChar: registered
Encoding: 174 174 104
Width: 752
VWidth: 0
Flags: HMW
LayerCount: 2
Fore
SplineSet
427 319 m 1
 522 319 l 1
 574 150 l 1
 449 150 l 1
 427 319 l 1
372 570 m 1
 487 570 l 1
 356 150 l 1
 242 150 l 1
 372 570 l 1
413 472 m 1
 442 569 l 1
 521 570 l 1
 599 567 672 524 650 436 c 0
 628 346 540 302 454 298 c 1
 356 297 l 1
 384 385 l 1
 457 386 l 1
 483 388 522 403 530 431 c 0
 538 457 516 470 495 472 c 1
 413 472 l 1
166 350 m 0
 118 206 175 43 345 41 c 0
 521 39 680 190 734 350 c 0
 782 494 725 657 555 659 c 0
 379 661 220 510 166 350 c 0
108 350 m 0
 162 541 346 711 550 710 c 0
 748 709 842 528 792 350 c 0
 738 159 553 -11 349 -10 c 0
 151 -9 58 172 108 350 c 0
EndSplineSet
EndChar

StartChar: ordfeminine
Encoding: 170 170 105
Width: 262
VWidth: 0
Flags: HMW
LayerCount: 2
Fore
SplineSet
224 528 m 0
 222 518 229 509 239 509 c 0
 267 509 286 534 302 553 c 1
 300 522 l 1
 277 486 249 456 203 456 c 0
 162 456 128 486 140 529 c 0
 154 575 209 599 253 600 c 0
 282 601 304 590 328 576 c 1
 316 538 l 1
 302 547 290 557 272 556 c 0
 257 556 228 544 224 528 c 0
221 618 m 1
 212 682 l 1
 246 694 281 705 317 705 c 0
 364 705 415 684 406 628 c 1
 350 460 l 1
 266 461 l 1
 320 604 l 1
 318 620 320 632 301 636 c 0
 276 642 244 626 221 618 c 1
EndSplineSet
EndChar

StartChar: ordmasculine
Encoding: 186 186 106
Width: 261
VWidth: 0
Flags: HMW
LayerCount: 2
Fore
SplineSet
158 582 m 0
 177 650 250 699 319 699 c 0
 387 699 438 646 418 578 c 0
 399 510 325 461 256 461 c 0
 188 461 138 514 158 582 c 0
244 578 m 0
 238 561 243 534 265 532 c 0
 289 530 323 560 331 582 c 0
 337 599 332 628 310 630 c 0
 286 632 252 600 244 578 c 0
EndSplineSet
EndChar

StartChar: guillemotleft
Encoding: 171 171 107
Width: 517
VWidth: 0
Flags: HMW
LayerCount: 2
Fore
SplineSet
382 252 m 1
 457 58 l 1
 338 -7 l 1
 259 265 l 1
 504 514 l 1
 590 437 l 1
 382 252 l 1
178 252 m 1
 254 58 l 1
 134 -7 l 1
 56 265 l 1
 300 514 l 1
 386 437 l 1
 178 252 l 1
EndSplineSet
EndChar

StartChar: guillemotright
Encoding: 187 187 108
Width: 517
VWidth: 0
Flags: HMW
LayerCount: 2
Fore
SplineSet
202 258 m 1
 126 452 l 1
 246 517 l 1
 324 245 l 1
 80 -4 l 1
 -6 73 l 1
 202 258 l 1
406 258 m 1
 330 452 l 1
 450 517 l 1
 528 245 l 1
 284 -4 l 1
 198 73 l 1
 406 258 l 1
EndSplineSet
EndChar

StartChar: uni00AD
Encoding: 173 173 109
Width: 197
VWidth: 0
Flags: HMW
LayerCount: 2
Fore
SplineSet
20 201 m 1
 44 275 l 1
 238 275 l 1
 213 201 l 1
 20 201 l 1
EndSplineSet
EndChar

StartChar: logicalnot
Encoding: 172 172 110
Width: 620
VWidth: 0
Flags: HMW
LayerCount: 2
Fore
SplineSet
98 264 m 1
 146 412 l 1
 650 412 l 1
 568 175 l 1
 454 175 l 1
 490 264 l 1
 98 264 l 1
EndSplineSet
EndChar

StartChar: macron
Encoding: 175 175 111
Width: 505
VWidth: 0
Flags: HMW
LayerCount: 2
Fore
SplineSet
212 564 m 1
 258 712 l 1
 620 712 l 1
 574 564 l 1
 212 564 l 1
EndSplineSet
EndChar

StartChar: degree
Encoding: 176 176 112
Width: 283
VWidth: 0
Flags: HMW
LayerCount: 2
Fore
SplineSet
162 598 m 0
 181 666 254 719 324 719 c 0
 394 719 441 662 421 594 c 0
 402 526 328 473 257 473 c 0
 187 473 142 530 162 598 c 0
244 594 m 0
 238 576 244 548 268 546 c 0
 294 544 330 575 338 598 c 0
 344 616 338 645 314 647 c 0
 288 649 252 617 244 594 c 0
EndSplineSet
EndChar

StartChar: plusminus
Encoding: 177 177 113
Width: 600
VWidth: 0
Flags: HMW
LayerCount: 2
Fore
SplineSet
26 8 m 1
 72 153 l 1
 558 153 l 1
 511 8 l 1
 26 8 l 1
125 328 m 1
 174 482 l 1
 658 482 l 1
 610 328 l 1
 125 328 l 1
373 620 m 1
 544 620 l 1
 410 190 l 1
 240 191 l 1
 373 620 l 1
EndSplineSet
EndChar

StartChar: uni00B2
Encoding: 178 178 114
Width: 401
VWidth: 0
Flags: HMW
LayerCount: 2
Fore
SplineSet
57 283 m 1
 295 470 l 2
 327 494 379 525 390 566 c 0
 396 586 389 609 366 611 c 0
 328 615 302 571 286 544 c 1
 173 546 l 1
 209 636 283 710 386 710 c 0
 464 710 531 654 508 572 c 0
 494 525 456 490 418 462 c 2
 312 390 l 1
 457 388 l 1
 420 282 l 1
 57 283 l 1
EndSplineSet
EndChar

StartChar: uni00B3
Encoding: 179 179 115
Width: 358
VWidth: 0
Flags: HMW
LayerCount: 2
Fore
SplineSet
260 484 m 1
 274 530 l 1
 305 537 357 548 367 584 c 0
 371 600 360 616 344 616 c 0
 316 616 296 592 280 573 c 1
 172 574 l 1
 207 650 270 707 358 708 c 0
 426 708 501 667 478 589 c 0
 452 499 338 488 260 484 c 1
222 270 m 0
 130 272 90 334 100 420 c 1
 208 420 l 1
 208 394 206 366 240 362 c 0
 266 359 305 386 313 410 c 0
 327 452 276 456 248 461 c 1
 266 516 l 1
 339 512 450 494 423 394 c 0
 401 311 302 268 222 270 c 0
EndSplineSet
EndChar

StartChar: acute
Encoding: 180 180 116
Width: 352
VWidth: 0
Flags: HMW
LayerCount: 2
Fore
SplineSet
474 646 m 1
 264 503 l 1
 175 554 l 1
 360 707 l 1
 474 646 l 1
EndSplineSet
EndChar

StartChar: mu
Encoding: 181 181 117
Width: 584
VWidth: 0
Flags: HMW
LayerCount: 2
Fore
SplineSet
328 460 m 1
 235 208 l 2
 221 171 233 138 276 138 c 0
 318 138 342 167 358 211 c 2
 450 460 l 1
 607 460 l 1
 456 0 l 1
 282 0 l 1
 300 49 l 1
 274 13 241 -2 214 -2 c 0
 194 -2 177 1 161 18 c 1
 50 -320 l 1
 -115 -320 l 1
 154 460 l 1
 328 460 l 1
EndSplineSet
EndChar

StartChar: paragraph
Encoding: 182 182 118
Width: 657
VWidth: 0
Flags: HMW
LayerCount: 2
Fore
SplineSet
307 272 m 1
 193 288 129 368 165 486 c 0
 205 618 322 700 453 700 c 2
 790 700 l 1
 476 -220 l 1
 327 -220 l 1
 608 598 l 1
 567 598 l 1
 286 -220 l 1
 138 -220 l 1
 307 272 l 1
EndSplineSet
EndChar

StartChar: periodcentered
Encoding: 183 183 119
Width: 309
VWidth: 0
Flags: HMW
LayerCount: 2
Fore
SplineSet
92 278 m 0
 107 331 166 380 222 380 c 0
 279 380 313 327 298 274 c 0
 283 221 224 174 168 174 c 0
 111 174 77 225 92 278 c 0
EndSplineSet
EndChar

StartChar: uni00B9
Encoding: 185 185 120
Width: 457
VWidth: 0
Flags: HMW
LayerCount: 2
Fore
SplineSet
254 558 m 1
 289 662 l 1
 518 705 l 1
 368 274 l 1
 257 274 l 1
 364 582 l 1
 254 558 l 1
EndSplineSet
EndChar

StartChar: cedilla
Encoding: 184 184 121
Width: 382
VWidth: 0
Flags: HMW
LayerCount: 2
Fore
SplineSet
132 74 m 1
 265 68 l 1
 124 -56 l 1
 136 -54 149 -50 161 -51 c 0
 217 -55 242 -106 228 -157 c 0
 208 -225 132 -265 66 -268 c 0
 12 -270 -36 -252 -82 -226 c 1
 -16 -154 l 1
 6 -166 29 -179 56 -178 c 0
 74 -177 122 -163 126 -140 c 0
 130 -119 97 -114 84 -113 c 0
 52 -111 19 -120 -12 -126 c 1
 132 74 l 1
EndSplineSet
EndChar

StartChar: questiondown
Encoding: 191 191 122
Width: 609
VWidth: 0
Flags: HMW
LayerCount: 2
Fore
SplineSet
228 199 m 0
 212 151 242 125 288 123 c 0
 357 119 420 168 470 210 c 1
 555 108 l 1
 467 38 365 -23 249 -22 c 0
 124 -21 21 71 60 201 c 0
 96 323 216 386 330 416 c 1
 360 489 l 1
 504 490 l 1
 464 310 l 1
 434 310 l 1
 363 306 254 276 228 199 c 0
586 634 m 0
 572 584 510 545 460 545 c 0
 410 545 368 586 382 638 c 0
 396 688 457 726 507 726 c 0
 557 726 600 686 586 634 c 0
EndSplineSet
EndChar

StartChar: multiply
Encoding: 215 215 123
Width: 560
VWidth: 0
Flags: HMW
LayerCount: 2
Fore
SplineSet
88 -3 m 1
 19 112 l 1
 220 262 l 1
 123 416 l 1
 250 514 l 1
 340 358 l 1
 538 513 l 1
 608 398 l 1
 406 248 l 1
 503 94 l 1
 376 -4 l 1
 286 152 l 1
 88 -3 l 1
EndSplineSet
EndChar

StartChar: Oslash
Encoding: 216 216 124
Width: 743
VWidth: 0
Flags: HMW
LayerCount: 2
Fore
SplineSet
292 350 m 0
 260 266 272 162 380 160 c 0
 490 157 584 253 621 350 c 0
 653 434 640 538 532 540 c 0
 422 543 329 447 292 350 c 0
92 350 m 0
 156 552 354 719 570 718 c 0
 777 717 879 539 820 350 c 0
 756 148 556 -27 338 -26 c 0
 128 -25 33 162 92 350 c 0
854 757 m 1
 916 693 l 1
 51 -58 l 1
 -8 -2 l 1
 854 757 l 1
EndSplineSet
EndChar

StartChar: Thorn
Encoding: 222 222 125
Width: 593
VWidth: 0
Flags: HMW
LayerCount: 2
Fore
SplineSet
257 700 m 1
 420 700 l 1
 180 0 l 1
 18 0 l 1
 257 700 l 1
266 436 m 1
 320 584 l 1
 438 584 l 0
 578 580 686 503 640 353 c 0
 594 202 452 128 302 124 c 0
 160 124 l 1
 214 273 l 1
 332 273 l 1
 390 275 453 296 475 355 c 0
 497 411 457 430 407 434 c 1
 266 436 l 1
EndSplineSet
EndChar

StartChar: divide
Encoding: 247 247 126
Width: 606
VWidth: 0
Flags: HMW
LayerCount: 2
Fore
SplineSet
346 586 m 0
 361 639 420 687 476 687 c 0
 533 687 565 635 550 582 c 0
 535 529 478 482 422 482 c 0
 365 482 331 533 346 586 c 0
183 108 m 0
 198 161 257 210 313 210 c 0
 370 210 402 157 387 104 c 0
 372 51 314 4 258 4 c 0
 201 4 168 55 183 108 c 0
49 270 m 1
 103 423 l 1
 686 423 l 1
 632 270 l 1
 49 270 l 1
EndSplineSet
EndChar

StartChar: oslash
Encoding: 248 248 127
Width: 513
VWidth: 0
Flags: HMW
LayerCount: 2
Fore
SplineSet
50 231 m 0
 92 371 233 470 379 470 c 0
 517 470 607 365 566 229 c 0
 524 89 382 -10 236 -10 c 0
 98 -10 9 95 50 231 c 0
207 229 m 0
 188 179 202 125 262 123 c 0
 324 121 390 175 410 231 c 0
 428 278 412 335 354 337 c 0
 294 339 228 283 207 229 c 0
542 507 m 1
 600 464 l 1
 59 -51 l 1
 5 -12 l 1
 542 507 l 1
EndSplineSet
EndChar

StartChar: circumflex
Encoding: 710 710 128
Width: 451
VWidth: 0
Flags: HMW
LayerCount: 2
Fore
SplineSet
392 622 m 1
 284 542 l 1
 188 628 l 1
 422 762 l 1
 580 616 l 1
 444 540 l 1
 392 622 l 1
EndSplineSet
EndChar

StartChar: ogonek
Encoding: 731 731 129
Width: 244
VWidth: 0
Flags: HMW
LayerCount: 2
Fore
SplineSet
114 -105 m 1
 126 -183 l 1
 95 -205 60 -220 21 -220 c 0
 -37 -219 -80 -178 -66 -118 c 0
 -48 -42 43 -5 106 25 c 1
 145 0 l 1
 111 -24 56 -48 44 -92 c 0
 40 -105 42 -121 58 -124 c 0
 75 -127 100 -112 114 -105 c 1
EndSplineSet
EndChar

StartChar: tilde
Encoding: 732 732 130
Width: 498
VWidth: 0
Flags: HMW
LayerCount: 2
Fore
SplineSet
224 644 m 1
 255 690 302 741 364 738 c 0
 408 736 435 685 480 688 c 0
 514 690 540 719 563 740 c 1
 621 654 l 1
 584 612 526 563 466 568 c 0
 422 572 392 628 346 621 c 0
 317 617 301 593 285 572 c 1
 224 644 l 1
EndSplineSet
EndChar

StartChar: ring
Encoding: 730 730 131
Width: 321
VWidth: 0
Flags: HMW
LayerCount: 2
Fore
SplineSet
242 766 m 0
 260 832 332 884 400 884 c 0
 468 884 514 829 495 762 c 0
 477 696 403 646 335 646 c 0
 267 646 223 700 242 766 c 0
325 763 m 0
 320 747 326 722 346 720 c 0
 368 718 403 746 410 766 c 0
 415 782 409 808 389 810 c 0
 367 812 332 783 325 763 c 0
EndSplineSet
EndChar

StartChar: dotaccent
Encoding: 729 729 132
Width: 282
VWidth: 0
Flags: HMW
LayerCount: 2
Fore
SplineSet
272 823 m 0
 284 871 338 910 388 910 c 0
 438 910 474 868 462 818 c 0
 450 770 397 732 347 732 c 0
 297 732 260 773 272 823 c 0
EndSplineSet
EndChar

StartChar: uni2010
Encoding: 8208 8208 133
Width: 212
VWidth: 0
Flags: HMW
LayerCount: 2
Fore
SplineSet
2 164 m 1
 54 312 l 1
 264 312 l 1
 212 164 l 1
 2 164 l 1
EndSplineSet
EndChar

StartChar: endash
Encoding: 8211 8211 134
Width: 749
VWidth: 0
Flags: HMW
LayerCount: 2
Fore
SplineSet
64 164 m 1
 116 312 l 1
 732 312 l 1
 680 164 l 1
 64 164 l 1
EndSplineSet
EndChar

StartChar: figuredash
Encoding: 8210 8210 135
Width: 600
VWidth: 0
Flags: HMW
LayerCount: 2
Fore
SplineSet
64 164 m 1
 116 312 l 1
 580 312 l 1
 528 164 l 1
 64 164 l 1
EndSplineSet
EndChar

StartChar: emdash
Encoding: 8212 8212 136
Width: 897
VWidth: 0
Flags: HMW
LayerCount: 2
Fore
SplineSet
64 164 m 1
 116 312 l 1
 884 312 l 1
 833 164 l 1
 64 164 l 1
EndSplineSet
EndChar

StartChar: minus
Encoding: 8722 8722 137
Width: 558
VWidth: 0
Flags: HMW
LayerCount: 2
Fore
SplineSet
48 164 m 1
 100 312 l 1
 564 312 l 1
 512 164 l 1
 48 164 l 1
EndSplineSet
EndChar

StartChar: quoteright
Encoding: 8217 8217 138
Width: 327
VWidth: 0
Flags: HMW
LayerCount: 2
Fore
SplineSet
276 700 m 1
 454 699 l 1
 264 438 l 1
 136 438 l 1
 276 700 l 1
EndSplineSet
EndChar

StartChar: quoteleft
Encoding: 8216 8216 139
Width: 327
VWidth: 0
Flags: HMW
LayerCount: 2
Fore
SplineSet
331 438 m 1
 153 438 l 1
 343 699 l 1
 471 699 l 1
 331 438 l 1
EndSplineSet
EndChar

StartChar: quotesinglbase
Encoding: 8218 8218 140
Width: 327
VWidth: 0
Flags: HMW
LayerCount: 2
Fore
SplineSet
74 80 m 1
 252 79 l 1
 62 -182 l 1
 -66 -182 l 1
 74 80 l 1
EndSplineSet
EndChar

StartChar: quotedblleft
Encoding: 8220 8220 141
Width: 553
VWidth: 0
Flags: HMW
LayerCount: 2
Fore
SplineSet
331 438 m 1
 153 438 l 1
 343 699 l 1
 471 699 l 1
 331 438 l 1
557 438 m 1
 379 438 l 1
 569 699 l 1
 698 699 l 1
 557 438 l 1
EndSplineSet
EndChar

StartChar: quotedblright
Encoding: 8221 8221 142
Width: 553
VWidth: 0
Flags: HMW
LayerCount: 2
Fore
SplineSet
276 700 m 1
 454 699 l 1
 264 438 l 1
 136 438 l 1
 276 700 l 1
503 700 m 1
 681 699 l 1
 491 438 l 1
 363 438 l 1
 503 700 l 1
EndSplineSet
EndChar

StartChar: perthousand
Encoding: 8240 8240 143
Width: 1362
VWidth: 0
Flags: HMW
LayerCount: 2
Fore
SplineSet
972 172 m 0
 1001 274 1110 362 1218 362 c 0
 1324 362 1380 266 1352 170 c 0
 1323 68 1215 -20 1107 -20 c 0
 1001 -20 944 76 972 172 c 0
1108 168 m 0
 1102 146 1110 117 1136 114 c 0
 1165 111 1208 148 1216 174 c 0
 1222 196 1214 225 1188 228 c 0
 1159 231 1116 194 1108 168 c 0
142 530 m 0
 171 632 278 721 386 721 c 0
 492 721 549 624 521 528 c 0
 492 426 384 338 276 338 c 0
 170 338 114 434 142 530 c 0
276 527 m 0
 270 505 280 476 306 473 c 0
 335 470 378 506 386 532 c 0
 392 554 383 583 357 586 c 0
 328 589 284 553 276 527 c 0
523 172 m 0
 552 274 660 362 768 362 c 0
 874 362 930 266 902 170 c 0
 873 68 766 -20 658 -20 c 0
 552 -20 495 76 523 172 c 0
658 168 m 0
 652 146 662 117 688 114 c 0
 717 111 760 148 768 174 c 0
 774 196 764 225 738 228 c 0
 709 231 666 194 658 168 c 0
813 699 m 1
 1000 699 l 1
 230 0 l 1
 44 0 l 1
 813 699 l 1
EndSplineSet
EndChar

StartChar: guilsinglleft
Encoding: 8249 8249 144
Width: 329
VWidth: 0
Flags: HMW
LayerCount: 2
Fore
SplineSet
178 252 m 1
 254 58 l 1
 134 -7 l 1
 56 265 l 1
 300 514 l 1
 386 437 l 1
 178 252 l 1
EndSplineSet
EndChar

StartChar: guilsinglright
Encoding: 8250 8250 145
Width: 329
VWidth: 0
Flags: HMW
LayerCount: 2
Fore
SplineSet
217 258 m 1
 142 452 l 1
 260 517 l 1
 340 245 l 1
 95 -4 l 1
 9 73 l 1
 217 258 l 1
EndSplineSet
EndChar

StartChar: uni2031
Encoding: 8241 8241 146
Width: 1811
VWidth: 0
Flags: HMW
LayerCount: 2
Fore
SplineSet
1422 172 m 0
 1451 274 1558 362 1666 362 c 0
 1772 362 1829 266 1801 170 c 0
 1772 68 1664 -20 1556 -20 c 0
 1450 -20 1394 76 1422 172 c 0
1556 168 m 0
 1550 146 1559 117 1585 114 c 0
 1614 111 1658 148 1666 174 c 0
 1672 196 1663 225 1637 228 c 0
 1608 231 1564 194 1556 168 c 0
972 172 m 0
 1001 274 1110 362 1218 362 c 0
 1324 362 1380 266 1352 170 c 0
 1323 68 1215 -20 1107 -20 c 0
 1001 -20 944 76 972 172 c 0
1108 168 m 0
 1102 146 1110 117 1136 114 c 0
 1165 111 1208 148 1216 174 c 0
 1222 196 1214 225 1188 228 c 0
 1159 231 1116 194 1108 168 c 0
142 530 m 0
 171 632 278 721 386 721 c 0
 492 721 549 624 521 528 c 0
 492 426 384 338 276 338 c 0
 170 338 114 434 142 530 c 0
276 527 m 0
 270 505 280 476 306 473 c 0
 335 470 378 506 386 532 c 0
 392 554 383 583 357 586 c 0
 328 589 284 553 276 527 c 0
523 172 m 0
 552 274 660 362 768 362 c 0
 874 362 930 266 902 170 c 0
 873 68 766 -20 658 -20 c 0
 552 -20 495 76 523 172 c 0
658 168 m 0
 652 146 662 117 688 114 c 0
 717 111 760 148 768 174 c 0
 774 196 764 225 738 228 c 0
 709 231 666 194 658 168 c 0
813 699 m 1
 1000 699 l 1
 230 0 l 1
 44 0 l 1
 813 699 l 1
EndSplineSet
EndChar

StartChar: uni203D
Encoding: 8253 8253 147
Width: 609
VWidth: 0
Flags: HMW
LayerCount: 2
Fore
SplineSet
521 476 m 0
 545 538 505 576 444 577 c 0
 374 579 318 538 270 492 c 1
 185 592 l 1
 266 669 375 721 489 720 c 0
 613 719 719 629 680 499 c 0
 634 347 467 284 323 274 c 1
 334 348 l 1
 409 360 493 400 521 476 c 0
323 502 m 1
 479 501 l 1
 350 211 l 1
 250 211 l 1
 323 502 l 1
154 70 m 0
 168 122 230 163 282 163 c 0
 335 163 376 120 362 66 c 0
 348 14 285 -26 233 -26 c 0
 180 -26 140 16 154 70 c 0
EndSplineSet
EndChar

StartChar: Euro
Encoding: 8364 8364 148
Width: 636
VWidth: 0
Flags: HMW
LayerCount: 2
Fore
SplineSet
132 374 m 1
 165 468 l 1
 631 468 l 1
 597 374 l 1
 132 374 l 1
68 239 m 1
 102 334 l 1
 568 334 l 1
 534 239 l 1
 68 239 l 1
328 350 m 0
 302 279 272 142 384 137 c 0
 444 133 503 167 553 195 c 1
 501 19 l 1
 454 -3 403 -22 350 -22 c 0
 144 -22 116 194 166 350 c 0
 222 530 380 724 584 723 c 0
 634 723 677 705 721 681 c 1
 667 503 l 1
 636 540 600 566 550 565 c 0
 436 563 363 444 328 350 c 0
EndSplineSet
EndChar

StartChar: fraction
Encoding: 8260 8260 149
Width: 693
VWidth: 0
Flags: HMW
LayerCount: 2
Fore
SplineSet
722 699 m 1
 868 698 l 1
 140 0 l 1
 -6 0 l 1
 722 699 l 1
EndSplineSet
EndChar

StartChar: onequarter
Encoding: 188 188 150
Width: 792
VWidth: 0
Flags: HMW
LayerCount: 2
Fore
SplineSet
774 699 m 1
 890 698 l 1
 160 0 l 1
 44 0 l 1
 774 699 l 1
154 558 m 1
 190 662 l 1
 418 705 l 1
 269 274 l 1
 157 274 l 1
 264 582 l 1
 154 558 l 1
346 73 m 1
 464 152 l 1
 638 154 l 1
 655 170 l 1
 774 170 l 1
 738 72 l 1
 346 73 l 1
486 110 m 1
 338 65 l 1
 700 419 l 1
 798 420 l 1
 652 0 l 1
 531 0 l 1
 563 93 l 1
 579 99 l 1
 632 246 l 1
 486 110 l 1
EndSplineSet
EndChar

StartChar: onehalf
Encoding: 189 189 151
Width: 861
VWidth: 0
Flags: HMW
LayerCount: 2
Fore
SplineSet
774 699 m 1
 890 698 l 1
 160 0 l 1
 44 0 l 1
 774 699 l 1
154 558 m 1
 190 662 l 1
 418 705 l 1
 269 274 l 1
 157 274 l 1
 264 582 l 1
 154 558 l 1
416 3 m 1
 656 190 l 2
 688 214 739 245 750 286 c 0
 756 306 749 329 726 331 c 0
 688 335 663 291 647 264 c 1
 532 266 l 1
 568 356 643 430 746 430 c 0
 824 430 891 374 868 292 c 0
 854 245 816 210 778 182 c 2
 672 110 l 1
 818 108 l 1
 780 2 l 1
 416 3 l 1
EndSplineSet
EndChar

StartChar: threequarters
Encoding: 190 190 152
Width: 843
VWidth: 0
Flags: HMW
LayerCount: 2
Fore
SplineSet
832 699 m 1
 948 698 l 1
 220 0 l 1
 104 0 l 1
 832 699 l 1
268 484 m 1
 284 530 l 1
 315 537 365 548 375 584 c 0
 379 600 368 616 352 616 c 0
 324 616 304 592 288 573 c 1
 180 574 l 1
 215 650 278 707 366 708 c 0
 434 708 509 667 486 589 c 0
 460 499 346 488 268 484 c 1
230 270 m 0
 138 272 98 334 108 420 c 1
 216 420 l 1
 216 394 214 366 248 362 c 0
 274 359 313 386 321 410 c 0
 335 452 285 456 257 461 c 1
 274 516 l 1
 347 512 459 494 432 394 c 0
 410 311 310 268 230 270 c 0
398 73 m 1
 516 152 l 1
 690 154 l 1
 706 170 l 1
 826 170 l 1
 790 72 l 1
 398 73 l 1
538 110 m 1
 389 65 l 1
 751 419 l 1
 849 420 l 1
 704 0 l 1
 582 0 l 1
 614 93 l 1
 630 99 l 1
 684 246 l 1
 538 110 l 1
EndSplineSet
EndChar

StartChar: uni2150
Encoding: 8528 8528 153
Width: 913
VWidth: 0
Flags: HMW
LayerCount: 2
Fore
SplineSet
758 699 m 1
 904 698 l 1
 174 0 l 1
 28 0 l 1
 758 699 l 1
154 558 m 1
 190 662 l 1
 418 705 l 1
 269 274 l 1
 157 274 l 1
 264 582 l 1
 154 558 l 1
609 312 m 1
 646 420 l 1
 993 419 l 1
 657 0 l 1
 524 0 l 1
 780 310 l 1
 609 312 l 1
EndSplineSet
EndChar

StartChar: uni2151
Encoding: 8529 8529 154
Width: 859
VWidth: 0
Flags: HMW
LayerCount: 2
Fore
SplineSet
749 699 m 1
 896 698 l 1
 168 0 l 1
 21 0 l 1
 749 699 l 1
154 558 m 1
 190 662 l 1
 418 705 l 1
 269 274 l 1
 157 274 l 1
 264 582 l 1
 154 558 l 1
766 274 m 0
 774 300 767 330 736 333 c 0
 702 337 657 300 647 270 c 0
 639 244 649 213 680 210 c 0
 714 206 756 244 766 274 c 0
634 6 m 1
 476 6 l 1
 656 146 l 1
 691 158 l 1
 670 146 649 136 624 136 c 0
 550 136 519 209 536 273 c 0
 562 367 658 432 752 432 c 0
 845 432 906 363 878 271 c 0
 863 221 825 180 788 146 c 1
 634 6 l 1
EndSplineSet
EndChar

StartChar: uni2152
Encoding: 8530 8530 155
Width: 1176
VWidth: 0
Flags: HMW
LayerCount: 2
Fore
SplineSet
749 699 m 1
 896 698 l 1
 168 0 l 1
 21 0 l 1
 749 699 l 1
154 558 m 1
 190 662 l 1
 418 705 l 1
 269 274 l 1
 157 274 l 1
 264 582 l 1
 154 558 l 1
576 286 m 1
 612 388 l 1
 840 432 l 1
 690 1 l 1
 579 1 l 1
 686 310 l 1
 576 286 l 1
929 209 m 0
 917 179 892 98 944 92 c 0
 998 86 1040 171 1056 211 c 0
 1068 241 1094 322 1042 328 c 0
 988 334 945 249 929 209 c 0
820 211 m 0
 852 315 938 428 1056 428 c 0
 1180 428 1193 304 1164 209 c 0
 1132 104 1048 -8 928 -8 c 0
 806 -8 791 117 820 211 c 0
EndSplineSet
EndChar

StartChar: onethird
Encoding: 8531 8531 156
Width: 855
VWidth: 0
Flags: HMW
LayerCount: 2
Fore
SplineSet
748 699 m 1
 894 698 l 1
 166 0 l 1
 20 0 l 1
 748 699 l 1
154 558 m 1
 190 662 l 1
 418 705 l 1
 269 274 l 1
 157 274 l 1
 264 582 l 1
 154 558 l 1
658 204 m 1
 672 250 l 1
 703 257 755 268 765 304 c 0
 769 320 758 336 742 336 c 0
 714 336 694 312 678 293 c 1
 570 294 l 1
 605 370 668 427 756 428 c 0
 824 428 899 387 876 309 c 0
 850 219 736 208 658 204 c 1
620 -10 m 0
 528 -8 488 54 498 140 c 1
 606 140 l 1
 606 114 604 86 638 82 c 0
 664 79 703 106 711 130 c 0
 725 172 675 176 647 181 c 1
 664 236 l 1
 737 232 848 214 821 114 c 0
 799 31 700 -12 620 -10 c 0
EndSplineSet
EndChar

StartChar: twothirds
Encoding: 8532 8532 157
Width: 982
VWidth: 0
Flags: HMW
LayerCount: 2
Fore
SplineSet
892 699 m 1
 1038 698 l 1
 309 0 l 1
 162 0 l 1
 892 699 l 1
61 283 m 1
 300 470 l 2
 332 494 383 525 394 566 c 0
 400 586 393 609 370 611 c 0
 332 615 308 571 292 544 c 1
 177 546 l 1
 213 636 287 710 390 710 c 0
 468 710 535 654 512 572 c 0
 498 525 460 490 422 462 c 2
 317 390 l 1
 462 388 l 1
 425 282 l 1
 61 283 l 1
785 204 m 1
 800 250 l 1
 831 257 882 268 892 304 c 0
 896 320 886 336 870 336 c 0
 842 336 822 312 806 293 c 1
 697 294 l 1
 732 370 795 427 883 428 c 0
 951 428 1026 387 1003 309 c 0
 977 219 863 208 785 204 c 1
748 -10 m 0
 656 -8 614 54 624 140 c 1
 733 140 l 1
 733 114 731 86 765 82 c 0
 791 79 830 106 838 130 c 0
 852 172 802 176 774 181 c 1
 792 236 l 1
 865 232 975 214 948 114 c 0
 926 31 828 -12 748 -10 c 0
EndSplineSet
EndChar

StartChar: uni2155
Encoding: 8533 8533 158
Width: 844
VWidth: 0
Flags: HMW
LayerCount: 2
Fore
SplineSet
749 699 m 1
 896 698 l 1
 168 0 l 1
 21 0 l 1
 749 699 l 1
154 558 m 1
 190 662 l 1
 418 705 l 1
 269 274 l 1
 157 274 l 1
 264 582 l 1
 154 558 l 1
819 130 m 0
 793 42 698 -8 612 -10 c 0
 552 -12 500 9 452 36 c 1
 516 133 l 1
 541 114 567 96 602 96 c 0
 632 96 693 111 701 148 c 0
 707 178 676 191 652 193 c 0
 608 196 565 182 523 172 c 1
 609 224 l 1
 646 246 686 270 732 268 c 0
 806 264 838 197 819 130 c 0
716 316 m 1
 645 216 l 1
 510 162 l 1
 658 417 l 1
 908 418 l 1
 872 317 l 1
 716 316 l 1
EndSplineSet
EndChar

StartChar: uni2156
Encoding: 8534 8534 159
Width: 983
VWidth: 0
Flags: HMW
LayerCount: 2
Fore
SplineSet
892 699 m 1
 1038 698 l 1
 309 0 l 1
 162 0 l 1
 892 699 l 1
61 283 m 1
 300 470 l 2
 332 494 383 525 394 566 c 0
 400 586 393 609 370 611 c 0
 332 615 308 571 292 544 c 1
 177 546 l 1
 213 636 287 710 390 710 c 0
 468 710 535 654 512 572 c 0
 498 525 460 490 422 462 c 2
 317 390 l 1
 462 388 l 1
 425 282 l 1
 61 283 l 1
946 130 m 0
 920 42 825 -8 739 -10 c 0
 679 -12 628 9 580 36 c 1
 644 133 l 1
 669 114 695 96 730 96 c 0
 760 96 820 111 828 148 c 0
 834 178 803 191 779 193 c 0
 735 196 692 182 650 172 c 1
 736 224 l 1
 773 246 814 270 860 268 c 0
 934 264 965 197 946 130 c 0
844 316 m 1
 772 216 l 1
 638 162 l 1
 786 417 l 1
 1034 418 l 1
 999 317 l 1
 844 316 l 1
EndSplineSet
EndChar

StartChar: uni2157
Encoding: 8535 8535 160
Width: 903
VWidth: 0
Flags: HMW
LayerCount: 2
Fore
SplineSet
816 699 m 1
 962 698 l 1
 234 0 l 1
 88 0 l 1
 816 699 l 1
264 484 m 1
 280 530 l 1
 311 537 361 548 371 584 c 0
 375 600 364 616 348 616 c 0
 320 616 300 592 284 573 c 1
 176 574 l 1
 211 650 274 707 362 708 c 0
 430 708 505 667 482 589 c 0
 456 499 342 488 264 484 c 1
228 270 m 0
 136 272 94 334 104 420 c 1
 212 420 l 1
 212 394 210 366 244 362 c 0
 270 359 310 386 318 410 c 0
 332 452 281 456 253 461 c 1
 272 516 l 1
 345 512 455 494 428 394 c 0
 406 311 308 268 228 270 c 0
862 130 m 0
 836 42 742 -8 656 -10 c 0
 596 -12 544 9 496 36 c 1
 560 133 l 1
 585 114 611 96 646 96 c 0
 676 96 737 111 745 148 c 0
 751 178 720 191 696 193 c 0
 652 196 608 182 566 172 c 1
 652 224 l 1
 689 246 730 270 776 268 c 0
 850 264 881 197 862 130 c 0
760 316 m 1
 688 216 l 1
 554 162 l 1
 702 417 l 1
 951 418 l 1
 916 317 l 1
 760 316 l 1
EndSplineSet
EndChar

StartChar: uni2158
Encoding: 8536 8536 161
Width: 997
VWidth: 0
Flags: HMW
LayerCount: 2
Fore
SplineSet
879 698 m 1
 1025 698 l 1
 297 0 l 1
 150 0 l 1
 879 698 l 1
74 353 m 1
 192 432 l 1
 367 434 l 1
 384 450 l 1
 502 450 l 1
 468 352 l 1
 74 353 l 1
214 390 m 1
 66 345 l 1
 428 699 l 1
 526 700 l 1
 380 280 l 1
 260 280 l 1
 292 373 l 1
 308 379 l 1
 360 526 l 1
 214 390 l 1
964 130 m 0
 938 42 843 -8 757 -10 c 0
 697 -12 646 9 598 36 c 1
 662 132 l 1
 687 113 713 96 748 96 c 0
 778 96 838 111 846 148 c 0
 852 178 820 190 796 192 c 0
 752 195 710 182 668 172 c 1
 754 222 l 1
 791 244 832 268 878 266 c 0
 952 262 983 197 964 130 c 0
861 316 m 1
 790 216 l 1
 656 162 l 1
 803 416 l 1
 1053 417 l 1
 1017 316 l 1
 861 316 l 1
EndSplineSet
EndChar

StartChar: uni2159
Encoding: 8537 8537 162
Width: 858
VWidth: 0
Flags: HMW
LayerCount: 2
Fore
SplineSet
772 699 m 1
 918 698 l 1
 190 0 l 1
 44 0 l 1
 772 699 l 1
154 558 m 1
 190 662 l 1
 418 705 l 1
 269 274 l 1
 157 274 l 1
 264 582 l 1
 154 558 l 1
598 146 m 0
 590 120 600 90 631 87 c 0
 665 83 708 120 718 150 c 0
 726 176 719 206 688 210 c 0
 654 214 608 176 598 146 c 0
733 414 m 1
 891 414 l 1
 710 274 l 1
 676 262 l 1
 697 272 716 284 741 284 c 0
 815 286 847 211 830 147 c 0
 806 53 708 -12 614 -12 c 0
 521 -12 460 57 488 149 c 0
 503 199 540 240 577 274 c 1
 733 414 l 1
EndSplineSet
EndChar

StartChar: uni215A
Encoding: 8538 8538 163
Width: 896
VWidth: 0
Flags: HMW
LayerCount: 2
Fore
SplineSet
833 699 m 1
 980 698 l 1
 252 0 l 1
 105 0 l 1
 833 699 l 1
446 410 m 0
 420 322 326 272 240 270 c 0
 180 268 128 289 80 316 c 1
 144 413 l 1
 169 394 195 376 230 376 c 0
 260 376 320 391 328 428 c 0
 334 458 304 471 280 473 c 0
 236 476 192 462 150 452 c 1
 236 504 l 1
 273 526 313 550 359 548 c 0
 433 544 465 477 446 410 c 0
343 596 m 1
 272 496 l 1
 137 442 l 1
 285 697 l 1
 535 698 l 1
 499 597 l 1
 343 596 l 1
638 146 m 0
 630 120 639 90 670 87 c 0
 704 83 746 120 756 150 c 0
 764 176 757 206 726 210 c 0
 692 214 648 176 638 146 c 0
772 414 m 1
 928 414 l 1
 749 274 l 1
 714 262 l 1
 735 272 755 284 780 284 c 0
 854 286 885 211 868 147 c 0
 844 53 747 -12 653 -12 c 0
 560 -12 498 57 526 149 c 0
 541 199 579 240 616 274 c 1
 772 414 l 1
EndSplineSet
EndChar

StartChar: oneeighth
Encoding: 8539 8539 164
Width: 875
VWidth: 0
Flags: HMW
LayerCount: 2
Fore
SplineSet
772 699 m 1
 918 698 l 1
 190 0 l 1
 44 0 l 1
 772 699 l 1
154 558 m 1
 190 662 l 1
 418 704 l 1
 269 274 l 1
 157 274 l 1
 264 582 l 1
 154 558 l 1
602 321 m 0
 622 393 705 430 774 430 c 0
 838 430 911 391 890 317 c 0
 870 246 786 204 716 204 c 0
 650 204 582 247 602 321 c 0
705 306 m 0
 700 292 702 268 722 266 c 0
 743 264 774 292 780 310 c 0
 785 326 780 347 762 349 c 0
 740 351 712 324 705 306 c 0
518 116 m 0
 540 195 633 238 709 238 c 0
 781 238 856 194 834 112 c 0
 812 34 719 -10 643 -10 c 0
 572 -10 496 36 518 116 c 0
637 130 m 0
 629 112 636 85 660 83 c 0
 686 81 719 112 727 134 c 0
 733 152 726 177 704 179 c 0
 680 181 645 151 637 130 c 0
EndSplineSet
EndChar

StartChar: threeeighths
Encoding: 8540 8540 165
Width: 926
VWidth: 0
Flags: HMW
LayerCount: 2
Fore
SplineSet
824 699 m 1
 970 698 l 1
 241 0 l 1
 95 0 l 1
 824 699 l 1
264 484 m 1
 280 530 l 1
 311 537 361 548 371 584 c 0
 375 600 364 616 348 616 c 0
 320 616 300 592 284 573 c 1
 176 574 l 1
 211 650 274 707 362 708 c 0
 430 708 505 667 482 589 c 0
 456 499 342 488 264 484 c 1
228 270 m 0
 136 272 94 334 104 420 c 1
 212 420 l 1
 212 394 210 366 244 362 c 0
 270 359 310 386 318 410 c 0
 332 452 281 456 253 461 c 1
 272 516 l 1
 345 512 455 494 428 394 c 0
 406 311 308 268 228 270 c 0
653 321 m 0
 673 393 757 430 826 430 c 0
 890 430 962 391 941 317 c 0
 921 246 837 204 767 204 c 0
 701 204 633 247 653 321 c 0
756 306 m 0
 751 292 754 268 774 266 c 0
 795 264 825 292 831 310 c 0
 836 326 832 347 814 349 c 0
 792 351 763 324 756 306 c 0
569 116 m 0
 591 195 684 238 760 238 c 0
 832 238 907 194 885 112 c 0
 863 34 770 -10 694 -10 c 0
 623 -10 547 36 569 116 c 0
688 130 m 0
 680 112 686 85 710 83 c 0
 736 81 771 112 779 134 c 0
 785 152 777 177 755 179 c 0
 731 181 696 151 688 130 c 0
EndSplineSet
EndChar

StartChar: fiveeighths
Encoding: 8541 8541 166
Width: 936
VWidth: 0
Flags: HMW
LayerCount: 2
Fore
SplineSet
833 699 m 1
 980 698 l 1
 252 0 l 1
 105 0 l 1
 833 699 l 1
438 410 m 0
 412 322 318 272 232 270 c 0
 172 268 120 289 72 316 c 1
 136 413 l 1
 161 394 187 376 222 376 c 0
 252 376 312 391 320 428 c 0
 326 458 295 471 271 473 c 0
 227 476 184 462 142 452 c 1
 228 504 l 1
 265 526 306 550 352 548 c 0
 426 544 457 477 438 410 c 0
336 596 m 1
 264 496 l 1
 130 442 l 1
 278 697 l 1
 528 698 l 1
 492 597 l 1
 336 596 l 1
664 321 m 0
 684 393 767 430 836 430 c 0
 900 430 972 391 951 317 c 0
 931 246 848 204 778 204 c 0
 712 204 644 247 664 321 c 0
766 306 m 0
 761 292 764 268 784 266 c 0
 805 264 835 292 841 310 c 0
 846 326 841 347 823 349 c 0
 801 351 773 324 766 306 c 0
580 116 m 0
 602 195 694 238 770 238 c 0
 842 238 917 194 895 112 c 0
 873 34 780 -10 704 -10 c 0
 633 -10 558 36 580 116 c 0
698 130 m 0
 690 112 696 85 720 83 c 0
 746 81 780 112 788 134 c 0
 794 152 788 177 766 179 c 0
 742 181 706 151 698 130 c 0
EndSplineSet
EndChar

StartChar: seveneighths
Encoding: 8542 8542 167
Width: 833
VWidth: 0
Flags: HMW
LayerCount: 2
Fore
SplineSet
722 699 m 1
 868 698 l 1
 140 0 l 1
 -6 0 l 1
 722 699 l 1
164 592 m 1
 202 700 l 1
 548 699 l 1
 212 281 l 1
 80 281 l 1
 336 590 l 1
 164 592 l 1
560 321 m 0
 580 393 663 430 732 430 c 0
 796 430 868 391 847 317 c 0
 827 246 744 204 674 204 c 0
 608 204 540 247 560 321 c 0
662 306 m 0
 657 292 660 268 680 266 c 0
 701 264 732 292 738 310 c 0
 743 326 738 347 720 349 c 0
 698 351 669 324 662 306 c 0
476 116 m 0
 498 195 590 238 666 238 c 0
 738 238 813 194 791 112 c 0
 769 34 677 -10 601 -10 c 0
 530 -10 454 36 476 116 c 0
596 130 m 0
 588 112 594 85 618 83 c 0
 644 81 678 112 686 134 c 0
 692 152 684 177 662 179 c 0
 638 181 604 151 596 130 c 0
EndSplineSet
EndChar

StartChar: uni2074
Encoding: 8308 8308 168
Width: 412
VWidth: 0
Flags: HMW
LayerCount: 2
Fore
SplineSet
67 353 m 1
 184 432 l 1
 360 434 l 1
 376 450 l 1
 496 450 l 1
 460 352 l 1
 67 353 l 1
208 390 m 1
 58 345 l 1
 421 699 l 1
 518 700 l 1
 374 280 l 1
 252 280 l 1
 284 373 l 1
 300 379 l 1
 353 526 l 1
 208 390 l 1
EndSplineSet
EndChar

StartChar: uni2075
Encoding: 8309 8309 169
Width: 373
VWidth: 0
Flags: HMW
LayerCount: 2
Fore
SplineSet
438 410 m 0
 412 322 318 272 232 270 c 0
 172 268 120 289 72 316 c 1
 136 413 l 1
 161 394 187 376 222 376 c 0
 252 376 312 391 320 428 c 0
 326 458 295 471 271 473 c 0
 227 476 184 462 142 452 c 1
 228 504 l 1
 265 526 306 550 352 548 c 0
 426 544 457 477 438 410 c 0
336 596 m 1
 264 496 l 1
 130 442 l 1
 278 697 l 1
 528 698 l 1
 492 597 l 1
 336 596 l 1
EndSplineSet
EndChar

StartChar: uni2076
Encoding: 8310 8310 170
Width: 371
VWidth: 0
Flags: HMW
LayerCount: 2
Fore
SplineSet
218 426 m 0
 210 400 219 370 250 367 c 0
 284 363 327 400 337 430 c 0
 345 456 337 486 306 490 c 0
 272 494 228 456 218 426 c 0
352 694 m 1
 510 694 l 1
 330 554 l 1
 294 542 l 1
 315 552 335 564 360 564 c 0
 434 566 467 491 450 427 c 0
 426 333 327 268 233 268 c 0
 140 268 78 337 106 429 c 0
 121 479 159 520 196 554 c 1
 352 694 l 1
EndSplineSet
EndChar

StartChar: uni2077
Encoding: 8311 8311 171
Width: 363
VWidth: 0
Flags: HMW
LayerCount: 2
Fore
SplineSet
164 592 m 1
 202 700 l 1
 548 699 l 1
 212 281 l 1
 80 281 l 1
 336 590 l 1
 164 592 l 1
EndSplineSet
EndChar

StartChar: uni2078
Encoding: 8312 8312 172
Width: 351
VWidth: 0
Flags: HMW
LayerCount: 2
Fore
SplineSet
182 601 m 0
 202 673 285 710 354 710 c 0
 418 710 489 671 468 597 c 0
 448 526 364 484 294 484 c 0
 228 484 162 527 182 601 c 0
283 586 m 0
 278 572 280 548 300 546 c 0
 321 544 353 572 359 590 c 0
 364 606 359 627 341 629 c 0
 319 631 290 604 283 586 c 0
98 396 m 0
 120 475 212 518 288 518 c 0
 360 518 434 474 412 392 c 0
 390 314 298 270 222 270 c 0
 151 270 76 316 98 396 c 0
216 410 m 0
 208 392 214 365 238 363 c 0
 264 361 298 392 306 414 c 0
 312 432 305 457 283 459 c 0
 259 461 224 431 216 410 c 0
EndSplineSet
EndChar

StartChar: uni2079
Encoding: 8313 8313 173
Width: 367
VWidth: 0
Flags: HMW
LayerCount: 2
Fore
SplineSet
379 554 m 0
 387 580 379 610 348 613 c 0
 314 617 270 580 260 550 c 0
 252 524 261 493 292 490 c 0
 326 486 369 524 379 554 c 0
246 286 m 1
 88 286 l 1
 268 426 l 1
 303 438 l 1
 282 426 261 416 236 416 c 0
 162 416 131 489 148 553 c 0
 174 647 270 712 364 712 c 0
 457 712 520 643 492 551 c 0
 477 501 437 460 400 426 c 1
 246 286 l 1
EndSplineSet
EndChar

StartChar: uni2070
Encoding: 8304 8304 174
Width: 372
VWidth: 0
Flags: HMW
LayerCount: 2
Fore
SplineSet
236 489 m 0
 224 459 199 378 251 372 c 0
 305 366 347 451 363 491 c 0
 375 521 400 602 348 608 c 0
 294 614 252 529 236 489 c 0
127 491 m 0
 159 595 246 708 364 708 c 0
 488 708 501 584 472 489 c 0
 440 384 356 272 236 272 c 0
 114 272 98 397 127 491 c 0
EndSplineSet
EndChar

StartChar: uni2080
Encoding: 8320 8320 175
Width: 372
VWidth: 0
Flags: HMW
LayerCount: 2
Fore
SplineSet
140 209 m 0
 128 179 103 98 155 92 c 0
 209 86 251 171 267 211 c 0
 279 241 305 322 253 328 c 0
 199 334 156 249 140 209 c 0
31 211 m 0
 63 315 150 428 268 428 c 0
 392 428 405 304 376 209 c 0
 344 104 260 -8 140 -8 c 0
 18 -8 2 117 31 211 c 0
EndSplineSet
EndChar

StartChar: uni2084
Encoding: 8324 8324 176
Width: 418
VWidth: 0
Flags: HMW
LayerCount: 2
Fore
SplineSet
-30 73 m 1
 88 152 l 1
 262 154 l 1
 278 170 l 1
 398 170 l 1
 362 72 l 1
 -30 73 l 1
110 110 m 1
 -38 65 l 1
 324 419 l 1
 421 420 l 1
 276 0 l 1
 155 0 l 1
 187 93 l 1
 203 99 l 1
 256 246 l 1
 110 110 l 1
EndSplineSet
EndChar

StartChar: uni2085
Encoding: 8325 8325 177
Width: 383
VWidth: 0
Flags: HMW
LayerCount: 2
Fore
SplineSet
346 130 m 0
 320 42 226 -8 140 -10 c 0
 80 -12 28 9 -20 36 c 1
 45 133 l 1
 70 114 95 96 130 96 c 0
 160 96 220 111 228 148 c 0
 234 178 204 191 180 193 c 0
 136 196 93 182 51 172 c 1
 136 224 l 1
 173 246 214 270 260 268 c 0
 334 264 365 197 346 130 c 0
244 316 m 1
 172 216 l 1
 38 162 l 1
 186 417 l 1
 436 418 l 1
 400 317 l 1
 244 316 l 1
EndSplineSet
EndChar

StartChar: uni2086
Encoding: 8326 8326 178
Width: 384
VWidth: 0
Flags: HMW
LayerCount: 2
Fore
SplineSet
126 146 m 0
 118 120 128 90 159 87 c 0
 193 83 236 120 246 150 c 0
 254 176 246 206 215 210 c 0
 181 214 136 176 126 146 c 0
262 414 m 1
 418 414 l 1
 238 274 l 1
 203 262 l 1
 224 272 244 284 269 284 c 0
 343 286 375 211 358 147 c 0
 334 53 236 -12 142 -12 c 0
 49 -12 -13 57 15 149 c 0
 30 199 69 240 106 274 c 1
 262 414 l 1
EndSplineSet
EndChar

StartChar: uni2087
Encoding: 8327 8327 179
Width: 369
VWidth: 0
Flags: HMW
LayerCount: 2
Fore
SplineSet
73 312 m 1
 111 420 l 1
 458 419 l 1
 122 0 l 1
 -11 0 l 1
 244 310 l 1
 73 312 l 1
EndSplineSet
EndChar

StartChar: uni2088
Encoding: 8328 8328 180
Width: 358
VWidth: 0
Flags: HMW
LayerCount: 2
Fore
SplineSet
91 321 m 0
 111 393 194 430 263 430 c 0
 327 430 399 391 378 317 c 0
 358 246 274 204 204 204 c 0
 138 204 71 247 91 321 c 0
193 306 m 0
 188 292 190 268 210 266 c 0
 231 264 262 292 268 310 c 0
 273 326 268 347 250 349 c 0
 228 351 200 324 193 306 c 0
7 116 m 0
 29 195 121 238 197 238 c 0
 269 238 344 194 322 112 c 0
 300 34 208 -10 132 -10 c 0
 61 -10 -15 36 7 116 c 0
126 130 m 0
 118 112 124 85 148 83 c 0
 174 81 208 112 216 134 c 0
 222 152 215 177 193 179 c 0
 169 181 134 151 126 130 c 0
EndSplineSet
EndChar

StartChar: uni2089
Encoding: 8329 8329 181
Width: 389
VWidth: 0
Flags: HMW
LayerCount: 2
Fore
SplineSet
290 274 m 0
 298 300 289 330 258 333 c 0
 224 337 180 300 170 270 c 0
 162 244 171 213 202 210 c 0
 236 206 280 244 290 274 c 0
156 6 m 1
 -2 6 l 1
 180 146 l 1
 215 158 l 1
 194 146 173 136 148 136 c 0
 74 136 43 209 60 273 c 0
 86 367 182 432 276 432 c 0
 369 432 431 363 403 271 c 0
 388 221 349 180 312 146 c 1
 156 6 l 1
EndSplineSet
EndChar

StartChar: uni2081
Encoding: 8321 8321 182
Width: 352
VWidth: 0
Flags: HMW
LayerCount: 2
Fore
SplineSet
124 286 m 1
 160 388 l 1
 388 432 l 1
 240 1 l 1
 128 1 l 1
 234 310 l 1
 124 286 l 1
EndSplineSet
EndChar

StartChar: uni2082
Encoding: 8322 8322 183
Width: 404
VWidth: 0
Flags: HMW
LayerCount: 2
Fore
SplineSet
-35 3 m 1
 204 190 l 2
 236 214 287 245 298 286 c 0
 304 306 298 329 275 331 c 0
 237 335 210 291 194 264 c 1
 81 266 l 1
 117 356 191 430 294 430 c 0
 372 430 439 374 416 292 c 0
 402 245 364 210 326 182 c 2
 220 110 l 1
 365 108 l 1
 328 2 l 1
 -35 3 l 1
EndSplineSet
EndChar

StartChar: uni2083
Encoding: 8323 8323 184
Width: 366
VWidth: 0
Flags: HMW
LayerCount: 2
Fore
SplineSet
169 204 m 1
 184 250 l 1
 215 257 266 268 276 304 c 0
 280 320 270 336 254 336 c 0
 226 336 206 312 190 293 c 1
 82 294 l 1
 117 370 180 427 268 428 c 0
 336 428 411 387 388 309 c 0
 362 219 247 208 169 204 c 1
132 -10 m 0
 40 -8 -1 54 9 140 c 1
 118 140 l 1
 118 114 116 86 150 82 c 0
 176 79 215 106 223 130 c 0
 237 172 186 176 158 181 c 1
 176 236 l 1
 249 232 360 214 333 114 c 0
 311 31 212 -12 132 -10 c 0
EndSplineSet
EndChar

StartChar: Agrave
Encoding: 192 192 185
Width: 711
VWidth: 0
Flags: HMW
LayerCount: 2
Fore
SplineSet
165 113 m 1
 220 256 l 1
 564 256 l 1
 519 112 l 1
 165 113 l 1
450 412 m 1
 290 202 l 1
 287 158 l 1
 158 0 l 1
 -66 0 l 1
 555 752 l 1
 660 0 l 1
 456 0 l 1
 430 153 l 1
 459 202 l 1
 450 412 l 1
470 962 m 1
 602 1014 l 1
 693 848 l 1
 594 807 l 1
 470 962 l 1
EndSplineSet
EndChar

StartChar: Aacute
Encoding: 193 193 186
Width: 711
VWidth: 0
Flags: HMW
LayerCount: 2
Fore
SplineSet
165 113 m 1
 220 256 l 1
 564 256 l 1
 519 112 l 1
 165 113 l 1
450 412 m 1
 290 202 l 1
 287 158 l 1
 158 0 l 1
 -66 0 l 1
 555 752 l 1
 660 0 l 1
 456 0 l 1
 430 153 l 1
 459 202 l 1
 450 412 l 1
788 950 m 1
 574 808 l 1
 486 860 l 1
 676 1012 l 1
 788 950 l 1
EndSplineSet
EndChar

StartChar: Acircumflex
Encoding: 194 194 187
Width: 711
VWidth: 0
Flags: HMW
LayerCount: 2
Fore
SplineSet
165 113 m 1
 220 256 l 1
 564 256 l 1
 519 112 l 1
 165 113 l 1
450 412 m 1
 290 202 l 1
 287 158 l 1
 158 0 l 1
 -66 0 l 1
 555 752 l 1
 660 0 l 1
 456 0 l 1
 430 153 l 1
 459 202 l 1
 450 412 l 1
612 880 m 1
 502 800 l 1
 406 886 l 1
 642 1020 l 1
 800 874 l 1
 662 798 l 1
 612 880 l 1
EndSplineSet
EndChar

StartChar: Atilde
Encoding: 195 195 188
Width: 711
VWidth: 0
Flags: HMW
LayerCount: 2
Fore
SplineSet
165 113 m 1
 220 256 l 1
 564 256 l 1
 519 112 l 1
 165 113 l 1
450 412 m 1
 290 202 l 1
 287 158 l 1
 158 0 l 1
 -66 0 l 1
 555 752 l 1
 660 0 l 1
 456 0 l 1
 430 153 l 1
 459 202 l 1
 450 412 l 1
406 882 m 1
 438 928 486 978 548 975 c 0
 592 973 618 921 662 924 c 0
 696 926 724 956 748 977 c 1
 803 890 l 1
 765 850 706 800 646 805 c 0
 602 809 573 865 529 858 c 0
 500 854 481 829 464 808 c 1
 406 882 l 1
EndSplineSet
EndChar

StartChar: Adieresis
Encoding: 196 196 189
Width: 711
VWidth: 0
Flags: HMW
LayerCount: 2
Fore
SplineSet
165 113 m 1
 220 256 l 1
 564 256 l 1
 519 112 l 1
 165 113 l 1
450 412 m 1
 290 202 l 1
 287 158 l 1
 158 0 l 1
 -66 0 l 1
 555 752 l 1
 660 0 l 1
 456 0 l 1
 430 153 l 1
 459 202 l 1
 450 412 l 1
632 827 m 0
 646 875 702 913 750 913 c 0
 800 913 836 871 822 821 c 0
 808 773 752 735 704 735 c 0
 654 735 618 777 632 827 c 0
340 835 m 0
 354 883 410 921 458 921 c 0
 508 921 544 880 530 830 c 0
 516 782 460 743 412 743 c 0
 362 743 326 785 340 835 c 0
EndSplineSet
EndChar

StartChar: Aring
Encoding: 197 197 190
Width: 711
VWidth: 0
Flags: HMW
LayerCount: 2
Fore
SplineSet
165 113 m 1
 220 256 l 1
 564 256 l 1
 519 112 l 1
 165 113 l 1
450 412 m 1
 290 202 l 1
 287 158 l 1
 158 0 l 1
 -66 0 l 1
 555 752 l 1
 660 0 l 1
 456 0 l 1
 430 153 l 1
 459 202 l 1
 450 412 l 1
449 803 m 0
 467 869 539 920 607 920 c 0
 675 920 721 866 702 799 c 0
 684 733 610 682 542 682 c 0
 474 682 430 737 449 803 c 0
533 800 m 0
 528 784 534 758 554 756 c 0
 576 754 611 783 618 803 c 0
 623 819 616 845 596 847 c 0
 574 849 540 820 533 800 c 0
EndSplineSet
EndChar

StartChar: AE
Encoding: 198 198 191
Width: 1055
VWidth: 0
Flags: HMW
LayerCount: 2
Fore
SplineSet
256 133 m 1
 326 310 l 1
 614 310 l 1
 552 133 l 1
 256 133 l 1
606 700 m 1
 769 656 l 1
 204 0 l 1
 -46 0 l 1
 606 700 l 1
562 0 m 1
 617 157 l 1
 994 157 l 1
 939 0 l 1
 562 0 l 1
767 543 m 1
 606 700 l 1
 1178 700 l 1
 1124 543 l 1
 767 543 l 1
660 288 m 1
 714 440 l 1
 1072 440 l 1
 1018 287 l 1
 660 288 l 1
716 700 m 1
 920 700 l 1
 680 0 l 1
 476 0 l 1
 716 700 l 1
EndSplineSet
EndChar

StartChar: Ccedilla
Encoding: 199 199 192
Width: 663
VWidth: 0
Flags: HMW
LayerCount: 2
Fore
SplineSet
298 350 m 0
 263 258 302 170 406 167 c 0
 490 165 566 210 634 254 c 1
 574 50 l 1
 506 10 432 -18 352 -18 c 0
 142 -18 30 154 92 350 c 0
 157 558 362 718 582 718 c 0
 656 718 716 693 772 648 c 1
 710 444 l 1
 672 500 622 533 552 533 c 0
 442 532 336 452 298 350 c 0
284 43 m 1
 416 39 l 1
 276 -86 l 1
 288 -84 301 -81 313 -82 c 0
 368 -86 395 -135 380 -186 c 0
 360 -254 284 -294 218 -297 c 0
 164 -299 115 -281 69 -255 c 1
 136 -183 l 1
 158 -195 180 -209 207 -208 c 0
 225 -207 274 -193 278 -170 c 0
 282 -149 249 -143 236 -142 c 0
 204 -140 171 -149 140 -155 c 1
 284 43 l 1
EndSplineSet
EndChar

StartChar: Egrave
Encoding: 200 200 193
Width: 582
VWidth: 0
Flags: HMW
LayerCount: 2
Fore
SplineSet
134 0 m 1
 190 157 l 1
 528 157 l 1
 472 0 l 1
 134 0 l 1
320 543 m 1
 374 700 l 1
 713 700 l 1
 658 543 l 1
 320 543 l 1
232 288 m 1
 286 440 l 1
 606 440 l 1
 552 287 l 1
 232 288 l 1
250 700 m 1
 432 700 l 1
 191 0 l 1
 10 0 l 1
 250 700 l 1
402 942 m 1
 533 994 l 1
 625 826 l 1
 526 786 l 1
 402 942 l 1
EndSplineSet
EndChar

StartChar: Eacute
Encoding: 201 201 194
Width: 582
VWidth: 0
Flags: HMW
LayerCount: 2
Fore
SplineSet
134 0 m 1
 190 157 l 1
 528 157 l 1
 472 0 l 1
 134 0 l 1
320 543 m 1
 374 700 l 1
 713 700 l 1
 658 543 l 1
 320 543 l 1
232 288 m 1
 286 440 l 1
 606 440 l 1
 552 287 l 1
 232 288 l 1
250 700 m 1
 432 700 l 1
 191 0 l 1
 10 0 l 1
 250 700 l 1
721 930 m 1
 507 788 l 1
 418 838 l 1
 608 990 l 1
 721 930 l 1
EndSplineSet
EndChar

StartChar: Ecircumflex
Encoding: 202 202 195
Width: 582
VWidth: 0
Flags: HMW
LayerCount: 2
Fore
SplineSet
134 0 m 1
 190 157 l 1
 528 157 l 1
 472 0 l 1
 134 0 l 1
320 543 m 1
 374 700 l 1
 713 700 l 1
 658 543 l 1
 320 543 l 1
232 288 m 1
 286 440 l 1
 606 440 l 1
 552 287 l 1
 232 288 l 1
250 700 m 1
 432 700 l 1
 191 0 l 1
 10 0 l 1
 250 700 l 1
556 888 m 1
 418 794 l 1
 376 840 l 1
 568 975 l 1
 680 830 l 1
 626 794 l 1
 556 888 l 1
EndSplineSet
EndChar

StartChar: Edieresis
Encoding: 203 203 196
Width: 582
VWidth: 0
Flags: HMW
LayerCount: 2
Fore
SplineSet
134 0 m 1
 190 157 l 1
 528 157 l 1
 472 0 l 1
 134 0 l 1
320 543 m 1
 374 700 l 1
 713 700 l 1
 658 543 l 1
 320 543 l 1
232 288 m 1
 286 440 l 1
 606 440 l 1
 552 287 l 1
 232 288 l 1
250 700 m 1
 432 700 l 1
 191 0 l 1
 10 0 l 1
 250 700 l 1
568 874 m 0
 582 922 638 960 686 960 c 0
 736 960 770 919 756 869 c 0
 742 821 686 783 638 783 c 0
 588 783 554 824 568 874 c 0
326 874 m 0
 340 922 396 960 444 960 c 0
 494 960 529 919 515 869 c 0
 501 821 445 783 397 783 c 0
 347 783 312 824 326 874 c 0
EndSplineSet
EndChar

StartChar: Igrave
Encoding: 204 204 197
Width: 321
VWidth: 0
Flags: HMW
LayerCount: 2
Fore
SplineSet
250 700 m 1
 443 700 l 1
 202 0 l 1
 10 0 l 1
 250 700 l 1
259 942 m 1
 391 994 l 1
 482 826 l 1
 384 786 l 1
 259 942 l 1
EndSplineSet
EndChar

StartChar: Iacute
Encoding: 205 205 198
Width: 321
VWidth: 0
Flags: HMW
LayerCount: 2
Fore
SplineSet
250 700 m 1
 443 700 l 1
 202 0 l 1
 10 0 l 1
 250 700 l 1
578 930 m 1
 364 788 l 1
 276 838 l 1
 466 990 l 1
 578 930 l 1
EndSplineSet
EndChar

StartChar: Icircumflex
Encoding: 206 206 199
Width: 321
VWidth: 0
Flags: HMW
LayerCount: 2
Fore
SplineSet
250 700 m 1
 443 700 l 1
 202 0 l 1
 10 0 l 1
 250 700 l 1
412 888 m 1
 274 794 l 1
 232 840 l 1
 424 975 l 1
 536 830 l 1
 482 794 l 1
 412 888 l 1
EndSplineSet
EndChar

StartChar: Idieresis
Encoding: 207 207 200
Width: 321
VWidth: 0
Flags: HMW
LayerCount: 2
Fore
SplineSet
250 700 m 1
 443 700 l 1
 202 0 l 1
 10 0 l 1
 250 700 l 1
430 871 m 0
 444 919 500 957 548 957 c 0
 598 957 633 916 619 866 c 0
 605 818 549 779 501 779 c 0
 451 779 416 821 430 871 c 0
188 871 m 0
 202 919 258 957 306 957 c 0
 356 957 392 916 378 866 c 0
 364 818 308 779 260 779 c 0
 210 779 174 821 188 871 c 0
EndSplineSet
EndChar

StartChar: Ntilde
Encoding: 209 209 201
Width: 751
VWidth: 0
Flags: HMW
LayerCount: 2
Fore
SplineSet
692 700 m 1
 872 700 l 1
 622 -32 l 1
 314 358 l 1
 192 0 l 1
 10 0 l 1
 260 732 l 1
 568 342 l 1
 692 700 l 1
382 850 m 1
 414 896 462 946 524 943 c 0
 568 941 593 889 637 892 c 0
 671 894 698 923 722 944 c 1
 778 858 l 1
 740 818 682 768 622 773 c 0
 578 777 547 833 503 826 c 0
 474 822 457 797 440 776 c 1
 382 850 l 1
EndSplineSet
EndChar

StartChar: Eth
Encoding: 208 208 202
Width: 704
VWidth: 0
Flags: HMW
LayerCount: 2
Fore
SplineSet
50 300 m 1
 88 408 l 1
 438 408 l 1
 400 300 l 1
 50 300 l 1
250 700 m 1
 446 700 l 1
 206 0 l 1
 10 0 l 1
 250 700 l 1
272 0 m 0
 134 0 l 1
 194 170 l 1
 300 170 l 0
 414 174 507 244 547 350 c 0
 585 447 552 523 444 529 c 1
 314 530 l 1
 374 700 l 1
 488 700 l 0
 692 694 805 547 743 350 c 0
 679 142 488 5 272 0 c 0
EndSplineSet
EndChar

StartChar: Ograve
Encoding: 210 210 203
Width: 781
VWidth: 0
Flags: HMW
LayerCount: 2
Fore
SplineSet
292 350 m 0
 261 268 272 163 380 160 c 0
 490 157 584 254 621 350 c 0
 653 434 640 538 532 540 c 0
 422 542 328 446 292 350 c 0
92 350 m 0
 156 552 354 718 570 718 c 0
 778 718 879 539 820 350 c 0
 756 146 557 -27 338 -26 c 0
 127 -25 33 161 92 350 c 0
510 942 m 1
 642 994 l 1
 734 826 l 1
 636 786 l 1
 510 942 l 1
EndSplineSet
EndChar

StartChar: Oacute
Encoding: 211 211 204
Width: 781
VWidth: 0
Flags: HMW
LayerCount: 2
Fore
SplineSet
292 350 m 0
 261 268 272 163 380 160 c 0
 490 157 584 254 621 350 c 0
 653 434 640 538 532 540 c 0
 422 542 328 446 292 350 c 0
92 350 m 0
 156 552 354 718 570 718 c 0
 778 718 879 539 820 350 c 0
 756 146 557 -27 338 -26 c 0
 127 -25 33 161 92 350 c 0
825 930 m 1
 611 788 l 1
 522 838 l 1
 712 990 l 1
 825 930 l 1
EndSplineSet
EndChar

StartChar: Ocircumflex
Encoding: 212 212 205
Width: 781
VWidth: 0
Flags: HMW
LayerCount: 2
Fore
SplineSet
292 350 m 0
 261 268 272 163 380 160 c 0
 490 157 584 254 621 350 c 0
 653 434 640 538 532 540 c 0
 422 542 328 446 292 350 c 0
92 350 m 0
 156 552 354 718 570 718 c 0
 778 718 879 539 820 350 c 0
 756 146 557 -27 338 -26 c 0
 127 -25 33 161 92 350 c 0
661 888 m 1
 523 794 l 1
 480 840 l 1
 674 975 l 1
 786 830 l 1
 732 794 l 1
 661 888 l 1
EndSplineSet
EndChar

StartChar: Otilde
Encoding: 213 213 206
Width: 781
VWidth: 0
Flags: HMW
LayerCount: 2
Fore
SplineSet
292 350 m 0
 261 268 272 163 380 160 c 0
 490 157 584 254 621 350 c 0
 653 434 640 538 532 540 c 0
 422 542 328 446 292 350 c 0
92 350 m 0
 156 552 354 718 570 718 c 0
 778 718 879 539 820 350 c 0
 756 146 557 -27 338 -26 c 0
 127 -25 33 161 92 350 c 0
474 856 m 1
 464 895 564 935 592 934 c 0
 631 933 654 887 693 890 c 0
 721 892 745 919 765 936 c 1
 802 888 l 1
 774 857 732 816 686 820 c 0
 648 823 626 868 588 866 c 0
 558 864 537 837 520 816 c 1
 474 856 l 1
EndSplineSet
EndChar

StartChar: Odieresis
Encoding: 214 214 207
Width: 781
VWidth: 0
Flags: HMW
LayerCount: 2
Fore
SplineSet
292 350 m 0
 261 268 272 163 380 160 c 0
 490 157 584 254 621 350 c 0
 653 434 640 538 532 540 c 0
 422 542 328 446 292 350 c 0
92 350 m 0
 156 552 354 718 570 718 c 0
 778 718 879 539 820 350 c 0
 756 146 557 -27 338 -26 c 0
 127 -25 33 161 92 350 c 0
660 871 m 0
 674 919 730 957 778 957 c 0
 828 957 862 916 848 866 c 0
 834 818 778 779 730 779 c 0
 680 779 646 821 660 871 c 0
418 871 m 0
 432 919 487 957 535 957 c 0
 585 957 621 916 607 866 c 0
 593 818 537 779 489 779 c 0
 439 779 404 821 418 871 c 0
EndSplineSet
EndChar

StartChar: Ugrave
Encoding: 217 217 208
Width: 680
VWidth: 0
Flags: HMW
LayerCount: 2
Fore
SplineSet
246 700 m 1
 434 700 l 1
 276 246 l 2
 262 198 262 143 324 140 c 0
 388 137 438 193 460 247 c 1
 618 700 l 1
 806 700 l 1
 646 230 l 2
 590 75 454 -34 286 -34 c 0
 128 -34 42 77 86 230 c 0
 246 700 l 1
444 934 m 1
 576 985 l 1
 666 818 l 1
 569 778 l 1
 444 934 l 1
EndSplineSet
EndChar

StartChar: Uacute
Encoding: 218 218 209
Width: 680
VWidth: 0
Flags: HMW
LayerCount: 2
Fore
SplineSet
246 700 m 1
 434 700 l 1
 276 246 l 2
 262 198 262 143 324 140 c 0
 388 137 438 193 460 247 c 1
 618 700 l 1
 806 700 l 1
 646 230 l 2
 590 75 454 -34 286 -34 c 0
 128 -34 42 77 86 230 c 0
 246 700 l 1
766 922 m 1
 552 780 l 1
 464 830 l 1
 654 982 l 1
 766 922 l 1
EndSplineSet
EndChar

StartChar: Ucircumflex
Encoding: 219 219 210
Width: 680
VWidth: 0
Flags: HMW
LayerCount: 2
Fore
SplineSet
246 700 m 1
 434 700 l 1
 276 246 l 2
 262 198 262 143 324 140 c 0
 388 137 438 193 460 247 c 1
 618 700 l 1
 806 700 l 1
 646 230 l 2
 590 75 454 -34 286 -34 c 0
 128 -34 42 77 86 230 c 0
 246 700 l 1
588 858 m 1
 480 778 l 1
 383 865 l 1
 618 999 l 1
 776 852 l 1
 640 776 l 1
 588 858 l 1
EndSplineSet
EndChar

StartChar: Udieresis
Encoding: 220 220 211
Width: 680
VWidth: 0
Flags: HMW
LayerCount: 2
Fore
SplineSet
246 700 m 1
 434 700 l 1
 276 246 l 2
 262 198 262 143 324 140 c 0
 388 137 438 193 460 247 c 1
 618 700 l 1
 806 700 l 1
 646 230 l 2
 590 75 454 -34 286 -34 c 0
 128 -34 42 77 86 230 c 0
 246 700 l 1
632 871 m 0
 646 919 702 957 750 957 c 0
 800 957 835 916 821 866 c 0
 807 818 751 779 703 779 c 0
 653 779 618 821 632 871 c 0
344 871 m 0
 358 919 414 957 462 957 c 0
 512 957 547 916 533 866 c 0
 519 818 463 779 415 779 c 0
 365 779 330 821 344 871 c 0
EndSplineSet
EndChar

StartChar: Yacute
Encoding: 221 221 212
Width: 648
VWidth: 0
Flags: HMW
LayerCount: 2
Fore
SplineSet
750 922 m 1
 536 779 l 1
 448 830 l 1
 638 982 l 1
 750 922 l 1
619 699 m 1
 846 699 l 1
 460 271 l 1
 367 0 l 1
 174 0 l 1
 274 289 l 1
 184 700 l 1
 392 700 l 1
 422 462 l 1
 619 699 l 1
EndSplineSet
EndChar

StartChar: agrave
Encoding: 224 224 213
Width: 528
VWidth: 0
Flags: HMW
LayerCount: 2
Fore
SplineSet
177 136 m 0
 171 112 190 100 210 98 c 0
 268 94 306 145 334 187 c 1
 332 128 l 1
 294 47 225 -9 133 -9 c 0
 51 -9 -17 42 8 130 c 0
 36 228 145 276 239 276 c 0
 293 277 340 263 382 230 c 1
 358 154 l 1
 331 176 304 190 268 188 c 0
 238 186 187 169 177 136 c 0
168 308 m 1
 146 424 l 1
 216 451 289 474 365 474 c 0
 457 474 563 432 537 322 c 1
 428 0 l 1
 266 0 l 1
 368 284 l 1
 374 320 362 340 324 344 c 0
 272 350 216 326 168 308 c 1
282 690 m 1
 414 741 l 1
 506 574 l 1
 408 534 l 1
 282 690 l 1
EndSplineSet
Substitution2: "alt a" agrave.alt
EndChar

StartChar: aacute
Encoding: 225 225 214
Width: 528
VWidth: 0
Flags: HMW
LayerCount: 2
Fore
SplineSet
177 136 m 0
 171 112 190 100 210 98 c 0
 268 94 306 145 334 187 c 1
 332 128 l 1
 294 47 225 -9 133 -9 c 0
 51 -9 -17 42 8 130 c 0
 36 228 145 276 239 276 c 0
 293 277 340 263 382 230 c 1
 358 154 l 1
 331 176 304 190 268 188 c 0
 238 186 187 169 177 136 c 0
168 308 m 1
 146 424 l 1
 216 451 289 474 365 474 c 0
 457 474 563 432 537 322 c 1
 428 0 l 1
 266 0 l 1
 368 284 l 1
 374 320 362 340 324 344 c 0
 272 350 216 326 168 308 c 1
615 678 m 1
 401 535 l 1
 314 586 l 1
 504 738 l 1
 615 678 l 1
EndSplineSet
Substitution2: "alt a" aacute.alt
EndChar

StartChar: acircumflex
Encoding: 226 226 215
Width: 528
VWidth: 0
Flags: HMW
LayerCount: 2
Fore
SplineSet
177 136 m 0
 171 112 190 100 210 98 c 0
 268 94 306 145 334 187 c 1
 332 128 l 1
 294 47 225 -9 133 -9 c 0
 51 -9 -17 42 8 130 c 0
 36 228 145 276 239 276 c 0
 293 277 340 263 382 230 c 1
 358 154 l 1
 331 176 304 190 268 188 c 0
 238 186 187 169 177 136 c 0
168 308 m 1
 146 424 l 1
 216 451 289 474 365 474 c 0
 457 474 563 432 537 322 c 1
 428 0 l 1
 266 0 l 1
 368 284 l 1
 374 320 362 340 324 344 c 0
 272 350 216 326 168 308 c 1
432 614 m 1
 324 534 l 1
 226 621 l 1
 462 754 l 1
 620 608 l 1
 484 532 l 1
 432 614 l 1
EndSplineSet
Substitution2: "alt a" acircumflex.alt
EndChar

StartChar: atilde
Encoding: 227 227 216
Width: 528
VWidth: 0
Flags: HMW
LayerCount: 2
Fore
SplineSet
177 136 m 0
 171 112 190 100 210 98 c 0
 268 94 306 145 334 187 c 1
 332 128 l 1
 294 47 225 -9 133 -9 c 0
 51 -9 -17 42 8 130 c 0
 36 228 145 276 239 276 c 0
 293 277 340 263 382 230 c 1
 358 154 l 1
 331 176 304 190 268 188 c 0
 238 186 187 169 177 136 c 0
168 308 m 1
 146 424 l 1
 216 451 289 474 365 474 c 0
 457 474 563 432 537 322 c 1
 428 0 l 1
 266 0 l 1
 368 284 l 1
 374 320 362 340 324 344 c 0
 272 350 216 326 168 308 c 1
226 612 m 1
 258 658 306 709 368 706 c 0
 412 704 438 652 482 655 c 0
 516 657 543 687 567 708 c 1
 622 620 l 1
 584 580 526 531 466 536 c 0
 422 540 392 595 348 588 c 0
 319 584 301 560 284 539 c 1
 226 612 l 1
EndSplineSet
Substitution2: "alt a" atilde.alt
EndChar

StartChar: adieresis
Encoding: 228 228 217
Width: 528
VWidth: 0
Flags: HMW
LayerCount: 2
Fore
SplineSet
177 136 m 0
 171 112 190 100 210 98 c 0
 268 94 306 145 334 187 c 1
 332 128 l 1
 294 47 225 -9 133 -9 c 0
 51 -9 -17 42 8 130 c 0
 36 228 145 276 239 276 c 0
 293 277 340 263 382 230 c 1
 358 154 l 1
 331 176 304 190 268 188 c 0
 238 186 187 169 177 136 c 0
168 308 m 1
 146 424 l 1
 216 451 289 474 365 474 c 0
 457 474 563 432 537 322 c 1
 428 0 l 1
 266 0 l 1
 368 284 l 1
 374 320 362 340 324 344 c 0
 272 350 216 326 168 308 c 1
454 627 m 0
 468 675 522 713 570 713 c 0
 620 713 656 671 642 621 c 0
 628 573 572 535 524 535 c 0
 474 535 440 577 454 627 c 0
212 627 m 0
 226 675 280 713 328 713 c 0
 378 713 414 671 400 621 c 0
 386 573 330 535 282 535 c 0
 232 535 198 577 212 627 c 0
EndSplineSet
Substitution2: "alt a" adieresis.alt
EndChar

StartChar: aring
Encoding: 229 229 218
Width: 528
VWidth: 0
Flags: HMW
LayerCount: 2
Fore
SplineSet
177 136 m 0
 171 112 190 100 210 98 c 0
 268 94 306 145 334 187 c 1
 332 128 l 1
 294 47 225 -9 133 -9 c 0
 51 -9 -17 42 8 130 c 0
 36 228 145 276 239 276 c 0
 293 277 340 263 382 230 c 1
 358 154 l 1
 331 176 304 190 268 188 c 0
 238 186 187 169 177 136 c 0
168 308 m 1
 146 424 l 1
 216 451 289 474 365 474 c 0
 457 474 563 432 537 322 c 1
 428 0 l 1
 266 0 l 1
 368 284 l 1
 374 320 362 340 324 344 c 0
 272 350 216 326 168 308 c 1
310 656 m 0
 328 722 400 774 468 774 c 0
 536 774 583 719 564 652 c 0
 546 586 472 535 404 535 c 0
 336 535 291 590 310 656 c 0
394 652 m 0
 389 636 395 612 415 610 c 0
 437 608 471 636 478 656 c 0
 483 672 478 698 458 700 c 0
 436 702 401 672 394 652 c 0
EndSplineSet
Substitution2: "alt a" aring.alt
EndChar

StartChar: germandbls
Encoding: 223 223 219
Width: 614
VWidth: 0
Flags: HMW
LayerCount: 2
Fore
SplineSet
415 -12 m 0
 365 -12 269 2 236 20 c 1
 260 152 l 1
 287 136 326 124 356 124 c 0
 404 124 436 154 436 198 c 0
 436 290 338 302 338 374 c 0
 338 468 512 484 512 586 c 0
 512 626 492 644 460 644 c 0
 402 644 366 604 344 539 c 2
 162 -2 l 1
 -12 -2 l 1
 172 536 l 2
 224 689 286 798 495 798 c 0
 609 798 692 718 692 622 c 0
 692 495 519 436 519 384 c 0
 519 322 616 339 616 196 c 0
 616 80 535 -12 415 -12 c 0
EndSplineSet
EndChar

StartChar: ae
Encoding: 230 230 220
Width: 908
VWidth: 0
Flags: HMW
LayerCount: 2
Fore
SplineSet
160 -10 m 0
 34 -10 -20 42 4 127 c 0
 28 214 126 277 248 277 c 0
 307 277 355 263 435 222 c 1
 358 222 l 1
 376 281 l 2
 390 324 370 346 323 346 c 0
 279 346 206 328 164 308 c 1
 144 422 l 1
 236 458 310 474 378 474 c 0
 478 474 521 438 504 361 c 1
 488 355 l 1
 552 427 638 470 742 470 c 0
 882 470 938 393 898 251 c 0
 893 228 886 205 880 194 c 1
 516 194 l 1
 540 212 l 1
 522 148 538 110 596 110 c 0
 642 110 691 130 716 162 c 1
 865 132 l 1
 787 36 690 -10 570 -10 c 0
 460 -10 403 26 393 101 c 1
 406 100 l 1
 358 29 273 -10 160 -10 c 0
228 98 m 0
 284 98 327 128 348 184 c 1
 337 139 l 1
 344 187 l 1
 363 160 l 1
 337 178 302 188 266 188 c 0
 221 188 190 170 182 136 c 0
 176 108 190 98 228 98 c 0
546 235 m 1
 542 283 l 1
 750 283 l 1
 718 250 l 1
 723 260 722 260 724 266 c 0
 740 327 728 360 677 360 c 0
 618 360 576 317 546 235 c 1
EndSplineSet
EndChar

StartChar: ccedilla
Encoding: 231 231 221
Width: 468
VWidth: 0
Flags: HMW
LayerCount: 2
Fore
SplineSet
222 229 m 0
 202 177 224 129 282 126 c 0
 336 122 387 156 429 186 c 1
 382 26 l 1
 337 4 290 -10 240 -10 c 0
 103 -10 9 94 50 231 c 0
 92 373 236 470 382 470 c 0
 430 470 473 456 515 434 c 1
 466 273 l 1
 444 311 418 337 372 336 c 0
 310 335 244 286 222 229 c 0
177 60 m 1
 308 56 l 1
 168 -70 l 1
 180 -68 194 -64 206 -65 c 0
 261 -69 287 -119 272 -170 c 0
 252 -238 176 -278 110 -281 c 0
 56 -283 7 -264 -39 -238 c 1
 28 -167 l 1
 50 -179 73 -193 100 -192 c 0
 118 -191 167 -177 171 -154 c 0
 175 -133 141 -127 128 -126 c 0
 96 -124 63 -132 32 -138 c 1
 177 60 l 1
EndSplineSet
EndChar

StartChar: egrave
Encoding: 232 232 222
Width: 556
VWidth: 0
Flags: HMW
LayerCount: 2
Fore
SplineSet
133 194 m 1
 160 282 l 1
 390 284 l 1
 394 318 397 354 354 358 c 0
 292 363 253 297 229 251 c 2
 218 229 l 1
 200 184 194 119 256 112 c 0
 300 108 340 135 372 161 c 1
 520 128 l 1
 448 46 353 -10 241 -10 c 0
 99 -10 11 90 51 230 c 0
 56 247 63 263 70 279 c 0
 126 397 247 470 377 470 c 0
 518 470 590 374 554 238 c 0
 550 224 545 208 541 194 c 1
 133 194 l 1
300 688 m 1
 432 740 l 1
 522 573 l 1
 425 532 l 1
 300 688 l 1
EndSplineSet
EndChar

StartChar: eacute
Encoding: 233 233 223
Width: 556
VWidth: 0
Flags: HMW
LayerCount: 2
Fore
SplineSet
133 194 m 1
 160 282 l 1
 390 284 l 1
 394 318 397 354 354 358 c 0
 292 363 253 297 229 251 c 2
 218 229 l 1
 200 184 194 119 256 112 c 0
 300 108 340 135 372 161 c 1
 520 128 l 1
 448 46 353 -10 241 -10 c 0
 99 -10 11 90 51 230 c 0
 56 247 63 263 70 279 c 0
 126 397 247 470 377 470 c 0
 518 470 590 374 554 238 c 0
 550 224 545 208 541 194 c 1
 133 194 l 1
629 676 m 1
 415 534 l 1
 326 585 l 1
 516 737 l 1
 629 676 l 1
EndSplineSet
EndChar

StartChar: ecircumflex
Encoding: 234 234 224
Width: 556
VWidth: 0
Flags: HMW
LayerCount: 2
Fore
SplineSet
133 194 m 1
 160 282 l 1
 390 284 l 1
 394 318 397 354 354 358 c 0
 292 363 253 297 229 251 c 2
 218 229 l 1
 200 184 194 119 256 112 c 0
 300 108 340 135 372 161 c 1
 520 128 l 1
 448 46 353 -10 241 -10 c 0
 99 -10 11 90 51 230 c 0
 56 247 63 263 70 279 c 0
 126 397 247 470 377 470 c 0
 518 470 590 374 554 238 c 0
 550 224 545 208 541 194 c 1
 133 194 l 1
444 611 m 1
 336 531 l 1
 240 618 l 1
 475 752 l 1
 632 606 l 1
 496 530 l 1
 444 611 l 1
EndSplineSet
EndChar

StartChar: edieresis
Encoding: 235 235 225
Width: 556
VWidth: 0
Flags: HMW
LayerCount: 2
Fore
SplineSet
133 194 m 1
 160 282 l 1
 390 284 l 1
 394 318 397 354 354 358 c 0
 292 363 253 297 229 251 c 2
 218 229 l 1
 200 184 194 119 256 112 c 0
 300 108 340 135 372 161 c 1
 520 128 l 1
 448 46 353 -10 241 -10 c 0
 99 -10 11 90 51 230 c 0
 56 247 63 263 70 279 c 0
 126 397 247 470 377 470 c 0
 518 470 590 374 554 238 c 0
 550 224 545 208 541 194 c 1
 133 194 l 1
466 624 m 0
 480 672 536 710 584 710 c 0
 634 710 668 668 654 618 c 0
 640 570 585 532 537 532 c 0
 487 532 452 574 466 624 c 0
224 624 m 0
 238 672 294 710 342 710 c 0
 392 710 427 668 413 618 c 0
 399 570 343 532 295 532 c 0
 245 532 210 574 224 624 c 0
EndSplineSet
EndChar

StartChar: igrave
Encoding: 236 236 226
Width: 264
VWidth: 0
Flags: HMW
LayerCount: 2
Fore
SplineSet
153 460 m 1
 317 460 l 1
 158 0 l 1
 -4 0 l 1
 153 460 l 1
137 690 m 1
 269 742 l 1
 360 575 l 1
 262 534 l 1
 137 690 l 1
EndSplineSet
EndChar

StartChar: dotlessi
Encoding: 305 305 227
Width: 264
VWidth: 0
Flags: HMW
LayerCount: 2
Fore
SplineSet
153 460 m 1
 317 460 l 1
 158 0 l 1
 -4 0 l 1
 153 460 l 1
EndSplineSet
EndChar

StartChar: kgreenlandic
Encoding: 312 312 228
Width: 581
VWidth: 0
Flags: HMW
LayerCount: 2
Fore
SplineSet
150 460 m 1
 313 460 l 1
 154 0 l 1
 -6 0 l 1
 150 460 l 1
456 459 m 1
 669 459 l 1
 408 263 l 1
 516 0 l 1
 336 0 l 1
 217 279 l 1
 456 459 l 1
EndSplineSet
EndChar

StartChar: iacute
Encoding: 237 237 229
Width: 264
VWidth: 0
Flags: HMW
LayerCount: 2
Fore
SplineSet
153 460 m 1
 317 460 l 1
 158 0 l 1
 -4 0 l 1
 153 460 l 1
480 678 m 1
 266 536 l 1
 177 587 l 1
 367 739 l 1
 480 678 l 1
EndSplineSet
EndChar

StartChar: icircumflex
Encoding: 238 238 230
Width: 264
VWidth: 0
Flags: HMW
LayerCount: 2
Fore
SplineSet
153 460 m 1
 317 460 l 1
 158 0 l 1
 -4 0 l 1
 153 460 l 1
295 613 m 1
 187 533 l 1
 90 620 l 1
 326 754 l 1
 483 607 l 1
 347 532 l 1
 295 613 l 1
EndSplineSet
EndChar

StartChar: idieresis
Encoding: 239 239 231
Width: 264
VWidth: 0
Flags: HMW
LayerCount: 2
Fore
SplineSet
153 460 m 1
 317 460 l 1
 158 0 l 1
 -4 0 l 1
 153 460 l 1
318 629 m 0
 332 677 388 716 436 716 c 0
 486 716 521 674 507 624 c 0
 493 576 438 538 390 538 c 0
 340 538 304 579 318 629 c 0
76 629 m 0
 90 677 146 716 194 716 c 0
 244 716 280 674 266 624 c 0
 252 576 196 538 148 538 c 0
 98 538 62 579 76 629 c 0
EndSplineSet
EndChar

StartChar: ntilde
Encoding: 241 241 232
Width: 554
VWidth: 0
Flags: HMW
LayerCount: 2
Fore
SplineSet
321 460 m 1
 162 0 l 1
 -6 0 l 1
 152 460 l 1
 321 460 l 1
376 280 m 1
 384 307 392 347 354 354 c 0
 312 361 277 310 258 281 c 1
 227 274 l 1
 263 370 330 468 444 470 c 0
 552 472 578 390 552 298 c 1
 452 0 l 1
 276 0 l 1
 376 280 l 1
235 609 m 1
 267 655 314 705 376 702 c 0
 420 700 446 649 490 652 c 0
 524 654 552 683 576 704 c 1
 631 617 l 1
 593 577 534 527 474 532 c 0
 430 536 401 592 357 585 c 0
 328 581 309 557 292 536 c 1
 235 609 l 1
EndSplineSet
EndChar

StartChar: ograve
Encoding: 242 242 233
Width: 566
VWidth: 0
Flags: HMW
LayerCount: 2
Fore
SplineSet
50 231 m 0
 92 371 234 470 379 470 c 0
 516 470 606 363 566 229 c 0
 524 89 380 -10 236 -10 c 0
 99 -10 10 97 50 231 c 0
222 229 m 0
 206 189 213 133 266 131 c 0
 322 129 376 183 394 231 c 0
 410 271 403 328 350 330 c 0
 294 332 240 277 222 229 c 0
314 690 m 1
 445 742 l 1
 537 575 l 1
 438 534 l 1
 314 690 l 1
EndSplineSet
EndChar

StartChar: oacute
Encoding: 243 243 234
Width: 566
VWidth: 0
Flags: HMW
LayerCount: 2
Fore
SplineSet
50 231 m 0
 92 371 234 470 379 470 c 0
 516 470 606 363 566 229 c 0
 524 89 380 -10 236 -10 c 0
 99 -10 10 97 50 231 c 0
222 229 m 0
 206 189 213 133 266 131 c 0
 322 129 376 183 394 231 c 0
 410 271 403 328 350 330 c 0
 294 332 240 277 222 229 c 0
616 678 m 1
 402 536 l 1
 314 587 l 1
 504 739 l 1
 616 678 l 1
EndSplineSet
EndChar

StartChar: ocircumflex
Encoding: 244 244 235
Width: 566
VWidth: 0
Flags: HMW
LayerCount: 2
Fore
SplineSet
50 231 m 0
 92 371 234 470 379 470 c 0
 516 470 606 363 566 229 c 0
 524 89 380 -10 236 -10 c 0
 99 -10 10 97 50 231 c 0
222 229 m 0
 206 189 213 133 266 131 c 0
 322 129 376 183 394 231 c 0
 410 271 403 328 350 330 c 0
 294 332 240 277 222 229 c 0
448 615 m 1
 340 534 l 1
 243 622 l 1
 478 755 l 1
 636 609 l 1
 500 533 l 1
 448 615 l 1
EndSplineSet
EndChar

StartChar: otilde
Encoding: 245 245 236
Width: 566
VWidth: 0
Flags: HMW
LayerCount: 2
Fore
SplineSet
50 231 m 0
 92 371 234 470 379 470 c 0
 516 470 606 363 566 229 c 0
 524 89 380 -10 236 -10 c 0
 99 -10 10 97 50 231 c 0
222 229 m 0
 206 189 213 133 266 131 c 0
 322 129 376 183 394 231 c 0
 410 271 403 328 350 330 c 0
 294 332 240 277 222 229 c 0
240 608 m 1
 230 658 346 703 383 702 c 0
 427 701 451 649 496 652 c 0
 530 654 558 683 582 704 c 1
 637 617 l 1
 599 577 541 527 481 532 c 0
 437 536 406 592 362 585 c 0
 333 581 316 557 299 536 c 1
 240 608 l 1
EndSplineSet
EndChar

StartChar: odieresis
Encoding: 246 246 237
Width: 566
VWidth: 0
Flags: HMW
LayerCount: 2
Fore
SplineSet
50 231 m 0
 92 371 234 470 379 470 c 0
 516 470 606 363 566 229 c 0
 524 89 380 -10 236 -10 c 0
 99 -10 10 97 50 231 c 0
222 229 m 0
 206 189 213 133 266 131 c 0
 322 129 376 183 394 231 c 0
 410 271 403 328 350 330 c 0
 294 332 240 277 222 229 c 0
470 629 m 0
 484 677 539 716 587 716 c 0
 637 716 672 674 658 624 c 0
 644 576 588 538 540 538 c 0
 490 538 456 579 470 629 c 0
228 629 m 0
 242 677 298 716 346 716 c 0
 396 716 430 674 416 624 c 0
 402 576 347 538 299 538 c 0
 249 538 214 579 228 629 c 0
EndSplineSet
EndChar

StartChar: ugrave
Encoding: 249 249 238
Width: 554
VWidth: 0
Flags: HMW
LayerCount: 2
Fore
SplineSet
282 0 m 1
 441 460 l 1
 610 460 l 1
 452 0 l 1
 282 0 l 1
228 180 m 1
 220 153 212 113 250 106 c 0
 292 99 326 150 345 179 c 1
 377 186 l 1
 341 90 274 -8 160 -10 c 0
 52 -12 25 70 51 162 c 1
 152 460 l 1
 328 460 l 1
 228 180 l 1
314 690 m 1
 446 742 l 1
 538 575 l 1
 440 534 l 1
 314 690 l 1
EndSplineSet
EndChar

StartChar: uacute
Encoding: 250 250 239
Width: 554
VWidth: 0
Flags: HMW
LayerCount: 2
Fore
SplineSet
282 0 m 1
 441 460 l 1
 610 460 l 1
 452 0 l 1
 282 0 l 1
228 180 m 1
 220 153 212 113 250 106 c 0
 292 99 326 150 345 179 c 1
 377 186 l 1
 341 90 274 -8 160 -10 c 0
 52 -12 25 70 51 162 c 1
 152 460 l 1
 328 460 l 1
 228 180 l 1
602 678 m 1
 389 536 l 1
 300 587 l 1
 490 739 l 1
 602 678 l 1
EndSplineSet
EndChar

StartChar: ucircumflex
Encoding: 251 251 240
Width: 554
VWidth: 0
Flags: HMW
LayerCount: 2
Fore
SplineSet
282 0 m 1
 441 460 l 1
 610 460 l 1
 452 0 l 1
 282 0 l 1
228 180 m 1
 220 153 212 113 250 106 c 0
 292 99 326 150 345 179 c 1
 377 186 l 1
 341 90 274 -8 160 -10 c 0
 52 -12 25 70 51 162 c 1
 152 460 l 1
 328 460 l 1
 228 180 l 1
442 615 m 1
 333 534 l 1
 236 622 l 1
 472 755 l 1
 630 609 l 1
 493 533 l 1
 442 615 l 1
EndSplineSet
EndChar

StartChar: udieresis
Encoding: 252 252 241
Width: 554
VWidth: 0
Flags: HMW
LayerCount: 2
Fore
SplineSet
282 0 m 1
 441 460 l 1
 610 460 l 1
 452 0 l 1
 282 0 l 1
228 180 m 1
 220 153 212 113 250 106 c 0
 292 99 326 150 345 179 c 1
 377 186 l 1
 341 90 274 -8 160 -10 c 0
 52 -12 25 70 51 162 c 1
 152 460 l 1
 328 460 l 1
 228 180 l 1
464 628 m 0
 478 676 532 714 580 714 c 0
 630 714 666 672 652 622 c 0
 638 574 582 536 534 536 c 0
 484 536 450 578 464 628 c 0
222 628 m 0
 236 676 291 714 339 714 c 0
 389 714 424 672 410 622 c 0
 396 574 341 536 293 536 c 0
 243 536 208 578 222 628 c 0
EndSplineSet
EndChar

StartChar: yacute
Encoding: 253 253 242
Width: 512
VWidth: 0
Flags: HMW
LayerCount: 2
Fore
SplineSet
636 459 m 1
 120 -219 l 1
 -56 -219 l 1
 140 38 l 1
 94 460 l 1
 268 460 l 1
 280 88 l 1
 189 90 l 1
 457 459 l 1
 636 459 l 1
598 678 m 1
 384 536 l 1
 298 587 l 1
 487 739 l 1
 598 678 l 1
EndSplineSet
EndChar

StartChar: thorn
Encoding: 254 254 243
Width: 592
VWidth: 0
Flags: HMW
LayerCount: 2
Fore
SplineSet
88 -220 m 1
 -82 -220 l 1
 260 780 l 1
 430 780 l 1
 88 -220 l 1
592 229 m 0
 556 111 447 -10 315 -10 c 0
 183 -10 163 129 194 231 c 0
 229 345 328 469 458 469 c 0
 590 469 625 337 592 229 c 0
417 231 m 0
 433 273 424 331 370 333 c 0
 314 335 256 277 238 229 c 0
 223 189 231 130 284 127 c 0
 340 124 399 183 417 231 c 0
EndSplineSet
EndChar

StartChar: ydieresis
Encoding: 255 255 244
Width: 512
VWidth: 0
Flags: HMW
LayerCount: 2
Fore
SplineSet
636 459 m 1
 120 -219 l 1
 -56 -219 l 1
 140 38 l 1
 94 460 l 1
 268 460 l 1
 280 88 l 1
 189 90 l 1
 457 459 l 1
 636 459 l 1
441 624 m 0
 455 672 511 710 559 710 c 0
 609 710 644 668 630 618 c 0
 616 570 560 532 512 532 c 0
 462 532 427 574 441 624 c 0
200 624 m 0
 214 672 268 710 316 710 c 0
 366 710 402 668 388 618 c 0
 374 570 318 532 270 532 c 0
 220 532 186 574 200 624 c 0
EndSplineSet
EndChar

StartChar: Amacron
Encoding: 256 256 245
Width: 711
VWidth: 0
Flags: HMW
LayerCount: 2
Fore
SplineSet
165 113 m 1
 220 256 l 1
 564 256 l 1
 519 112 l 1
 165 113 l 1
450 412 m 1
 290 202 l 1
 287 158 l 1
 158 0 l 1
 -66 0 l 1
 555 752 l 1
 660 0 l 1
 456 0 l 1
 430 153 l 1
 459 202 l 1
 450 412 l 1
396 808 m 1
 448 956 l 1
 810 956 l 1
 758 807 l 1
 396 808 l 1
EndSplineSet
EndChar

StartChar: amacron
Encoding: 257 257 246
Width: 528
VWidth: 0
Flags: HMW
LayerCount: 2
Fore
SplineSet
177 136 m 0
 171 112 190 100 210 98 c 0
 268 94 306 145 334 187 c 1
 332 128 l 1
 294 47 225 -9 133 -9 c 0
 51 -9 -17 42 8 130 c 0
 36 228 145 276 239 276 c 0
 293 277 340 263 382 230 c 1
 358 154 l 1
 331 176 304 190 268 188 c 0
 238 186 187 169 177 136 c 0
168 308 m 1
 146 424 l 1
 216 451 289 474 365 474 c 0
 457 474 563 432 537 322 c 1
 428 0 l 1
 266 0 l 1
 368 284 l 1
 374 320 362 340 324 344 c 0
 272 350 216 326 168 308 c 1
215 538 m 1
 267 686 l 1
 630 686 l 1
 578 538 l 1
 215 538 l 1
EndSplineSet
Substitution2: "alt a" amacron.alt
EndChar

StartChar: breve
Encoding: 728 728 247
Width: 513
VWidth: 0
Flags: HMW
LayerCount: 2
Fore
SplineSet
324 850 m 1
 424 850 l 1
 426 826 428 800 458 796 c 0
 491 792 515 827 532 849 c 1
 640 848 l 1
 606 766 542 704 448 703 c 0
 356 702 315 764 324 850 c 1
EndSplineSet
EndChar

StartChar: Abreve
Encoding: 258 258 248
Width: 711
VWidth: 0
Flags: HMW
LayerCount: 2
Fore
SplineSet
165 113 m 1
 220 256 l 1
 564 256 l 1
 519 112 l 1
 165 113 l 1
450 412 m 1
 290 202 l 1
 287 158 l 1
 158 0 l 1
 -66 0 l 1
 555 752 l 1
 660 0 l 1
 456 0 l 1
 430 153 l 1
 459 202 l 1
 450 412 l 1
468 956 m 1
 568 955 l 1
 569 931 569 906 599 902 c 0
 632 898 658 932 676 954 c 1
 784 952 l 1
 748 870 682 809 588 808 c 0
 494 807 457 870 468 956 c 1
EndSplineSet
EndChar

StartChar: abreve
Encoding: 259 259 249
Width: 528
VWidth: 0
Flags: HMW
LayerCount: 2
Fore
SplineSet
177 136 m 0
 171 112 190 100 210 98 c 0
 268 94 306 145 334 187 c 1
 332 128 l 1
 294 47 225 -9 133 -9 c 0
 51 -9 -17 42 8 130 c 0
 36 228 145 276 239 276 c 0
 293 277 340 263 382 230 c 1
 358 154 l 1
 331 176 304 190 268 188 c 0
 238 186 187 169 177 136 c 0
168 308 m 1
 146 424 l 1
 216 451 289 474 365 474 c 0
 457 474 563 432 537 322 c 1
 428 0 l 1
 266 0 l 1
 368 284 l 1
 374 320 362 340 324 344 c 0
 272 350 216 326 168 308 c 1
286 682 m 1
 386 682 l 1
 387 658 388 632 418 628 c 0
 451 624 476 659 494 681 c 1
 602 680 l 1
 566 598 500 536 406 535 c 0
 312 534 275 596 286 682 c 1
EndSplineSet
Substitution2: "alt a" abreve.alt
EndChar

StartChar: Aogonek
Encoding: 260 260 250
Width: 711
VWidth: 0
Flags: HMW
LayerCount: 2
Fore
SplineSet
165 113 m 1
 220 256 l 1
 564 256 l 1
 519 112 l 1
 165 113 l 1
450 412 m 1
 290 202 l 1
 287 158 l 1
 158 0 l 1
 -66 0 l 1
 555 752 l 1
 660 0 l 1
 456 0 l 1
 430 153 l 1
 459 202 l 1
 450 412 l 1
566 -105 m 1
 576 -183 l 1
 544 -205 510 -220 471 -220 c 0
 413 -219 371 -178 387 -118 c 0
 407 -42 498 -5 562 25 c 1
 602 0 l 1
 568 -24 511 -48 497 -92 c 0
 493 -105 494 -121 510 -124 c 0
 527 -127 551 -112 566 -105 c 1
EndSplineSet
EndChar

StartChar: aogonek
Encoding: 261 261 251
Width: 528
VWidth: 0
Flags: HMW
LayerCount: 2
Fore
SplineSet
177 136 m 0
 171 113 190 100 210 98 c 0
 268 93 306 145 334 187 c 1
 332 128 l 1
 294 47 225 -9 133 -9 c 0
 50 -9 -17 44 8 132 c 0
 36 229 145 276 239 276 c 0
 293 276 340 263 382 230 c 1
 358 154 l 1
 331 176 304 190 268 188 c 0
 238 186 186 170 177 136 c 0
168 308 m 1
 146 424 l 1
 216 451 289 474 365 474 c 0
 457 474 563 432 537 322 c 1
 428 0 l 1
 266 0 l 1
 368 284 l 1
 374 320 362 340 324 344 c 0
 272 350 216 326 168 308 c 1
354 -105 m 1
 364 -183 l 1
 332 -205 297 -220 258 -220 c 0
 200 -219 158 -178 174 -118 c 0
 194 -42 286 -5 350 25 c 1
 390 0 l 1
 356 -24 299 -48 285 -92 c 0
 281 -105 282 -121 298 -124 c 0
 315 -127 339 -112 354 -105 c 1
EndSplineSet
Substitution2: "alt a" aogonek.alt
EndChar

StartChar: Cacute
Encoding: 262 262 252
Width: 663
VWidth: 0
Flags: HMW
LayerCount: 2
Fore
SplineSet
298 350 m 0
 263 258 302 170 406 167 c 0
 490 165 566 210 634 254 c 1
 574 50 l 1
 506 10 432 -18 352 -18 c 0
 142 -18 30 154 92 350 c 0
 157 558 362 718 582 718 c 0
 656 718 716 693 772 648 c 1
 710 444 l 1
 672 500 622 533 552 533 c 0
 442 532 336 452 298 350 c 0
788 922 m 1
 574 780 l 1
 487 830 l 1
 676 982 l 1
 788 922 l 1
EndSplineSet
EndChar

StartChar: cacute
Encoding: 263 263 253
Width: 468
VWidth: 0
Flags: HMW
LayerCount: 2
Fore
SplineSet
222 229 m 0
 202 177 224 129 282 126 c 0
 336 122 387 156 429 186 c 1
 382 26 l 1
 337 4 290 -10 240 -10 c 0
 103 -10 9 94 50 231 c 0
 92 373 236 470 382 470 c 0
 430 470 473 456 515 434 c 1
 466 273 l 1
 444 311 418 337 372 336 c 0
 310 335 244 286 222 229 c 0
590 674 m 1
 376 532 l 1
 288 584 l 1
 477 736 l 1
 590 674 l 1
EndSplineSet
EndChar

StartChar: Ccircumflex
Encoding: 264 264 254
Width: 663
VWidth: 0
Flags: HMW
LayerCount: 2
Fore
SplineSet
298 350 m 0
 263 258 302 170 406 167 c 0
 490 165 566 210 634 254 c 1
 574 50 l 1
 506 10 432 -18 352 -18 c 0
 142 -18 30 154 92 350 c 0
 157 558 362 718 582 718 c 0
 656 718 716 693 772 648 c 1
 710 444 l 1
 672 500 622 533 552 533 c 0
 442 532 336 452 298 350 c 0
648 858 m 1
 540 778 l 1
 444 865 l 1
 680 999 l 1
 837 852 l 1
 700 776 l 1
 648 858 l 1
EndSplineSet
EndChar

StartChar: ccircumflex
Encoding: 265 265 255
Width: 468
VWidth: 0
Flags: HMW
LayerCount: 2
Fore
SplineSet
222 229 m 0
 202 177 224 129 282 126 c 0
 336 122 387 156 429 186 c 1
 382 26 l 1
 337 4 290 -10 240 -10 c 0
 103 -10 9 94 50 231 c 0
 92 373 236 470 382 470 c 0
 430 470 473 456 515 434 c 1
 466 273 l 1
 444 311 418 337 372 336 c 0
 310 335 244 286 222 229 c 0
412 611 m 1
 302 531 l 1
 206 618 l 1
 442 752 l 1
 600 606 l 1
 464 530 l 1
 412 611 l 1
EndSplineSet
EndChar

StartChar: Cdotaccent
Encoding: 266 266 256
Width: 663
VWidth: 0
Flags: HMW
LayerCount: 2
Fore
SplineSet
298 350 m 0
 263 258 302 170 406 167 c 0
 490 165 566 210 634 254 c 1
 574 50 l 1
 506 10 432 -18 352 -18 c 0
 142 -18 30 154 92 350 c 0
 157 558 362 718 582 718 c 0
 656 718 716 693 772 648 c 1
 710 444 l 1
 672 500 622 533 552 533 c 0
 442 532 336 452 298 350 c 0
518 871 m 0
 532 919 588 957 636 957 c 0
 686 957 721 916 707 866 c 0
 693 818 638 779 590 779 c 0
 540 779 504 821 518 871 c 0
EndSplineSet
EndChar

StartChar: cdotaccent
Encoding: 267 267 257
Width: 468
VWidth: 0
Flags: HMW
LayerCount: 2
Fore
SplineSet
222 229 m 0
 202 177 224 129 282 126 c 0
 336 122 387 156 429 186 c 1
 382 26 l 1
 337 4 290 -10 240 -10 c 0
 103 -10 9 94 50 231 c 0
 92 373 236 470 382 470 c 0
 430 470 473 456 515 434 c 1
 466 273 l 1
 444 311 418 337 372 336 c 0
 310 335 244 286 222 229 c 0
322 632 m 0
 336 680 392 718 440 718 c 0
 490 718 525 676 511 626 c 0
 497 578 441 540 393 540 c 0
 343 540 308 582 322 632 c 0
EndSplineSet
EndChar

StartChar: Ccaron
Encoding: 268 268 258
Width: 663
VWidth: 0
Flags: HMW
LayerCount: 2
Fore
SplineSet
298 350 m 0
 263 258 302 170 406 167 c 0
 490 165 566 210 634 254 c 1
 574 50 l 1
 506 10 432 -18 352 -18 c 0
 142 -18 30 154 92 350 c 0
 157 558 362 718 582 718 c 0
 656 718 716 693 772 648 c 1
 710 444 l 1
 672 500 622 533 552 533 c 0
 442 532 336 452 298 350 c 0
652 918 m 1
 760 998 l 1
 857 912 l 1
 622 778 l 1
 464 924 l 1
 600 1000 l 1
 652 918 l 1
EndSplineSet
EndChar

StartChar: ccaron
Encoding: 269 269 259
Width: 468
VWidth: 0
Flags: HMW
LayerCount: 2
Fore
SplineSet
222 229 m 0
 202 177 224 129 282 126 c 0
 336 122 387 156 429 186 c 1
 382 26 l 1
 337 4 290 -10 240 -10 c 0
 103 -10 9 94 50 231 c 0
 92 373 236 470 382 470 c 0
 430 470 473 456 515 434 c 1
 466 273 l 1
 444 311 418 337 372 336 c 0
 310 335 244 286 222 229 c 0
415 671 m 1
 523 752 l 1
 620 664 l 1
 384 531 l 1
 226 677 l 1
 363 753 l 1
 415 671 l 1
EndSplineSet
EndChar

StartChar: Dcaron
Encoding: 270 270 260
Width: 704
VWidth: 0
Flags: HMW
LayerCount: 2
Fore
SplineSet
250 700 m 1
 446 700 l 1
 206 0 l 1
 10 0 l 1
 250 700 l 1
272 0 m 0
 134 0 l 1
 194 170 l 1
 300 170 l 0
 414 174 507 244 547 350 c 0
 585 447 552 523 444 529 c 1
 314 530 l 1
 374 700 l 1
 488 700 l 0
 692 694 805 547 743 350 c 0
 679 142 488 5 272 0 c 0
617 918 m 1
 724 998 l 1
 822 912 l 1
 586 778 l 1
 429 924 l 1
 564 1000 l 1
 617 918 l 1
EndSplineSet
EndChar

StartChar: dcaron
Encoding: 271 271 261
Width: 592
VWidth: 0
Flags: HMW
LayerCount: 2
Fore
SplineSet
590 780 m 1
 759 780 l 1
 491 0 l 1
 322 0 l 1
 590 780 l 1
50 231 m 0
 86 349 196 470 328 470 c 0
 460 470 479 331 448 229 c 0
 413 115 316 -9 186 -9 c 0
 54 -9 17 123 50 231 c 0
226 229 m 0
 210 187 218 129 272 127 c 0
 328 125 386 183 404 231 c 0
 419 271 413 330 360 333 c 0
 304 336 244 277 226 229 c 0
860 778 m 1
 1024 743 l 1
 817 499 l 1
 690 524 l 1
 860 778 l 1
EndSplineSet
EndChar

StartChar: Dcroat
Encoding: 272 272 262
Width: 704
VWidth: 0
Flags: HMW
LayerCount: 2
Fore
SplineSet
48 294 m 1
 85 402 l 1
 427 402 l 1
 389 294 l 1
 48 294 l 1
250 700 m 1
 446 700 l 1
 206 0 l 1
 10 0 l 1
 250 700 l 1
272 0 m 0
 134 0 l 1
 194 170 l 1
 300 170 l 0
 414 174 507 244 547 350 c 0
 585 447 552 523 444 529 c 1
 314 530 l 1
 374 700 l 1
 488 700 l 0
 692 694 805 547 743 350 c 0
 679 142 488 5 272 0 c 0
EndSplineSet
EndChar

StartChar: dcroat
Encoding: 273 273 263
Width: 592
VWidth: 0
Flags: HMW
LayerCount: 2
Fore
SplineSet
410 558 m 1
 448 665 l 1
 806 665 l 1
 768 558 l 1
 410 558 l 1
590 780 m 1
 759 780 l 1
 491 0 l 1
 322 0 l 1
 590 780 l 1
50 231 m 0
 86 349 196 470 328 470 c 0
 460 470 479 331 448 229 c 0
 413 115 316 -9 186 -9 c 0
 54 -9 17 123 50 231 c 0
226 229 m 0
 210 187 218 129 272 127 c 0
 328 125 386 183 404 231 c 0
 419 271 413 330 360 333 c 0
 304 336 244 277 226 229 c 0
EndSplineSet
EndChar

StartChar: Emacron
Encoding: 274 274 264
Width: 582
VWidth: 0
Flags: HMW
LayerCount: 2
Fore
SplineSet
134 0 m 1
 190 157 l 1
 528 157 l 1
 472 0 l 1
 134 0 l 1
320 543 m 1
 374 700 l 1
 713 700 l 1
 658 543 l 1
 320 543 l 1
232 288 m 1
 286 440 l 1
 606 440 l 1
 552 287 l 1
 232 288 l 1
250 700 m 1
 432 700 l 1
 191 0 l 1
 10 0 l 1
 250 700 l 1
326 778 m 1
 378 926 l 1
 740 926 l 1
 688 778 l 1
 326 778 l 1
EndSplineSet
EndChar

StartChar: emacron
Encoding: 275 275 265
Width: 556
VWidth: 0
Flags: HMW
LayerCount: 2
Fore
SplineSet
133 194 m 1
 160 282 l 1
 390 284 l 1
 394 318 397 354 354 358 c 0
 292 363 253 297 229 251 c 2
 218 229 l 1
 200 184 194 119 256 112 c 0
 300 108 340 135 372 161 c 1
 520 128 l 1
 448 46 353 -10 241 -10 c 0
 99 -10 11 90 51 230 c 0
 56 247 63 263 70 279 c 0
 126 397 247 470 377 470 c 0
 518 470 590 374 554 238 c 0
 550 224 545 208 541 194 c 1
 133 194 l 1
227 531 m 1
 279 679 l 1
 642 679 l 1
 589 531 l 1
 227 531 l 1
EndSplineSet
EndChar

StartChar: Ebreve
Encoding: 276 276 266
Width: 582
VWidth: 0
Flags: HMW
LayerCount: 2
Fore
SplineSet
134 0 m 1
 190 157 l 1
 528 157 l 1
 472 0 l 1
 134 0 l 1
320 543 m 1
 374 700 l 1
 713 700 l 1
 658 543 l 1
 320 543 l 1
232 288 m 1
 286 440 l 1
 606 440 l 1
 552 287 l 1
 232 288 l 1
250 700 m 1
 432 700 l 1
 191 0 l 1
 10 0 l 1
 250 700 l 1
396 926 m 1
 497 926 l 1
 498 902 498 876 528 872 c 0
 561 868 586 904 604 926 c 1
 714 924 l 1
 678 842 611 780 517 779 c 0
 423 778 385 840 396 926 c 1
EndSplineSet
EndChar

StartChar: ebreve
Encoding: 277 277 267
Width: 556
VWidth: 0
Flags: HMW
LayerCount: 2
Fore
SplineSet
133 194 m 1
 160 282 l 1
 390 284 l 1
 394 318 397 354 354 358 c 0
 292 363 253 297 229 251 c 2
 218 229 l 1
 200 184 194 119 256 112 c 0
 300 108 340 135 372 161 c 1
 520 128 l 1
 448 46 353 -10 241 -10 c 0
 99 -10 11 90 51 230 c 0
 56 247 63 263 70 279 c 0
 126 397 247 470 377 470 c 0
 518 470 590 374 554 238 c 0
 550 224 545 208 541 194 c 1
 133 194 l 1
299 679 m 1
 399 678 l 1
 400 654 400 629 430 625 c 0
 463 621 488 656 506 678 c 1
 616 676 l 1
 580 594 513 533 419 532 c 0
 325 531 288 593 299 679 c 1
EndSplineSet
EndChar

StartChar: Edotaccent
Encoding: 278 278 268
Width: 582
VWidth: 0
Flags: HMW
LayerCount: 2
Fore
SplineSet
134 0 m 1
 190 157 l 1
 528 157 l 1
 472 0 l 1
 134 0 l 1
320 543 m 1
 374 700 l 1
 713 700 l 1
 658 543 l 1
 320 543 l 1
232 288 m 1
 286 440 l 1
 606 440 l 1
 552 287 l 1
 232 288 l 1
250 700 m 1
 432 700 l 1
 191 0 l 1
 10 0 l 1
 250 700 l 1
443 871 m 0
 457 919 512 957 560 957 c 0
 610 957 646 916 632 866 c 0
 618 818 562 779 514 779 c 0
 464 779 429 821 443 871 c 0
EndSplineSet
EndChar

StartChar: edotaccent
Encoding: 279 279 269
Width: 556
VWidth: 0
Flags: HMW
LayerCount: 2
Fore
SplineSet
133 194 m 1
 160 282 l 1
 390 284 l 1
 394 318 397 354 354 358 c 0
 292 363 253 297 229 251 c 2
 218 229 l 1
 200 184 194 119 256 112 c 0
 300 108 340 135 372 161 c 1
 520 128 l 1
 448 46 353 -10 241 -10 c 0
 99 -10 11 90 51 230 c 0
 56 247 63 263 70 279 c 0
 126 397 247 470 377 470 c 0
 518 470 590 374 554 238 c 0
 550 224 545 208 541 194 c 1
 133 194 l 1
345 624 m 0
 359 672 414 710 462 710 c 0
 512 710 548 668 534 618 c 0
 520 570 464 532 416 532 c 0
 366 532 331 574 345 624 c 0
EndSplineSet
EndChar

StartChar: Eogonek
Encoding: 280 280 270
Width: 582
VWidth: 0
Flags: HMW
LayerCount: 2
Fore
SplineSet
134 0 m 1
 190 157 l 1
 528 157 l 1
 472 0 l 1
 134 0 l 1
320 543 m 1
 374 700 l 1
 713 700 l 1
 658 543 l 1
 320 543 l 1
232 288 m 1
 286 440 l 1
 606 440 l 1
 552 287 l 1
 232 288 l 1
250 700 m 1
 432 700 l 1
 191 0 l 1
 10 0 l 1
 250 700 l 1
292 -105 m 1
 302 -183 l 1
 270 -205 236 -220 197 -220 c 0
 139 -219 97 -178 113 -118 c 0
 133 -42 224 -5 288 25 c 1
 328 0 l 1
 294 -24 238 -48 224 -92 c 0
 220 -105 220 -121 236 -124 c 0
 253 -127 277 -112 292 -105 c 1
EndSplineSet
EndChar

StartChar: eogonek
Encoding: 281 281 271
Width: 556
VWidth: 0
Flags: HMW
LayerCount: 2
Fore
SplineSet
133 194 m 1
 160 282 l 1
 390 284 l 1
 394 318 397 354 354 358 c 0
 292 363 253 297 229 251 c 2
 218 229 l 1
 200 184 194 119 256 112 c 0
 300 108 340 135 372 161 c 1
 520 128 l 1
 448 46 353 -10 241 -10 c 0
 99 -10 11 90 51 230 c 0
 56 247 63 263 70 279 c 0
 126 397 247 470 377 470 c 0
 518 470 590 374 554 238 c 0
 550 224 545 208 541 194 c 1
 133 194 l 1
226 -94 m 1
 236 -172 l 1
 204 -194 170 -208 131 -208 c 0
 73 -207 31 -168 47 -108 c 0
 67 -32 158 6 222 36 c 1
 262 6 l 1
 226 -14 171 -40 157 -82 c 0
 153 -95 154 -111 170 -114 c 0
 187 -117 211 -101 226 -94 c 1
EndSplineSet
EndChar

StartChar: Ecaron
Encoding: 282 282 272
Width: 582
VWidth: 0
Flags: HMW
LayerCount: 2
Fore
SplineSet
134 0 m 1
 190 157 l 1
 528 157 l 1
 472 0 l 1
 134 0 l 1
320 543 m 1
 374 700 l 1
 713 700 l 1
 658 543 l 1
 320 543 l 1
232 288 m 1
 286 440 l 1
 606 440 l 1
 552 287 l 1
 232 288 l 1
250 700 m 1
 432 700 l 1
 191 0 l 1
 10 0 l 1
 250 700 l 1
546 918 m 1
 655 998 l 1
 751 912 l 1
 516 778 l 1
 358 924 l 1
 494 1000 l 1
 546 918 l 1
EndSplineSet
EndChar

StartChar: ecaron
Encoding: 283 283 273
Width: 556
VWidth: 0
Flags: HMW
LayerCount: 2
Fore
SplineSet
133 194 m 1
 160 282 l 1
 390 284 l 1
 394 318 397 354 354 358 c 0
 292 363 253 297 229 251 c 2
 218 229 l 1
 200 184 194 119 256 112 c 0
 300 108 340 135 372 161 c 1
 520 128 l 1
 448 46 353 -10 241 -10 c 0
 99 -10 11 90 51 230 c 0
 56 247 63 263 70 279 c 0
 126 397 247 470 377 470 c 0
 518 470 590 374 554 238 c 0
 550 224 545 208 541 194 c 1
 133 194 l 1
448 671 m 1
 556 752 l 1
 653 664 l 1
 418 531 l 1
 260 677 l 1
 396 753 l 1
 448 671 l 1
EndSplineSet
EndChar

StartChar: Gcircumflex
Encoding: 284 284 274
Width: 776
VWidth: 0
Flags: HMW
LayerCount: 2
Fore
SplineSet
426 246 m 1
 477 392 l 1
 819 390 l 1
 761 174 585 -25 347 -26 c 0
 134 -26 31 157 92 350 c 0
 158 558 365 720 586 718 c 0
 708 718 794 652 846 544 c 1
 655 462 l 1
 639 514 610 549 551 551 c 0
 434 555 329 453 289 350 c 0
 254 258 271 143 389 141 c 0
 473 139 539 190 593 248 c 1
 426 246 l 1
653 858 m 1
 545 778 l 1
 448 865 l 1
 684 999 l 1
 841 852 l 1
 706 776 l 1
 653 858 l 1
EndSplineSet
EndChar

StartChar: gcircumflex
Encoding: 285 285 275
Width: 585
VWidth: 0
Flags: HMW
LayerCount: 2
Fore
SplineSet
-32 -33 m 1
 124 -35 l 1
 126 -77 132 -104 180 -105 c 0
 248 -107 300 -46 324 11 c 1
 480 460 l 1
 642 460 l 1
 488 9 l 2
 436 -135 322 -240 164 -241 c 0
 29 -242 -44 -167 -32 -33 c 1
54 239 m 0
 90 357 198 470 328 470 c 0
 458 470 484 342 452 238 c 0
 418 124 319 6 191 6 c 0
 61 6 21 131 54 239 c 0
228 236 m 0
 212 192 226 146 278 143 c 0
 332 140 390 192 407 240 c 0
 422 283 410 329 360 333 c 0
 306 337 245 284 228 236 c 0
480 611 m 1
 370 531 l 1
 274 618 l 1
 510 752 l 1
 668 606 l 1
 531 530 l 1
 480 611 l 1
EndSplineSet
EndChar

StartChar: Gbreve
Encoding: 286 286 276
Width: 776
VWidth: 0
Flags: HMW
LayerCount: 2
Fore
SplineSet
426 246 m 1
 477 392 l 1
 819 390 l 1
 761 174 585 -25 347 -26 c 0
 134 -26 31 157 92 350 c 0
 158 558 365 720 586 718 c 0
 708 718 794 652 846 544 c 1
 655 462 l 1
 639 514 610 549 551 551 c 0
 434 555 329 453 289 350 c 0
 254 258 271 143 389 141 c 0
 473 139 539 190 593 248 c 1
 426 246 l 1
507 926 m 1
 608 926 l 1
 609 902 608 876 638 872 c 0
 671 868 698 904 716 926 c 1
 824 924 l 1
 788 842 722 780 628 779 c 0
 534 778 496 840 507 926 c 1
EndSplineSet
EndChar

StartChar: gbreve
Encoding: 287 287 277
Width: 585
VWidth: 0
Flags: HMW
LayerCount: 2
Fore
SplineSet
-32 -33 m 1
 124 -35 l 1
 126 -77 132 -104 180 -105 c 0
 248 -107 300 -46 324 11 c 1
 480 460 l 1
 642 460 l 1
 488 9 l 2
 436 -135 322 -240 164 -241 c 0
 29 -242 -44 -167 -32 -33 c 1
54 239 m 0
 90 357 198 470 328 470 c 0
 458 470 484 342 452 238 c 0
 418 124 319 6 191 6 c 0
 61 6 21 131 54 239 c 0
228 236 m 0
 212 192 226 146 278 143 c 0
 332 140 390 192 407 240 c 0
 422 283 410 329 360 333 c 0
 306 337 245 284 228 236 c 0
334 679 m 1
 434 678 l 1
 435 654 435 629 465 625 c 0
 498 621 523 656 541 678 c 1
 650 676 l 1
 614 594 547 533 453 532 c 0
 359 531 323 593 334 679 c 1
EndSplineSet
EndChar

StartChar: Gdotaccent
Encoding: 288 288 278
Width: 776
VWidth: 0
Flags: HMW
LayerCount: 2
Fore
SplineSet
426 246 m 1
 477 392 l 1
 819 390 l 1
 761 174 585 -25 347 -26 c 0
 134 -26 31 157 92 350 c 0
 158 558 365 720 586 718 c 0
 708 718 794 652 846 544 c 1
 655 462 l 1
 639 514 610 549 551 551 c 0
 434 555 329 453 289 350 c 0
 254 258 271 143 389 141 c 0
 473 139 539 190 593 248 c 1
 426 246 l 1
554 871 m 0
 568 919 623 957 671 957 c 0
 721 957 756 916 742 866 c 0
 728 818 674 779 626 779 c 0
 576 779 540 821 554 871 c 0
EndSplineSet
EndChar

StartChar: gdotaccent
Encoding: 289 289 279
Width: 585
VWidth: 0
Flags: HMW
LayerCount: 2
Fore
SplineSet
-32 -33 m 1
 124 -35 l 1
 126 -77 132 -104 180 -105 c 0
 248 -107 300 -46 324 11 c 1
 480 460 l 1
 642 460 l 1
 488 9 l 2
 436 -135 322 -240 164 -241 c 0
 29 -242 -44 -167 -32 -33 c 1
54 239 m 0
 90 357 198 470 328 470 c 0
 458 470 484 342 452 238 c 0
 418 124 319 6 191 6 c 0
 61 6 21 131 54 239 c 0
228 236 m 0
 212 192 226 146 278 143 c 0
 332 140 390 192 407 240 c 0
 422 283 410 329 360 333 c 0
 306 337 245 284 228 236 c 0
362 631 m 0
 376 679 432 717 480 717 c 0
 530 717 565 676 551 626 c 0
 537 578 482 540 434 540 c 0
 384 540 348 581 362 631 c 0
EndSplineSet
EndChar

StartChar: uni0122
Encoding: 290 290 280
Width: 776
VWidth: 0
Flags: HMW
LayerCount: 2
Fore
SplineSet
426 246 m 1
 477 392 l 1
 819 390 l 1
 761 174 585 -25 347 -26 c 0
 134 -26 31 157 92 350 c 0
 158 558 365 720 586 718 c 0
 708 718 794 652 846 544 c 1
 655 462 l 1
 639 514 610 549 551 551 c 0
 434 555 329 453 289 350 c 0
 254 258 271 143 389 141 c 0
 473 139 539 190 593 248 c 1
 426 246 l 1
230 -88 m 1
 394 -124 l 1
 188 -368 l 1
 60 -342 l 1
 230 -88 l 1
EndSplineSet
EndChar

StartChar: Hcircumflex
Encoding: 292 292 281
Width: 759
VWidth: 0
Flags: HMW
LayerCount: 2
Fore
SplineSet
150 280 m 1
 210 452 l 1
 729 452 l 1
 668 279 l 1
 150 280 l 1
692 700 m 1
 882 700 l 1
 642 0 l 1
 452 0 l 1
 692 700 l 1
250 700 m 1
 440 700 l 1
 198 0 l 1
 10 0 l 1
 250 700 l 1
628 858 m 1
 519 778 l 1
 422 865 l 1
 658 999 l 1
 816 852 l 1
 680 776 l 1
 628 858 l 1
EndSplineSet
EndChar

StartChar: hcircumflex
Encoding: 293 293 282
Width: 546
VWidth: 0
Flags: HMW
LayerCount: 2
Fore
SplineSet
431 780 m 1
 162 0 l 1
 -6 0 l 1
 261 780 l 1
 431 780 l 1
376 280 m 1
 384 307 392 347 354 354 c 0
 312 361 279 310 260 281 c 1
 228 282 l 1
 265 378 332 476 446 478 c 0
 554 480 574 396 548 306 c 0
 444 0 l 1
 276 0 l 1
 376 280 l 1
518 920 m 1
 410 840 l 1
 313 927 l 1
 548 1060 l 1
 706 914 l 1
 570 838 l 1
 518 920 l 1
EndSplineSet
EndChar

StartChar: Itilde
Encoding: 296 296 283
Width: 321
VWidth: 0
Flags: HMW
LayerCount: 2
Fore
SplineSet
250 700 m 1
 443 700 l 1
 202 0 l 1
 10 0 l 1
 250 700 l 1
203 856 m 1
 235 902 282 953 344 950 c 0
 388 948 414 896 458 899 c 0
 492 901 520 931 544 952 c 1
 600 864 l 1
 562 824 502 775 442 780 c 0
 398 784 370 839 326 832 c 0
 297 828 277 804 260 783 c 1
 203 856 l 1
EndSplineSet
EndChar

StartChar: itilde
Encoding: 297 297 284
Width: 264
VWidth: 0
Flags: HMW
LayerCount: 2
Fore
SplineSet
153 460 m 1
 317 460 l 1
 158 0 l 1
 -4 0 l 1
 153 460 l 1
88 609 m 1
 120 655 169 705 231 702 c 0
 275 700 300 649 344 652 c 0
 378 654 406 683 430 704 c 1
 486 617 l 1
 448 577 388 527 328 532 c 0
 284 536 256 592 212 585 c 0
 183 581 164 557 147 536 c 1
 88 609 l 1
EndSplineSet
EndChar

StartChar: Imacron
Encoding: 298 298 285
Width: 321
VWidth: 0
Flags: HMW
LayerCount: 2
Fore
SplineSet
250 700 m 1
 443 700 l 1
 202 0 l 1
 10 0 l 1
 250 700 l 1
191 778 m 1
 242 926 l 1
 605 926 l 1
 553 778 l 1
 191 778 l 1
EndSplineSet
EndChar

StartChar: imacron
Encoding: 299 299 286
Width: 264
VWidth: 0
Flags: HMW
LayerCount: 2
Fore
SplineSet
153 460 m 1
 317 460 l 1
 158 0 l 1
 -4 0 l 1
 153 460 l 1
78 531 m 1
 130 679 l 1
 492 679 l 1
 440 531 l 1
 78 531 l 1
EndSplineSet
EndChar

StartChar: Ibreve
Encoding: 300 300 287
Width: 321
VWidth: 0
Flags: HMW
LayerCount: 2
Fore
SplineSet
250 700 m 1
 443 700 l 1
 202 0 l 1
 10 0 l 1
 250 700 l 1
262 926 m 1
 362 926 l 1
 363 902 364 876 394 872 c 0
 427 868 452 904 470 926 c 1
 579 924 l 1
 543 842 476 780 382 779 c 0
 288 778 251 840 262 926 c 1
EndSplineSet
EndChar

StartChar: ibreve
Encoding: 301 301 288
Width: 264
VWidth: 0
Flags: HMW
LayerCount: 2
Fore
SplineSet
153 460 m 1
 317 460 l 1
 158 0 l 1
 -4 0 l 1
 153 460 l 1
148 679 m 1
 248 678 l 1
 249 654 250 629 280 625 c 0
 313 621 338 656 356 678 c 1
 466 676 l 1
 430 594 362 533 268 532 c 0
 174 531 137 593 148 679 c 1
EndSplineSet
EndChar

StartChar: Iogonek
Encoding: 302 302 289
Width: 321
VWidth: 0
Flags: HMW
LayerCount: 2
Fore
SplineSet
250 700 m 1
 443 700 l 1
 202 0 l 1
 10 0 l 1
 250 700 l 1
134 -102 m 1
 146 -180 l 1
 114 -202 79 -218 40 -218 c 0
 -18 -217 -60 -176 -44 -116 c 0
 -24 -40 66 -3 130 27 c 1
 172 -2 l 1
 135 -22 80 -46 66 -90 c 0
 62 -103 63 -119 79 -122 c 0
 96 -125 119 -109 134 -102 c 1
EndSplineSet
EndChar

StartChar: iogonek
Encoding: 303 303 290
Width: 264
VWidth: 0
Flags: HMW
LayerCount: 2
Fore
SplineSet
198 630 m 0
 212 678 267 716 315 716 c 0
 365 716 401 674 387 624 c 0
 373 576 317 538 269 538 c 0
 219 538 184 580 198 630 c 0
153 460 m 1
 317 460 l 1
 158 0 l 1
 -4 0 l 1
 153 460 l 1
92 -105 m 1
 102 -183 l 1
 70 -205 35 -220 -4 -220 c 0
 -62 -219 -104 -178 -88 -118 c 0
 -68 -42 24 -5 88 25 c 1
 128 0 l 1
 94 -24 36 -48 22 -92 c 0
 18 -105 19 -121 35 -124 c 0
 52 -127 77 -112 92 -105 c 1
EndSplineSet
EndChar

StartChar: Idotaccent
Encoding: 304 304 291
Width: 321
VWidth: 0
Flags: HMW
LayerCount: 2
Fore
SplineSet
250 700 m 1
 443 700 l 1
 202 0 l 1
 10 0 l 1
 250 700 l 1
308 871 m 0
 322 919 378 957 426 957 c 0
 476 957 512 916 498 866 c 0
 484 818 428 779 380 779 c 0
 330 779 294 821 308 871 c 0
EndSplineSet
EndChar

StartChar: uni0136
Encoding: 310 310 292
Width: 695
VWidth: 0
Flags: HMW
LayerCount: 2
Fore
SplineSet
250 700 m 1
 447 700 l 1
 206 0 l 1
 10 0 l 1
 250 700 l 1
648 699 m 1
 880 699 l 1
 495 364 l 1
 642 0 l 1
 428 0 l 1
 277 375 l 1
 648 699 l 1
232 -62 m 1
 396 -97 l 1
 188 -341 l 1
 61 -316 l 1
 232 -62 l 1
EndSplineSet
EndChar

StartChar: uni0137
Encoding: 311 311 293
Width: 581
VWidth: 0
Flags: HMW
LayerCount: 2
Fore
SplineSet
260 780 m 1
 422 780 l 1
 154 0 l 1
 -6 0 l 1
 260 780 l 1
456 459 m 1
 669 459 l 1
 408 263 l 1
 516 0 l 1
 336 0 l 1
 217 279 l 1
 456 459 l 1
161 -62 m 1
 325 -97 l 1
 118 -341 l 1
 -10 -316 l 1
 161 -62 l 1
EndSplineSet
EndChar

StartChar: Lacute
Encoding: 313 313 294
Width: 518
VWidth: 0
Flags: HMW
LayerCount: 2
Fore
SplineSet
250 700 m 1
 440 700 l 1
 256 166 l 1
 523 166 l 1
 465 0 l 1
 10 0 l 1
 250 700 l 1
718 922 m 1
 504 780 l 1
 416 830 l 1
 606 982 l 1
 718 922 l 1
EndSplineSet
EndChar

StartChar: lacute
Encoding: 314 314 295
Width: 265
VWidth: 0
Flags: HMW
LayerCount: 2
Fore
SplineSet
260 780 m 1
 431 780 l 1
 162 0 l 1
 -6 0 l 1
 260 780 l 1
580 984 m 1
 366 841 l 1
 278 892 l 1
 468 1044 l 1
 580 984 l 1
EndSplineSet
EndChar

StartChar: uni013B
Encoding: 315 315 296
Width: 518
VWidth: 0
Flags: HMW
LayerCount: 2
Fore
SplineSet
250 700 m 1
 440 700 l 1
 256 166 l 1
 523 166 l 1
 465 0 l 1
 10 0 l 1
 250 700 l 1
172 -62 m 1
 336 -97 l 1
 128 -341 l 1
 1 -316 l 1
 172 -62 l 1
EndSplineSet
EndChar

StartChar: uni013C
Encoding: 316 316 297
Width: 265
VWidth: 0
Flags: HMW
LayerCount: 2
Fore
SplineSet
260 780 m 1
 431 780 l 1
 162 0 l 1
 -6 0 l 1
 260 780 l 1
12 -62 m 1
 176 -97 l 1
 -31 -341 l 1
 -159 -316 l 1
 12 -62 l 1
EndSplineSet
EndChar

StartChar: Lcaron
Encoding: 317 317 298
Width: 518
VWidth: 0
Flags: HMW
LayerCount: 2
Fore
SplineSet
250 700 m 1
 440 700 l 1
 256 166 l 1
 523 166 l 1
 465 0 l 1
 10 0 l 1
 250 700 l 1
597 716 m 1
 760 681 l 1
 554 437 l 1
 426 462 l 1
 597 716 l 1
EndSplineSet
EndChar

StartChar: lcaron
Encoding: 318 318 299
Width: 265
VWidth: 0
Flags: HMW
LayerCount: 2
Fore
SplineSet
260 780 m 1
 431 780 l 1
 162 0 l 1
 -6 0 l 1
 260 780 l 1
550 778 m 1
 714 743 l 1
 508 499 l 1
 380 524 l 1
 550 778 l 1
EndSplineSet
EndChar

StartChar: Ldot
Encoding: 319 319 300
Width: 518
VWidth: 0
Flags: HMW
LayerCount: 2
Fore
SplineSet
250 700 m 1
 440 700 l 1
 256 166 l 1
 523 166 l 1
 465 0 l 1
 10 0 l 1
 250 700 l 1
416 438 m 0
 431 491 490 538 546 538 c 0
 603 538 635 487 620 434 c 0
 605 381 546 332 490 332 c 0
 433 332 401 385 416 438 c 0
EndSplineSet
EndChar

StartChar: ldot
Encoding: 320 320 301
Width: 478
VWidth: 0
Flags: HMW
LayerCount: 2
Fore
SplineSet
260 780 m 1
 431 780 l 1
 162 0 l 1
 -6 0 l 1
 260 780 l 1
330 409 m 0
 345 462 404 510 460 510 c 0
 517 510 549 458 534 405 c 0
 519 352 462 304 406 304 c 0
 349 304 315 356 330 409 c 0
EndSplineSet
EndChar

StartChar: eth
Encoding: 240 240 302
Width: 641
VWidth: 0
Flags: HMW
LayerCount: 2
Fore
SplineSet
292 -18 m 0
 164 -18 58 55 58 184 c 0
 58 342 190 478 342 478 c 0
 426 478 483 429 542 331 c 1
 502 332 l 1
 468 509 399 592 257 690 c 1
 388 772 l 1
 598 593 650 491 650 308 c 0
 650 136 500 -18 292 -18 c 0
319 138 m 0
 395 138 452 206 452 264 c 0
 452 304 426 339 378 339 c 0
 308 339 244 274 244 212 c 0
 244 174 270 138 319 138 c 0
277 508 m 1
 260 566 l 1
 630 679 l 1
 646 622 l 1
 277 508 l 1
EndSplineSet
EndChar

StartChar: racute
Encoding: 341 341 303
Width: 406
VWidth: 0
Flags: HMW
LayerCount: 2
Fore
SplineSet
318 460 m 1
 158 0 l 1
 -6 0 l 1
 152 460 l 1
 318 460 l 1
385 284 m 1
 373 296 360 309 340 310 c 0
 286 312 254 252 232 212 c 1
 217 282 l 1
 251 364 322 476 424 472 c 0
 458 470 477 452 497 428 c 1
 385 284 l 1
568 675 m 1
 354 532 l 1
 266 584 l 1
 456 736 l 1
 568 675 l 1
EndSplineSet
EndChar

StartChar: rcaron
Encoding: 345 345 304
Width: 406
VWidth: 0
Flags: HMW
LayerCount: 2
Fore
SplineSet
318 460 m 1
 158 0 l 1
 -6 0 l 1
 152 460 l 1
 318 460 l 1
385 284 m 1
 373 296 360 309 340 310 c 0
 286 312 254 252 232 212 c 1
 216 282 l 1
 250 364 322 476 424 472 c 0
 458 470 477 452 497 428 c 1
 385 284 l 1
394 672 m 1
 502 752 l 1
 598 666 l 1
 363 532 l 1
 206 678 l 1
 342 754 l 1
 394 672 l 1
EndSplineSet
EndChar

StartChar: Rcaron
Encoding: 344 344 305
Width: 633
VWidth: 0
Flags: HMW
LayerCount: 2
Fore
SplineSet
300 308 m 1
 483 308 l 1
 574 0 l 1
 367 0 l 1
 300 308 l 1
250 700 m 1
 440 700 l 1
 198 0 l 1
 10 0 l 1
 250 700 l 1
312 536 m 1
 367 700 l 1
 500 700 l 0
 638 696 744 614 700 466 c 0
 656 316 511 235 362 231 c 0
 205 231 l 1
 258 380 l 1
 376 380 l 1
 426 384 484 407 502 458 c 0
 518 504 492 530 448 534 c 1
 312 536 l 1
562 918 m 1
 670 998 l 1
 766 912 l 1
 531 778 l 1
 373 924 l 1
 510 1000 l 1
 562 918 l 1
EndSplineSet
EndChar

StartChar: uni0213
Encoding: 531 531 306
Width: 406
VWidth: 0
Flags: HMW
LayerCount: 2
Fore
SplineSet
318 460 m 1
 158 0 l 1
 -6 0 l 1
 152 460 l 1
 318 460 l 1
385 284 m 1
 373 296 360 309 340 310 c 0
 286 312 254 252 232 212 c 1
 216 282 l 1
 250 364 322 476 424 472 c 0
 458 470 477 452 497 428 c 1
 385 284 l 1
196 530 m 1
 292 532 l 1
 309 554 332 588 365 586 c 0
 399 584 403 558 406 530 c 1
 505 532 l 1
 526 611 509 676 415 678 c 0
 315 680 243 610 196 530 c 1
EndSplineSet
EndChar

StartChar: uni0212
Encoding: 530 530 307
Width: 633
VWidth: 0
Flags: HMW
LayerCount: 2
Fore
SplineSet
300 308 m 1
 483 308 l 1
 574 0 l 1
 367 0 l 1
 300 308 l 1
250 700 m 1
 440 700 l 1
 198 0 l 1
 10 0 l 1
 250 700 l 1
312 536 m 1
 367 700 l 1
 500 700 l 0
 638 696 744 614 700 466 c 0
 656 316 511 235 362 231 c 0
 205 231 l 1
 258 380 l 1
 376 380 l 1
 426 384 484 407 502 458 c 0
 518 504 492 530 448 534 c 1
 312 536 l 1
374 776 m 1
 470 778 l 1
 487 800 511 834 544 832 c 0
 578 830 582 805 585 777 c 1
 684 778 l 1
 705 857 688 924 594 926 c 0
 494 928 421 856 374 776 c 1
EndSplineSet
EndChar

StartChar: OE
Encoding: 338 338 308
Width: 926
VWidth: 0
Flags: HMW
LayerCount: 2
Fore
SplineSet
569 288 m 1
 623 440 l 1
 984 440 l 1
 930 287 l 1
 569 288 l 1
618 670 m 1
 800 670 l 1
 580 30 l 1
 398 30 l 1
 618 670 l 1
902 156 m 1
 852 0 l 1
 324 0 l 0
 130 7 36 171 92 350 c 0
 152 544 336 694 540 700 c 0
 1092 700 l 1
 1036 543 l 1
 677 543 l 1
 656 530 l 1
 543 530 l 0
 427 526 330 460 288 350 c 0
 249 248 288 176 398 170 c 0
 509 170 l 1
 528 157 l 1
 902 156 l 1
EndSplineSet
EndChar

StartChar: oe
Encoding: 339 339 309
Width: 846
VWidth: 0
Flags: HMW
LayerCount: 2
Fore
SplineSet
676 250 m 2
 688 286 703 352 649 358 c 0
 592 365 548 303 526 259 c 2
 512 230 l 1
 495 187 482 112 547 108 c 0
 591 104 632 136 664 162 c 1
 810 128 l 1
 748 55 656 -11 556 -10 c 0
 423 -9 394 124 426 230 c 0
 431 247 437 263 444 279 c 0
 492 380 597 471 714 470 c 0
 843 469 873 338 844 234 c 0
 840 221 834 207 830 194 c 1
 670 232 l 1
 676 250 l 2
466 194 m 1
 494 282 l 1
 839 282 l 1
 829 194 l 1
 466 194 l 1
54 231 m 0
 92 354 208 471 343 470 c 0
 478 469 498 336 466 230 c 0
 430 113 334 -8 201 -9 c 0
 67 -10 20 117 54 231 c 0
218 229 m 0
 202 187 208 133 262 131 c 0
 318 129 368 183 386 231 c 0
 402 271 400 327 346 329 c 0
 290 331 236 277 218 229 c 0
EndSplineSet
EndChar

StartChar: a.alt
Encoding: 65536 -1 310
Width: 592
VWidth: 0
Flags: HMW
LayerCount: 2
Fore
SplineSet
480 460 m 1
 650 460 l 1
 491 0 l 1
 323 0 l 1
 480 460 l 1
50 231 m 0
 86 349 196 470 328 470 c 0
 460 470 477 331 446 229 c 0
 411 115 316 -9 186 -9 c 0
 54 -9 17 123 50 231 c 0
226 229 m 0
 210 187 218 129 272 127 c 0
 328 125 383 183 401 231 c 0
 416 271 413 330 360 333 c 0
 304 336 244 277 226 229 c 0
EndSplineSet
EndChar

StartChar: Jcircumflex
Encoding: 308 308 312
Width: 336
VWidth: 0
Flags: HMW
LayerCount: 2
Fore
SplineSet
-150 -52 m 1
 -132 -68 -112 -85 -86 -84 c 0
 -43 -82 -9 -40 7 -4 c 1
 250 700 l 1
 458 700 l 1
 202 -53 l 2
 156 -179 33 -244 -98 -244 c 0
 -168 -244 -229 -218 -288 -182 c 1
 -150 -52 l 1
415 858 m 1
 308 778 l 1
 210 865 l 1
 446 999 l 1
 603 852 l 1
 468 776 l 1
 415 858 l 1
EndSplineSet
EndChar

StartChar: jcircumflex
Encoding: 309 309 313
Width: 261
VWidth: 0
Flags: HMW
LayerCount: 2
Fore
SplineSet
-121 -67 m 1
 -113 -78 -104 -91 -88 -92 c 0
 -56 -92 -28 -55 -16 -29 c 1
 152 460 l 1
 314 460 l 1
 132 -78 l 2
 96 -174 12 -246 -94 -244 c 0
 -145 -244 -182 -222 -218 -188 c 1
 -121 -67 l 1
292 611 m 1
 184 531 l 1
 88 618 l 1
 323 752 l 1
 480 606 l 1
 345 530 l 1
 292 611 l 1
EndSplineSet
EndChar

StartChar: Nacute
Encoding: 323 323 314
Width: 751
VWidth: 0
Flags: HMW
LayerCount: 2
Fore
SplineSet
692 700 m 1
 872 700 l 1
 622 -32 l 1
 314 358 l 1
 192 0 l 1
 10 0 l 1
 260 732 l 1
 568 342 l 1
 692 700 l 1
772 906 m 1
 558 764 l 1
 470 816 l 1
 660 968 l 1
 772 906 l 1
EndSplineSet
EndChar

StartChar: nacute
Encoding: 324 324 315
Width: 554
VWidth: 0
Flags: HMW
LayerCount: 2
Fore
SplineSet
321 460 m 1
 162 0 l 1
 -6 0 l 1
 152 460 l 1
 321 460 l 1
376 280 m 1
 384 307 392 347 354 354 c 0
 312 361 277 310 258 281 c 1
 228 274 l 1
 264 370 330 468 444 470 c 0
 552 472 578 390 552 298 c 1
 452 0 l 1
 276 0 l 1
 376 280 l 1
620 674 m 1
 406 532 l 1
 318 584 l 1
 508 736 l 1
 620 674 l 1
EndSplineSet
EndChar

StartChar: uni0145
Encoding: 325 325 316
Width: 751
VWidth: 0
Flags: HMW
LayerCount: 2
Fore
SplineSet
252 -62 m 1
 414 -96 l 1
 208 -340 l 1
 81 -315 l 1
 252 -62 l 1
692 700 m 1
 872 700 l 1
 622 -32 l 1
 314 358 l 1
 192 0 l 1
 10 0 l 1
 260 732 l 1
 568 342 l 1
 692 700 l 1
EndSplineSet
EndChar

StartChar: uni0146
Encoding: 326 326 317
Width: 554
VWidth: 0
Flags: HMW
LayerCount: 2
Fore
SplineSet
321 460 m 1
 162 0 l 1
 -6 0 l 1
 152 460 l 1
 321 460 l 1
376 280 m 1
 384 307 392 347 354 354 c 0
 312 361 277 310 258 281 c 1
 227 274 l 1
 263 370 330 468 444 470 c 0
 552 472 578 390 552 298 c 1
 452 0 l 1
 276 0 l 1
 376 280 l 1
156 -62 m 1
 320 -97 l 1
 114 -341 l 1
 -14 -316 l 1
 156 -62 l 1
EndSplineSet
EndChar

StartChar: Ncaron
Encoding: 327 327 318
Width: 751
VWidth: 0
Flags: HMW
LayerCount: 2
Fore
SplineSet
594 911 m 1
 702 991 l 1
 798 904 l 1
 564 770 l 1
 406 916 l 1
 542 992 l 1
 594 911 l 1
692 700 m 1
 872 700 l 1
 622 -32 l 1
 314 358 l 1
 192 0 l 1
 10 0 l 1
 260 732 l 1
 568 342 l 1
 692 700 l 1
EndSplineSet
EndChar

StartChar: ncaron
Encoding: 328 328 319
Width: 554
VWidth: 0
Flags: HMW
LayerCount: 2
Fore
SplineSet
321 460 m 1
 162 0 l 1
 -6 0 l 1
 152 460 l 1
 321 460 l 1
376 280 m 1
 384 307 392 347 354 354 c 0
 312 361 277 310 258 281 c 1
 227 274 l 1
 263 370 330 468 444 470 c 0
 552 472 578 390 552 298 c 1
 452 0 l 1
 276 0 l 1
 376 280 l 1
444 671 m 1
 552 752 l 1
 648 664 l 1
 412 531 l 1
 255 677 l 1
 391 753 l 1
 444 671 l 1
EndSplineSet
EndChar

StartChar: Omacron
Encoding: 332 332 320
Width: 781
VWidth: 0
Flags: HMW
LayerCount: 2
Fore
SplineSet
292 350 m 0
 261 268 272 163 380 160 c 0
 490 157 584 254 621 350 c 0
 653 434 640 538 532 540 c 0
 422 542 328 446 292 350 c 0
92 350 m 0
 156 552 354 718 570 718 c 0
 778 718 879 539 820 350 c 0
 756 146 557 -27 338 -26 c 0
 127 -25 33 161 92 350 c 0
421 778 m 1
 472 926 l 1
 834 926 l 1
 782 778 l 1
 421 778 l 1
EndSplineSet
EndChar

StartChar: omacron
Encoding: 333 333 321
Width: 566
VWidth: 0
Flags: HMW
LayerCount: 2
Fore
SplineSet
50 231 m 0
 92 371 234 470 379 470 c 0
 516 470 606 363 566 229 c 0
 524 89 380 -10 236 -10 c 0
 99 -10 10 97 50 231 c 0
222 229 m 0
 206 189 213 133 266 131 c 0
 322 129 376 183 394 231 c 0
 410 271 403 328 350 330 c 0
 294 332 240 277 222 229 c 0
230 531 m 1
 282 679 l 1
 643 679 l 1
 591 531 l 1
 230 531 l 1
EndSplineSet
EndChar

StartChar: Obreve
Encoding: 334 334 322
Width: 781
VWidth: 0
Flags: HMW
LayerCount: 2
Fore
SplineSet
292 350 m 0
 261 268 272 163 380 160 c 0
 490 157 584 254 621 350 c 0
 653 434 640 538 532 540 c 0
 422 542 328 446 292 350 c 0
92 350 m 0
 156 552 354 718 570 718 c 0
 778 718 879 539 820 350 c 0
 756 146 557 -27 338 -26 c 0
 127 -25 33 161 92 350 c 0
492 926 m 1
 592 926 l 1
 593 902 594 876 624 872 c 0
 657 868 682 904 700 926 c 1
 809 924 l 1
 773 842 706 780 612 779 c 0
 518 778 481 840 492 926 c 1
EndSplineSet
EndChar

StartChar: obreve
Encoding: 335 335 323
Width: 566
VWidth: 0
Flags: HMW
LayerCount: 2
Fore
SplineSet
50 231 m 0
 92 371 234 470 379 470 c 0
 516 470 606 363 566 229 c 0
 524 89 380 -10 236 -10 c 0
 99 -10 10 97 50 231 c 0
222 229 m 0
 206 189 213 133 266 131 c 0
 322 129 376 183 394 231 c 0
 410 271 403 328 350 330 c 0
 294 332 240 277 222 229 c 0
300 679 m 1
 401 678 l 1
 402 654 402 629 432 625 c 0
 465 621 490 656 508 678 c 1
 618 676 l 1
 582 594 514 533 420 532 c 0
 326 531 289 593 300 679 c 1
EndSplineSet
EndChar

StartChar: Racute
Encoding: 340 340 324
Width: 633
VWidth: 0
Flags: HMW
LayerCount: 2
Fore
SplineSet
300 308 m 1
 483 308 l 1
 574 0 l 1
 367 0 l 1
 300 308 l 1
250 700 m 1
 440 700 l 1
 198 0 l 1
 10 0 l 1
 250 700 l 1
312 536 m 1
 367 700 l 1
 500 700 l 0
 638 696 744 614 700 466 c 0
 656 316 511 235 362 231 c 0
 205 231 l 1
 258 380 l 1
 376 380 l 1
 426 384 484 407 502 458 c 0
 518 504 492 530 448 534 c 1
 312 536 l 1
725 922 m 1
 511 780 l 1
 422 830 l 1
 612 982 l 1
 725 922 l 1
EndSplineSet
EndChar

StartChar: uni0156
Encoding: 342 342 325
Width: 633
VWidth: 0
Flags: HMW
LayerCount: 2
Fore
SplineSet
300 308 m 1
 483 308 l 1
 574 0 l 1
 367 0 l 1
 300 308 l 1
250 700 m 1
 440 700 l 1
 198 0 l 1
 10 0 l 1
 250 700 l 1
312 536 m 1
 367 700 l 1
 500 700 l 0
 638 696 744 614 700 466 c 0
 656 316 511 235 362 231 c 0
 205 231 l 1
 258 380 l 1
 376 380 l 1
 426 384 484 407 502 458 c 0
 518 504 492 530 448 534 c 1
 312 536 l 1
229 -62 m 1
 392 -97 l 1
 186 -341 l 1
 58 -316 l 1
 229 -62 l 1
EndSplineSet
EndChar

StartChar: uni0157
Encoding: 343 343 326
Width: 406
VWidth: 0
Flags: HMW
LayerCount: 2
Fore
SplineSet
318 460 m 1
 158 0 l 1
 -6 0 l 1
 152 460 l 1
 318 460 l 1
385 284 m 1
 373 296 360 309 340 310 c 0
 286 312 254 252 232 212 c 1
 216 282 l 1
 250 364 322 476 424 472 c 0
 458 470 477 452 497 428 c 1
 385 284 l 1
10 -62 m 1
 174 -97 l 1
 -33 -341 l 1
 -160 -316 l 1
 10 -62 l 1
EndSplineSet
EndChar

StartChar: Scedilla
Encoding: 350 350 327
Width: 610
VWidth: 0
Flags: HMW
LayerCount: 2
Fore
SplineSet
182 258 m 1
 200 201 227 142 297 142 c 0
 333 142 379 162 394 198 c 0
 416 252 341 274 305 291 c 0
 215 334 158 412 188 514 c 0
 226 643 364 718 494 718 c 0
 601 718 681 666 707 560 c 1
 548 482 l 1
 532 521 514 555 466 555 c 0
 436 555 391 537 377 507 c 0
 355 456 457 432 488 418 c 0
 579 378 621 293 592 197 c 0
 549 53 401 -27 256 -26 c 0
 136 -25 50 50 28 166 c 1
 182 258 l 1
230 60 m 1
 363 56 l 1
 222 -70 l 1
 234 -68 247 -63 259 -64 c 0
 314 -68 341 -119 326 -170 c 0
 306 -238 230 -278 164 -281 c 0
 110 -283 62 -264 16 -238 c 1
 82 -167 l 1
 104 -179 127 -193 154 -192 c 0
 172 -191 220 -177 224 -154 c 0
 228 -133 195 -127 182 -126 c 0
 150 -124 117 -132 86 -138 c 1
 230 60 l 1
EndSplineSet
EndChar

StartChar: scedilla
Encoding: 351 351 328
Width: 444
VWidth: 0
Flags: HMW
LayerCount: 2
Fore
SplineSet
74 178 m 1
 106 144 148 96 202 102 c 0
 218 103 246 116 252 134 c 0
 262 170 212 180 189 190 c 0
 127 217 87 268 108 338 c 0
 134 426 228 468 314 469 c 0
 384 470 444 442 499 406 c 1
 417 294 l 1
 389 324 357 358 313 356 c 0
 297 356 265 348 258 330 c 0
 244 294 314 281 335 271 c 0
 395 245 434 197 416 129 c 0
 390 32 300 -19 204 -21 c 0
 117 -23 45 14 -19 64 c 1
 74 178 l 1
172 64 m 1
 304 60 l 1
 164 -65 l 1
 176 -63 188 -60 200 -61 c 0
 256 -65 282 -115 268 -166 c 0
 248 -234 172 -273 106 -276 c 0
 52 -278 3 -260 -43 -234 c 1
 22 -162 l 1
 44 -174 68 -188 95 -187 c 0
 113 -186 162 -173 166 -150 c 0
 170 -129 136 -123 123 -122 c 0
 91 -120 59 -128 28 -134 c 1
 172 64 l 1
EndSplineSet
EndChar

StartChar: Zcaron
Encoding: 381 381 329
Width: 603
VWidth: 0
Flags: HMW
LayerCount: 2
Fore
SplineSet
182 526 m 1
 242 700 l 1
 786 699 l 1
 303 166 l 1
 562 166 l 1
 503 0 l 1
 -56 0 l 1
 420 526 l 1
 182 526 l 1
577 918 m 1
 685 998 l 1
 782 912 l 1
 546 778 l 1
 389 924 l 1
 525 1000 l 1
 577 918 l 1
EndSplineSet
EndChar

StartChar: zcaron
Encoding: 382 382 330
Width: 501
VWidth: 0
Flags: HMW
LayerCount: 2
Fore
SplineSet
442 671 m 1
 550 750 l 1
 647 664 l 1
 412 530 l 1
 254 676 l 1
 390 752 l 1
 442 671 l 1
272 303 m 1
 103 304 l 1
 158 460 l 1
 606 459 l 1
 300 157 l 1
 464 156 l 1
 410 0 l 1
 -49 0 l 1
 272 303 l 1
EndSplineSet
EndChar

StartChar: Ydieresis
Encoding: 376 376 331
Width: 648
VWidth: 0
Flags: HMW
LayerCount: 2
Fore
SplineSet
334 884 m 0
 348 932 403 971 451 971 c 0
 501 971 536 929 522 879 c 0
 508 831 452 793 404 793 c 0
 354 793 320 834 334 884 c 0
620 884 m 0
 634 932 690 971 738 971 c 0
 788 971 824 929 810 879 c 0
 796 831 740 793 692 793 c 0
 642 793 606 834 620 884 c 0
619 699 m 1
 846 699 l 1
 460 271 l 1
 367 0 l 1
 174 0 l 1
 274 289 l 1
 184 700 l 1
 392 700 l 1
 422 462 l 1
 619 699 l 1
EndSplineSet
EndChar

StartChar: Scaron
Encoding: 352 352 332
Width: 610
VWidth: 0
Flags: HMW
LayerCount: 2
Fore
SplineSet
182 258 m 1
 200 201 227 142 297 142 c 0
 333 142 379 162 394 198 c 0
 416 252 341 273 305 291 c 0
 215 334 159 415 189 516 c 0
 227 645 366 718 494 718 c 0
 601 718 683 666 707 560 c 1
 548 482 l 1
 532 520 515 555 467 555 c 0
 436 555 391 537 377 507 c 0
 354 456 457 432 488 418 c 0
 579 378 621 293 592 197 c 0
 549 52 401 -27 256 -26 c 0
 136 -25 50 50 28 166 c 1
 182 258 l 1
566 918 m 1
 674 998 l 1
 770 912 l 1
 534 778 l 1
 378 924 l 1
 513 1000 l 1
 566 918 l 1
EndSplineSet
EndChar

StartChar: scaron
Encoding: 353 353 333
Width: 444
VWidth: 0
Flags: HMW
LayerCount: 2
Fore
SplineSet
74 177 m 1
 108 143 148 106 202 108 c 0
 217 108 246 115 251 132 c 0
 260 162 178 180 158 190 c 0
 104 218 74 274 92 334 c 0
 120 427 225 468 314 469 c 0
 384 469 445 442 499 406 c 1
 418 294 l 1
 386 324 349 349 303 349 c 0
 287 349 253 343 248 325 c 0
 239 294 317 278 335 270 c 0
 395 244 434 196 416 129 c 0
 390 33 298 -20 202 -21 c 0
 115 -23 43 13 -19 63 c 1
 74 177 l 1
378 655 m 1
 487 735 l 1
 584 648 l 1
 348 514 l 1
 190 660 l 1
 326 736 l 1
 378 655 l 1
EndSplineSet
EndChar

StartChar: Lslash
Encoding: 321 321 334
Width: 526
VWidth: 0
Flags: HMW
LayerCount: 2
Fore
SplineSet
59 300 m 1
 40 386 l 1
 496 648 l 1
 516 564 l 1
 59 300 l 1
250 700 m 1
 440 700 l 1
 256 166 l 1
 523 166 l 1
 465 0 l 1
 10 0 l 1
 250 700 l 1
EndSplineSet
EndChar

StartChar: lslash
Encoding: 322 322 335
Width: 265
VWidth: 0
Flags: HMW
LayerCount: 2
Fore
SplineSet
44 300 m 1
 24 386 l 1
 438 620 l 1
 456 536 l 1
 44 300 l 1
260 780 m 1
 431 780 l 1
 162 0 l 1
 -6 0 l 1
 260 780 l 1
EndSplineSet
EndChar

StartChar: uni0218
Encoding: 536 536 336
Width: 610
VWidth: 0
Flags: HMW
LayerCount: 2
Fore
SplineSet
182 258 m 1
 200 201 227 142 297 142 c 0
 333 142 379 162 394 198 c 0
 416 252 341 273 305 291 c 0
 215 334 159 415 189 516 c 0
 227 645 366 718 494 718 c 0
 601 718 683 666 707 560 c 1
 548 482 l 1
 532 520 515 555 467 555 c 0
 436 555 391 537 377 507 c 0
 354 456 457 432 488 418 c 0
 579 378 621 293 592 197 c 0
 549 52 401 -27 256 -26 c 0
 136 -25 50 50 28 166 c 1
 182 258 l 1
152 -72 m 1
 318 -107 l 1
 110 -351 l 1
 -18 -326 l 1
 152 -72 l 1
EndSplineSet
EndChar

StartChar: uni0219
Encoding: 537 537 337
Width: 444
VWidth: 0
Flags: HMW
LayerCount: 2
Fore
SplineSet
74 177 m 1
 108 143 148 106 202 108 c 0
 217 108 246 115 251 132 c 0
 260 162 178 180 158 190 c 0
 104 218 74 274 92 334 c 0
 120 427 225 468 314 469 c 0
 384 469 445 442 499 406 c 1
 418 294 l 1
 386 324 349 349 303 349 c 0
 287 349 253 343 248 325 c 0
 239 294 317 278 335 270 c 0
 395 244 434 196 416 129 c 0
 390 33 298 -20 202 -21 c 0
 115 -23 43 13 -19 63 c 1
 74 177 l 1
101 -68 m 1
 264 -103 l 1
 58 -347 l 1
 -70 -322 l 1
 101 -68 l 1
EndSplineSet
EndChar

StartChar: pi
Encoding: 960 960 338
Width: 584
VWidth: 0
Flags: HMW
LayerCount: 2
Fore
SplineSet
175 430 m 1
 333 430 l 1
 184 0 l 1
 27 0 l 1
 175 430 l 1
128 460 m 1
 654 460 l 1
 604 320 l 1
 80 320 l 1
 128 460 l 1
410 430 m 1
 568 430 l 1
 482 189 l 1
 470 149 472 135 510 120 c 1
 470 -8 l 1
 378 -7 275 1 306 121 c 1
 410 430 l 1
EndSplineSet
EndChar

StartChar: trademark
Encoding: 8482 8482 339
Width: 724
VWidth: 0
Flags: HMW
LayerCount: 2
Fore
SplineSet
179 613 m 1
 209 700 l 1
 492 700 l 1
 461 613 l 1
 370 613 l 1
 278 350 l 1
 180 350 l 1
 272 613 l 1
 179 613 l 1
725 599 m 1
 842 730 l 1
 768 350 l 1
 668 350 l 1
 725 599 l 1
547 719 m 1
 574 580 l 1
 467 351 l 1
 362 351 l 1
 547 719 l 1
848 732 m 1
 794 586 l 1
 583 379 l 1
 506 604 l 1
 547 716 l 1
 618 520 l 1
 848 732 l 1
EndSplineSet
EndChar

StartChar: uni2219
Encoding: 8729 8729 340
Width: 309
VWidth: 0
Flags: HMW
LayerCount: 2
Fore
SplineSet
152 454 m 0
 167 507 226 554 282 554 c 0
 339 554 373 503 358 450 c 0
 343 397 284 349 228 349 c 0
 171 349 137 401 152 454 c 0
EndSplineSet
EndChar

StartChar: agrave.alt
Encoding: 65537 -1 341
Width: 592
VWidth: 0
Flags: HMW
LayerCount: 2
Fore
SplineSet
480 460 m 1
 650 460 l 1
 491 0 l 1
 323 0 l 1
 480 460 l 1
50 231 m 0
 86 349 196 470 328 470 c 0
 460 470 477 331 446 229 c 0
 411 115 316 -9 186 -9 c 0
 54 -9 17 123 50 231 c 0
226 229 m 0
 210 187 218 129 272 127 c 0
 328 125 383 183 401 231 c 0
 416 271 413 330 360 333 c 0
 304 336 244 277 226 229 c 0
309 686 m 1
 440 738 l 1
 532 571 l 1
 434 531 l 1
 309 686 l 1
EndSplineSet
EndChar

StartChar: aacute.alt
Encoding: 65538 -1 342
Width: 592
VWidth: 0
Flags: HMW
LayerCount: 2
Fore
SplineSet
480 460 m 1
 650 460 l 1
 491 0 l 1
 323 0 l 1
 480 460 l 1
50 231 m 0
 86 349 196 470 328 470 c 0
 460 470 477 331 446 229 c 0
 411 115 316 -9 186 -9 c 0
 54 -9 17 123 50 231 c 0
226 229 m 0
 210 187 218 129 272 127 c 0
 328 125 383 183 401 231 c 0
 416 271 413 330 360 333 c 0
 304 336 244 277 226 229 c 0
619 674 m 1
 405 532 l 1
 318 584 l 1
 508 736 l 1
 619 674 l 1
EndSplineSet
EndChar

StartChar: acircumflex.alt
Encoding: 65539 -1 343
Width: 592
VWidth: 0
Flags: HMW
LayerCount: 2
Fore
SplineSet
480 460 m 1
 650 460 l 1
 491 0 l 1
 323 0 l 1
 480 460 l 1
50 231 m 0
 86 349 196 470 328 470 c 0
 460 470 477 331 446 229 c 0
 411 115 316 -9 186 -9 c 0
 54 -9 17 123 50 231 c 0
226 229 m 0
 210 187 218 129 272 127 c 0
 328 125 383 183 401 231 c 0
 416 271 413 330 360 333 c 0
 304 336 244 277 226 229 c 0
468 611 m 1
 359 531 l 1
 262 618 l 1
 498 752 l 1
 656 606 l 1
 520 530 l 1
 468 611 l 1
EndSplineSet
EndChar

StartChar: atilde.alt
Encoding: 65540 -1 344
Width: 592
VWidth: 0
Flags: HMW
LayerCount: 2
Fore
SplineSet
480 460 m 1
 650 460 l 1
 491 0 l 1
 323 0 l 1
 480 460 l 1
50 231 m 0
 86 349 196 470 328 470 c 0
 460 470 477 331 446 229 c 0
 411 115 316 -9 186 -9 c 0
 54 -9 17 123 50 231 c 0
226 229 m 0
 210 187 218 129 272 127 c 0
 328 125 383 183 401 231 c 0
 416 271 413 330 360 333 c 0
 304 336 244 277 226 229 c 0
270 608 m 1
 300 658 347 703 412 702 c 0
 456 701 480 649 525 652 c 0
 559 654 586 683 610 704 c 1
 666 617 l 1
 628 577 570 527 510 532 c 0
 466 536 436 592 392 585 c 0
 363 581 345 557 328 536 c 1
 270 608 l 1
EndSplineSet
EndChar

StartChar: adieresis.alt
Encoding: 65541 -1 345
Width: 592
VWidth: 0
Flags: HMW
LayerCount: 2
Fore
SplineSet
480 460 m 1
 650 460 l 1
 491 0 l 1
 323 0 l 1
 480 460 l 1
50 231 m 0
 86 349 196 470 328 470 c 0
 460 470 477 331 446 229 c 0
 411 115 316 -9 186 -9 c 0
 54 -9 17 123 50 231 c 0
226 229 m 0
 210 187 218 129 272 127 c 0
 328 125 383 183 401 231 c 0
 416 271 413 330 360 333 c 0
 304 336 244 277 226 229 c 0
480 624 m 0
 494 672 550 710 598 710 c 0
 648 710 684 668 670 618 c 0
 656 570 600 532 552 532 c 0
 502 532 466 574 480 624 c 0
239 624 m 0
 253 672 309 710 357 710 c 0
 407 710 442 668 428 618 c 0
 414 570 358 532 310 532 c 0
 260 532 225 574 239 624 c 0
EndSplineSet
EndChar

StartChar: aring.alt
Encoding: 65542 -1 346
Width: 592
VWidth: 0
Flags: HMW
LayerCount: 2
Fore
SplineSet
480 460 m 1
 650 460 l 1
 491 0 l 1
 323 0 l 1
 480 460 l 1
50 231 m 0
 86 349 196 470 328 470 c 0
 460 470 477 331 446 229 c 0
 411 115 316 -9 186 -9 c 0
 54 -9 17 123 50 231 c 0
226 229 m 0
 210 187 218 129 272 127 c 0
 328 125 383 183 401 231 c 0
 416 271 413 330 360 333 c 0
 304 336 244 277 226 229 c 0
328 653 m 0
 346 719 418 770 486 770 c 0
 554 770 601 716 582 649 c 0
 564 583 490 532 422 532 c 0
 354 532 309 587 328 653 c 0
412 649 m 0
 407 633 412 608 432 606 c 0
 454 604 490 633 497 653 c 0
 502 669 496 694 476 696 c 0
 454 698 419 669 412 649 c 0
EndSplineSet
EndChar

StartChar: amacron.alt
Encoding: 65543 -1 347
Width: 592
VWidth: 0
Flags: HMW
LayerCount: 2
Fore
SplineSet
480 460 m 1
 650 460 l 1
 491 0 l 1
 323 0 l 1
 480 460 l 1
50 231 m 0
 86 349 196 470 328 470 c 0
 460 470 477 331 446 229 c 0
 411 115 316 -9 186 -9 c 0
 54 -9 17 123 50 231 c 0
226 229 m 0
 210 187 218 129 272 127 c 0
 328 125 383 183 401 231 c 0
 416 271 413 330 360 333 c 0
 304 336 244 277 226 229 c 0
248 534 m 1
 300 682 l 1
 662 682 l 1
 610 534 l 1
 248 534 l 1
EndSplineSet
EndChar

StartChar: abreve.alt
Encoding: 65544 -1 348
Width: 592
VWidth: 0
Flags: HMW
LayerCount: 2
Fore
SplineSet
480 460 m 1
 650 460 l 1
 491 0 l 1
 323 0 l 1
 480 460 l 1
50 231 m 0
 86 349 196 470 328 470 c 0
 460 470 477 331 446 229 c 0
 411 115 316 -9 186 -9 c 0
 54 -9 17 123 50 231 c 0
226 229 m 0
 210 187 218 129 272 127 c 0
 328 125 383 183 401 231 c 0
 416 271 413 330 360 333 c 0
 304 336 244 277 226 229 c 0
302 678 m 1
 403 678 l 1
 404 654 404 629 434 625 c 0
 467 621 492 656 510 678 c 1
 620 676 l 1
 585 594 518 533 424 532 c 0
 330 531 292 592 302 678 c 1
EndSplineSet
EndChar

StartChar: aogonek.alt
Encoding: 65545 -1 349
Width: 592
VWidth: 0
Flags: HMW
LayerCount: 2
Fore
SplineSet
480 460 m 1
 650 460 l 1
 491 0 l 1
 323 0 l 1
 480 460 l 1
50 231 m 0
 86 349 196 470 328 470 c 0
 460 470 477 331 446 229 c 0
 411 115 316 -9 186 -9 c 0
 54 -9 17 123 50 231 c 0
226 229 m 0
 210 187 218 129 272 127 c 0
 328 125 383 183 401 231 c 0
 416 271 413 330 360 333 c 0
 304 336 244 277 226 229 c 0
416 -105 m 1
 426 -183 l 1
 394 -205 360 -220 321 -220 c 0
 263 -219 221 -178 237 -118 c 0
 257 -42 349 -5 413 25 c 1
 452 0 l 1
 418 -24 362 -48 348 -92 c 0
 344 -105 344 -121 360 -124 c 0
 377 -127 401 -112 416 -105 c 1
EndSplineSet
EndChar

StartChar: dagger
Encoding: 8224 8224 350
Width: 612
VWidth: 0
Flags: HMW
LayerCount: 2
Fore
SplineSet
214 540 m 1
 664 540 l 1
 618 400 l 1
 170 400 l 1
 214 540 l 1
409 700 m 1
 567 700 l 1
 304 -150 l 1
 147 -150 l 1
 409 700 l 1
EndSplineSet
EndChar

StartChar: daggerdbl
Encoding: 8225 8225 351
Width: 612
VWidth: 0
Flags: HMW
LayerCount: 2
Fore
SplineSet
100 169 m 1
 550 169 l 1
 505 28 l 1
 56 28 l 1
 100 169 l 1
214 540 m 1
 664 540 l 1
 618 400 l 1
 170 400 l 1
 214 540 l 1
409 700 m 1
 567 700 l 1
 304 -150 l 1
 147 -150 l 1
 409 700 l 1
EndSplineSet
EndChar

StartChar: ellipsis
Encoding: 8230 8230 352
Width: 876
VWidth: 0
Flags: HMW
LayerCount: 2
Fore
SplineSet
24 78 m 0
 39 131 98 180 154 180 c 0
 211 180 245 127 230 74 c 0
 215 21 156 -26 100 -26 c 0
 43 -26 9 25 24 78 c 0
306 78 m 0
 321 131 380 180 436 180 c 0
 493 180 527 127 512 74 c 0
 497 21 438 -26 382 -26 c 0
 325 -26 291 25 306 78 c 0
589 78 m 0
 604 131 662 180 718 180 c 0
 775 180 809 127 794 74 c 0
 779 21 720 -26 664 -26 c 0
 607 -26 574 25 589 78 c 0
EndSplineSet
EndChar

StartChar: uniFF10
Encoding: 65296 65296 353
Width: 605
VWidth: 0
Flags: HMW
LayerCount: 2
Fore
SplineSet
262 350 m 0
 244 300 199 156 290 152 c 0
 384 148 447 278 474 350 c 0
 492 400 537 544 446 548 c 0
 352 552 289 422 262 350 c 0
82 350 m 0
 138 525 279 714 481 714 c 0
 687 714 703 505 654 350 c 0
 598 173 458 -15 255 -14 c 0
 51 -13 33 196 82 350 c 0
EndSplineSet
EndChar

StartChar: uniFF11
Encoding: 65297 65297 354
Width: 605
VWidth: 0
Flags: HMW
LayerCount: 2
Fore
SplineSet
204 476 m 1
 264 646 l 1
 638 716 l 1
 393 0 l 1
 212 0 l 1
 388 516 l 1
 204 476 l 1
EndSplineSet
EndChar

StartChar: uniFF12
Encoding: 65298 65298 355
Width: 605
VWidth: 0
Flags: HMW
LayerCount: 2
Fore
SplineSet
-54 0 m 1
 341 314 l 2
 394 356 472 406 494 474 c 0
 506 510 494 546 451 549 c 0
 387 553 344 485 319 436 c 1
 134 438 l 1
 189 592 323 716 494 715 c 0
 624 715 729 618 689 484 c 0
 665 405 602 345 536 299 c 2
 358 178 l 1
 606 176 l 1
 544 0 l 1
 -54 0 l 1
EndSplineSet
EndChar

StartChar: uniFF13
Encoding: 65299 65299 356
Width: 605
VWidth: 0
Flags: HMW
LayerCount: 2
Fore
SplineSet
320 338 m 1
 344 418 l 1
 394 426 481 446 496 506 c 0
 504 536 488 558 456 560 c 0
 408 563 373 522 349 486 c 1
 174 488 l 1
 224 620 344 714 488 714 c 0
 602 714 720 645 682 516 c 0
 638 364 454 342 320 338 c 1
252 -18 m 0
 103 -16 28 93 54 234 c 1
 236 233 l 1
 230 185 233 140 292 136 c 0
 341 134 394 167 412 213 c 0
 439 285 357 295 305 300 c 1
 332 394 l 1
 454 390 638 356 590 192 c 0
 549 51 390 -20 252 -18 c 0
EndSplineSet
EndChar

StartChar: uniFF14
Encoding: 65300 65300 357
Width: 605
VWidth: 0
Flags: HMW
LayerCount: 2
Fore
SplineSet
-14 120 m 1
 182 254 l 1
 436 256 l 1
 462 284 l 1
 638 284 l 1
 580 120 l 1
 -14 120 l 1
194 184 m 1
 -22 112 l 1
 536 699 l 1
 691 700 l 1
 451 0 l 1
 254 0 l 1
 306 155 l 1
 332 166 l 1
 422 419 l 1
 194 184 l 1
EndSplineSet
EndChar

StartChar: uniFF15
Encoding: 65301 65301 358
Width: 605
VWidth: 0
Flags: HMW
LayerCount: 2
Fore
SplineSet
597 221 m 0
 552 73 396 -12 248 -14 c 0
 151 -15 67 16 -10 62 c 1
 98 226 l 1
 139 192 184 165 242 164 c 0
 300 163 380 185 400 247 c 0
 418 304 362 322 316 324 c 0
 244 326 173 310 104 290 c 1
 254 376 l 1
 318 416 382 450 459 448 c 0
 583 444 630 329 597 221 c 0
420 530 m 1
 306 366 l 1
 91 279 l 1
 333 699 l 1
 744 700 l 1
 686 532 l 1
 420 530 l 1
EndSplineSet
EndChar

StartChar: uniFF16
Encoding: 65302 65302 359
Width: 605
VWidth: 0
Flags: HMW
LayerCount: 2
Fore
SplineSet
236 250 m 0
 218 202 234 150 290 148 c 0
 350 146 412 197 432 251 c 0
 450 298 436 353 378 355 c 0
 318 357 256 304 236 250 c 0
464 695 m 1
 714 695 l 1
 414 456 l 1
 360 438 l 1
 396 460 432 477 476 477 c 0
 600 477 649 356 618 250 c 0
 572 92 416 -18 254 -18 c 0
 98 -18 4 99 50 250 c 0
 76 334 139 402 203 460 c 2
 464 695 l 1
EndSplineSet
EndChar

StartChar: uniFF17
Encoding: 65303 65303 360
Width: 605
VWidth: 0
Flags: HMW
LayerCount: 2
Fore
SplineSet
150 518 m 1
 213 700 l 1
 784 699 l 1
 224 0 l 1
 12 0 l 1
 440 518 l 1
 150 518 l 1
EndSplineSet
EndChar

StartChar: uniFF18
Encoding: 65304 65304 361
Width: 605
VWidth: 0
Flags: HMW
LayerCount: 2
Fore
SplineSet
208 532 m 0
 244 654 379 718 499 718 c 0
 607 718 720 653 684 530 c 0
 649 408 512 339 392 339 c 0
 282 339 173 410 208 532 c 0
376 512 m 0
 366 484 374 448 409 444 c 0
 446 440 491 482 503 514 c 0
 513 543 505 577 470 581 c 0
 433 585 388 545 376 512 c 0
68 191 m 0
 107 325 257 398 389 398 c 0
 507 398 630 323 591 189 c 0
 552 56 399 -18 269 -18 c 0
 151 -18 30 59 68 191 c 0
264 218 m 0
 250 182 262 142 305 139 c 0
 350 136 401 181 415 222 c 0
 427 256 414 295 374 298 c 0
 330 301 280 256 264 218 c 0
EndSplineSet
EndChar

StartChar: uniFF19
Encoding: 65305 65305 362
Width: 605
VWidth: 0
Flags: HMW
LayerCount: 2
Fore
SplineSet
501 450 m 0
 519 498 502 550 446 552 c 0
 386 554 324 503 304 449 c 0
 286 402 300 347 358 345 c 0
 418 343 481 396 501 450 c 0
272 5 m 1
 22 5 l 1
 322 244 l 1
 377 262 l 1
 341 240 304 223 260 223 c 0
 136 223 87 344 118 450 c 0
 164 608 320 718 482 718 c 0
 638 718 732 601 686 450 c 0
 660 366 597 298 533 240 c 2
 272 5 l 1
EndSplineSet
EndChar

StartChar: caron
Encoding: 711 711 363
Width: 451
VWidth: 0
Flags: HMW
LayerCount: 2
Fore
SplineSet
398 685 m 1
 505 766 l 1
 602 678 l 1
 366 545 l 1
 209 691 l 1
 345 767 l 1
 398 685 l 1
EndSplineSet
EndChar

StartChar: napostrophe
Encoding: 329 329 364
Width: 734
VWidth: 0
Flags: HMW
LayerCount: 2
Fore
SplineSet
502 460 m 1
 343 0 l 1
 173 0 l 1
 332 460 l 1
 502 460 l 1
554 280 m 1
 562 307 572 347 534 354 c 0
 492 361 458 310 439 281 c 1
 407 274 l 1
 443 370 510 468 624 470 c 0
 732 472 758 390 732 298 c 1
 631 0 l 1
 455 0 l 1
 554 280 l 1
280 700 m 1
 458 699 l 1
 268 438 l 1
 140 438 l 1
 280 700 l 1
EndSplineSet
EndChar

StartChar: IJ
Encoding: 306 306 365
Width: 625
VWidth: 0
Flags: HMW
LayerCount: 2
Fore
SplineSet
138 -52 m 1
 156 -68 177 -85 203 -84 c 0
 246 -82 280 -40 296 -4 c 1
 539 700 l 1
 746 700 l 1
 490 -53 l 2
 444 -179 322 -244 191 -244 c 0
 121 -244 59 -218 0 -182 c 1
 138 -52 l 1
250 700 m 1
 443 700 l 1
 202 0 l 1
 10 0 l 1
 250 700 l 1
EndSplineSet
EndChar

StartChar: ij
Encoding: 307 307 366
Width: 522
VWidth: 0
Flags: HMW
LayerCount: 2
Fore
SplineSet
456 630 m 0
 470 678 526 716 574 716 c 0
 624 716 658 674 644 624 c 0
 630 576 575 538 527 538 c 0
 477 538 442 580 456 630 c 0
139 -67 m 1
 147 -66 163 -91 173 -92 c 0
 205 -96 232 -53 243 -29 c 1
 413 460 l 1
 574 460 l 1
 392 -78 l 2
 356 -174 272 -246 166 -244 c 0
 115 -244 78 -222 42 -188 c 1
 139 -67 l 1
198 630 m 0
 212 678 267 716 315 716 c 0
 365 716 401 674 387 624 c 0
 373 576 317 538 269 538 c 0
 219 538 184 580 198 630 c 0
153 460 m 1
 317 460 l 1
 158 0 l 1
 -4 0 l 1
 153 460 l 1
EndSplineSet
EndChar

StartChar: uni0237
Encoding: 567 567 367
Width: 261
VWidth: 0
Flags: HMW
LayerCount: 2
Fore
SplineSet
-121 -67 m 1
 -113 -78 -104 -91 -88 -92 c 0
 -56 -92 -28 -55 -16 -29 c 1
 152 460 l 1
 314 460 l 1
 132 -78 l 2
 96 -174 12 -246 -94 -244 c 0
 -145 -244 -182 -222 -218 -188 c 1
 -121 -67 l 1
EndSplineSet
EndChar

StartChar: Sacute
Encoding: 346 346 368
Width: 610
VWidth: 0
Flags: HMW
LayerCount: 2
Fore
SplineSet
182 258 m 1
 200 201 227 142 297 142 c 0
 333 142 379 162 394 198 c 0
 416 252 341 273 305 291 c 0
 215 334 159 415 189 516 c 0
 227 645 366 718 494 718 c 0
 601 718 683 666 707 560 c 1
 548 482 l 1
 532 520 515 555 467 555 c 0
 436 555 391 537 377 507 c 0
 354 456 457 432 488 418 c 0
 579 378 621 293 592 197 c 0
 549 52 401 -27 256 -26 c 0
 136 -25 50 50 28 166 c 1
 182 258 l 1
749 922 m 1
 535 780 l 1
 446 830 l 1
 636 982 l 1
 749 922 l 1
EndSplineSet
EndChar

StartChar: sacute
Encoding: 347 347 369
Width: 444
VWidth: 0
Flags: HMW
LayerCount: 2
Fore
SplineSet
74 177 m 1
 108 143 148 106 202 108 c 0
 217 108 246 115 251 132 c 0
 260 162 178 180 158 190 c 0
 104 218 74 274 92 334 c 0
 120 427 225 468 314 469 c 0
 384 469 445 442 499 406 c 1
 418 294 l 1
 386 324 349 349 303 349 c 0
 287 349 253 343 248 325 c 0
 239 294 317 278 335 270 c 0
 395 244 434 196 416 129 c 0
 390 33 298 -20 202 -21 c 0
 115 -23 43 13 -19 63 c 1
 74 177 l 1
568 674 m 1
 354 532 l 1
 266 584 l 1
 455 736 l 1
 568 674 l 1
EndSplineSet
EndChar

StartChar: Scircumflex
Encoding: 348 348 370
Width: 610
VWidth: 0
Flags: HMW
LayerCount: 2
Fore
SplineSet
182 258 m 1
 200 201 227 142 297 142 c 0
 333 142 379 162 394 198 c 0
 416 252 341 273 305 291 c 0
 215 334 159 415 189 516 c 0
 227 645 366 718 494 718 c 0
 601 718 683 666 707 560 c 1
 548 482 l 1
 532 520 515 555 467 555 c 0
 436 555 391 537 377 507 c 0
 354 456 457 432 488 418 c 0
 579 378 621 293 592 197 c 0
 549 52 401 -27 256 -26 c 0
 136 -25 50 50 28 166 c 1
 182 258 l 1
562 858 m 1
 453 778 l 1
 356 865 l 1
 592 999 l 1
 750 852 l 1
 614 776 l 1
 562 858 l 1
EndSplineSet
EndChar

StartChar: scircumflex
Encoding: 349 349 371
Width: 444
VWidth: 0
Flags: HMW
LayerCount: 2
Fore
SplineSet
74 177 m 1
 108 143 148 106 202 108 c 0
 217 108 246 115 251 132 c 0
 260 162 178 180 158 190 c 0
 104 218 74 274 92 334 c 0
 120 427 225 468 314 469 c 0
 384 469 445 442 499 406 c 1
 418 294 l 1
 386 324 349 349 303 349 c 0
 287 349 253 343 248 325 c 0
 239 294 317 278 335 270 c 0
 395 244 434 196 416 129 c 0
 390 33 298 -20 202 -21 c 0
 115 -23 43 13 -19 63 c 1
 74 177 l 1
396 611 m 1
 288 531 l 1
 191 618 l 1
 426 752 l 1
 584 606 l 1
 448 530 l 1
 396 611 l 1
EndSplineSet
EndChar

StartChar: uni1E9E
Encoding: 7838 7838 372
Width: 844
VWidth: 0
Flags: HMW
LayerCount: 2
Fore
SplineSet
592 -12 m 0
 703 -12 794 48 794 139 c 0
 794 259 736 265 736 341 c 0
 736 415 868 461 868 559 c 0
 868 643 772 718 600 718 c 0
 330 718 207 551 142 359 c 2
 20 -2 l 1
 222 -2 l 1
 343 340 l 2
 383 454 450 545 562 545 c 0
 614 545 654 530 654 496 c 0
 654 446 538 416 538 347 c 0
 538 263 587 270 587 196 c 0
 587 161 555 146 511 146 c 0
 473 146 426 160 366 184 c 1
 328 28 l 1
 400 4 508 -12 592 -12 c 0
EndSplineSet
EndChar

StartChar: Zacute
Encoding: 377 377 373
Width: 603
VWidth: 0
Flags: HW
LayerCount: 2
Fore
SplineSet
182 526 m 1
 242 700 l 1
 786 699 l 1
 303 166 l 1
 562 166 l 1
 503 0 l 1
 -56 0 l 1
 420 526 l 1
 182 526 l 1
757 922 m 1
 543 780 l 1
 454 830 l 1
 644 982 l 1
 757 922 l 1
EndSplineSet
EndChar

StartChar: zacute
Encoding: 378 378 374
Width: 508
VWidth: 0
Flags: HW
LayerCount: 2
Fore
SplineSet
270 303 m 1
 103 304 l 1
 158 460 l 1
 606 459 l 1
 302 157 l 1
 464 156 l 1
 410 0 l 1
 -49 0 l 1
 270 303 l 1
624 678 m 1
 410 536 l 1
 322 587 l 1
 512 739 l 1
 624 678 l 1
EndSplineSet
EndChar

StartChar: Zdotaccent
Encoding: 379 379 375
Width: 603
VWidth: 0
Flags: HW
LayerCount: 2
Fore
SplineSet
182 526 m 1
 242 700 l 1
 786 699 l 1
 303 166 l 1
 562 166 l 1
 503 0 l 1
 -56 0 l 1
 420 526 l 1
 182 526 l 1
474 871 m 0
 488 919 544 957 592 957 c 0
 642 957 676 916 662 866 c 0
 648 818 592 779 544 779 c 0
 494 779 460 821 474 871 c 0
EndSplineSet
EndChar

StartChar: zdotaccent
Encoding: 380 380 376
Width: 508
VWidth: 0
Flags: HW
LayerCount: 2
Fore
SplineSet
270 303 m 1
 103 304 l 1
 158 460 l 1
 606 459 l 1
 302 157 l 1
 464 156 l 1
 410 0 l 1
 -49 0 l 1
 270 303 l 1
341 629 m 0
 355 677 411 716 459 716 c 0
 509 716 544 674 530 624 c 0
 516 576 461 538 413 538 c 0
 363 538 327 579 341 629 c 0
EndSplineSet
EndChar

StartChar: Tcaron
Encoding: 356 356 377
Width: 555
VWidth: 0
Flags: HW
LayerCount: 2
Fore
SplineSet
124 526 m 1
 184 700 l 1
 742 700 l 1
 682 526 l 1
 498 526 l 1
 318 0 l 1
 128 0 l 1
 309 526 l 1
 124 526 l 1
529 918 m 1
 637 998 l 1
 734 912 l 1
 498 778 l 1
 341 924 l 1
 476 1000 l 1
 529 918 l 1
EndSplineSet
EndChar

StartChar: tcaron
Encoding: 357 357 378
Width: 493
VWidth: 0
Flags: HW
LayerCount: 2
Fore
SplineSet
106 460 m 1
 424 460 l 1
 374 320 l 1
 56 320 l 1
 106 460 l 1
238 620 m 1
 400 620 l 1
 186 0 l 1
 25 0 l 1
 238 620 l 1
588 777 m 1
 752 742 l 1
 544 498 l 1
 417 524 l 1
 588 777 l 1
EndSplineSet
EndChar

StartChar: Uring
Encoding: 366 366 379
Width: 680
VWidth: 0
Flags: HW
LayerCount: 2
Fore
SplineSet
246 700 m 1
 434 700 l 1
 276 246 l 2
 262 198 262 143 324 140 c 0
 388 137 438 193 460 247 c 1
 618 700 l 1
 806 700 l 1
 646 230 l 2
 590 75 454 -34 286 -34 c 0
 128 -34 42 77 86 230 c 0
 246 700 l 1
466 900 m 0
 484 966 556 1018 624 1018 c 0
 692 1018 739 963 720 896 c 0
 702 830 628 779 560 779 c 0
 492 779 447 834 466 900 c 0
550 896 m 0
 545 880 550 856 570 854 c 0
 592 852 628 880 635 900 c 0
 640 916 634 942 614 944 c 0
 592 946 557 916 550 896 c 0
EndSplineSet
EndChar

StartChar: uring
Encoding: 367 367 380
Width: 554
VWidth: 0
Flags: HW
LayerCount: 2
Fore
SplineSet
282 0 m 1
 441 460 l 1
 610 460 l 1
 452 0 l 1
 282 0 l 1
228 180 m 1
 220 153 212 113 250 106 c 0
 292 99 326 150 345 179 c 1
 376 186 l 1
 340 90 274 -8 160 -10 c 0
 52 -12 25 70 51 162 c 1
 152 460 l 1
 328 460 l 1
 228 180 l 1
319 653 m 0
 337 719 409 770 477 770 c 0
 545 770 591 716 572 649 c 0
 554 583 481 532 413 532 c 0
 345 532 300 587 319 653 c 0
403 650 m 0
 398 634 404 608 424 606 c 0
 446 604 481 633 488 653 c 0
 493 669 486 694 466 696 c 0
 444 698 410 670 403 650 c 0
EndSplineSet
EndChar

StartChar: Utilde
Encoding: 360 360 381
Width: 680
VWidth: 0
Flags: HW
LayerCount: 2
Fore
SplineSet
245 700 m 1
 435 700 l 1
 276 246 l 2
 262 199 262 143 324 140 c 0
 388 137 438 193 460 247 c 1
 617 700 l 1
 806 700 l 1
 647 230 l 2
 591 75 454 -34 286 -34 c 0
 128 -34 42 76 86 230 c 0
 245 700 l 1
382 855 m 1
 406 902 465 951 522 949 c 0
 566 947 594 896 638 899 c 0
 672 901 698 930 721 951 c 1
 779 864 l 1
 742 822 684 774 624 779 c 0
 580 783 552 839 506 832 c 0
 477 828 459 804 443 783 c 1
 382 855 l 1
EndSplineSet
EndChar

StartChar: utilde
Encoding: 361 361 382
Width: 554
VWidth: 0
Flags: HW
LayerCount: 2
Fore
SplineSet
282 0 m 1
 441 460 l 1
 610 460 l 1
 452 0 l 1
 282 0 l 1
228 180 m 1
 220 153 211 114 249 107 c 0
 291 100 325 150 344 179 c 1
 376 186 l 1
 340 90 274 -8 160 -10 c 0
 52 -12 25 70 51 162 c 1
 152 460 l 1
 328 460 l 1
 228 180 l 1
235 608 m 1
 266 654 313 705 375 702 c 0
 419 700 447 648 491 651 c 0
 525 653 551 683 574 704 c 1
 632 617 l 1
 595 575 538 527 478 532 c 0
 434 536 404 591 358 584 c 0
 329 580 312 556 296 535 c 1
 235 608 l 1
EndSplineSet
EndChar

StartChar: Umacron
Encoding: 362 362 383
Width: 680
VWidth: 0
Flags: HW
LayerCount: 2
Fore
SplineSet
245 700 m 1
 435 700 l 1
 276 246 l 2
 262 199 262 143 324 140 c 0
 388 137 438 193 460 247 c 1
 617 700 l 1
 806 700 l 1
 647 230 l 2
 591 75 454 -34 286 -34 c 0
 128 -34 42 76 86 230 c 0
 245 700 l 1
374 778 m 1
 420 926 l 1
 783 926 l 1
 736 778 l 1
 374 778 l 1
EndSplineSet
EndChar

StartChar: umacron
Encoding: 363 363 384
Width: 554
VWidth: 0
Flags: HW
LayerCount: 2
Fore
SplineSet
282 0 m 1
 441 460 l 1
 610 460 l 1
 452 0 l 1
 282 0 l 1
228 180 m 1
 220 153 211 114 249 107 c 0
 291 100 325 150 344 179 c 1
 376 186 l 1
 340 90 274 -8 160 -10 c 0
 52 -12 25 70 51 162 c 1
 152 460 l 1
 328 460 l 1
 228 180 l 1
227 531 m 1
 273 679 l 1
 636 679 l 1
 589 531 l 1
 227 531 l 1
EndSplineSet
EndChar

StartChar: Ubreve
Encoding: 364 364 385
Width: 680
VWidth: 0
Flags: HW
LayerCount: 2
Fore
SplineSet
245 700 m 1
 435 700 l 1
 276 246 l 2
 262 199 262 143 324 140 c 0
 388 137 438 193 460 247 c 1
 617 700 l 1
 806 700 l 1
 647 230 l 2
 591 75 454 -34 286 -34 c 0
 128 -34 42 76 86 230 c 0
 245 700 l 1
444 926 m 1
 544 926 l 1
 546 902 547 876 577 872 c 0
 610 868 634 903 652 925 c 1
 761 924 l 1
 727 842 662 780 568 779 c 0
 476 778 435 840 444 926 c 1
EndSplineSet
EndChar

StartChar: ubreve
Encoding: 365 365 386
Width: 554
VWidth: 0
Flags: HW
LayerCount: 2
Fore
SplineSet
282 0 m 1
 441 460 l 1
 610 460 l 1
 452 0 l 1
 282 0 l 1
228 180 m 1
 220 153 211 114 249 107 c 0
 291 100 325 150 344 179 c 1
 376 186 l 1
 340 90 274 -8 160 -10 c 0
 52 -12 25 70 51 162 c 1
 152 460 l 1
 328 460 l 1
 228 180 l 1
297 678 m 1
 397 678 l 1
 399 654 400 629 430 625 c 0
 463 621 487 655 505 677 c 1
 614 676 l 1
 580 594 515 532 421 531 c 0
 329 530 288 592 297 678 c 1
EndSplineSet
EndChar

StartChar: Wcircumflex
Encoding: 372 372 387
Width: 1022
VWidth: 0
Flags: HW
LayerCount: 2
Fore
SplineSet
752 324 m 1
 979 700 l 1
 1210 699 l 1
 680 -47 l 1
 587 337 l 1
 244 -50 l 1
 186 700 l 1
 404 700 l 1
 388 328 l 1
 703 741 l 1
 752 324 l 1
760 882 m 1
 652 802 l 1
 555 888 l 1
 790 1022 l 1
 948 876 l 1
 812 800 l 1
 760 882 l 1
EndSplineSet
EndChar

StartChar: wcircumflex
Encoding: 373 373 388
Width: 738
VWidth: 0
Flags: HW
LayerCount: 2
Fore
SplineSet
95 460 m 1
 260 460 l 1
 268 252 l 1
 482 500 l 1
 520 249 l 1
 678 459 l 1
 861 459 l 1
 456 -32 l 1
 398 222 l 1
 162 -32 l 1
 95 460 l 1
539 640 m 1
 431 561 l 1
 334 648 l 1
 568 782 l 1
 726 635 l 1
 591 559 l 1
 539 640 l 1
EndSplineSet
EndChar

StartChar: Ycircumflex
Encoding: 374 374 389
Width: 648
VWidth: 0
Flags: HW
LayerCount: 2
Fore
SplineSet
618 699 m 1
 846 699 l 1
 460 270 l 1
 367 0 l 1
 174 0 l 1
 274 290 l 1
 184 700 l 1
 392 700 l 1
 422 462 l 1
 618 699 l 1
563 860 m 1
 455 780 l 1
 358 867 l 1
 593 1000 l 1
 751 854 l 1
 615 778 l 1
 563 860 l 1
EndSplineSet
EndChar

StartChar: ycircumflex
Encoding: 375 375 390
Width: 512
VWidth: 0
Flags: HW
LayerCount: 2
Fore
SplineSet
636 459 m 1
 120 -219 l 1
 -56 -219 l 1
 140 39 l 1
 94 460 l 1
 268 460 l 1
 280 88 l 1
 188 90 l 1
 456 459 l 1
 636 459 l 1
410 612 m 1
 302 532 l 1
 205 620 l 1
 440 753 l 1
 598 607 l 1
 462 531 l 1
 410 612 l 1
EndSplineSet
EndChar

StartChar: uni0123
Encoding: 291 291 391
Width: 536
VWidth: 0
Flags: HW
LayerCount: 2
Fore
SplineSet
-156 -33 m 1
 -1 -35 l 1
 0 -76 6 -104 53 -106 c 0
 121 -108 176 -47 200 11 c 1
 357 460 l 1
 522 460 l 1
 370 10 l 2
 320 -133 204 -241 47 -242 c 0
 -89 -243 -163 -168 -156 -33 c 1
-70 239 m 0
 -36 357 70 470 200 470 c 0
 330 470 361 344 331 238 c 0
 298 124 202 8 74 7 c 0
 -56 6 -101 128 -70 239 c 0
107 236 m 0
 92 194 101 147 152 143 c 0
 206 139 261 192 279 240 c 0
 294 281 291 329 241 333 c 0
 187 337 125 284 107 236 c 0
319 542 m 1
 166 609 l 1
 393 825 l 1
 516 775 l 1
 319 542 l 1
EndSplineSet
EndChar

StartChar: Hbar
Encoding: 294 294 392
Width: 759
VWidth: 0
Flags: HW
LayerCount: 2
Fore
SplineSet
26 280 m 1
 86 452 l 1
 609 452 l 1
 549 280 l 1
 26 280 l 1
567 700 m 1
 762 700 l 1
 521 0 l 1
 329 0 l 1
 567 700 l 1
125 700 m 1
 320 700 l 1
 79 0 l 1
 -113 0 l 1
 125 700 l 1
6 536 m 1
 47 651 l 1
 808 651 l 1
 768 536 l 1
 6 536 l 1
EndSplineSet
EndChar

StartChar: hbar
Encoding: 295 295 393
Width: 546
VWidth: 0
Flags: HW
LayerCount: 2
Fore
SplineSet
311 780 m 1
 43 0 l 1
 -131 0 l 1
 137 780 l 1
 311 780 l 1
253 280 m 1
 261 306 273 346 236 353 c 0
 194 361 160 311 141 282 c 1
 108 283 l 1
 142 379 207 476 320 478 c 0
 429 480 452 397 427 306 c 1
 324 0 l 1
 152 0 l 1
 253 280 l 1
24 589 m 1
 76 736 l 1
 404 736 l 1
 352 589 l 1
 24 589 l 1
EndSplineSet
EndChar

StartChar: uni0400
Encoding: 1024 1024 394
Width: 517
VWidth: 0
Flags: HW
LayerCount: 2
Fore
SplineSet
133 0 m 1
 187 157 l 1
 530 157 l 1
 476 0 l 1
 133 0 l 1
318 543 m 1
 373 700 l 1
 715 700 l 1
 660 543 l 1
 318 543 l 1
231 288 m 1
 284 440 l 1
 608 440 l 1
 554 288 l 1
 231 288 l 1
247 700 m 1
 434 700 l 1
 193 0 l 1
 8 0 l 1
 247 700 l 1
394 936 m 1
 522 986 l 1
 616 816 l 1
 522 778 l 1
 394 936 l 1
EndSplineSet
EndChar

StartChar: uni0401
Encoding: 1025 1025 395
Width: 517
VWidth: 0
Flags: HW
LayerCount: 2
Fore
SplineSet
133 0 m 1
 187 157 l 1
 530 157 l 1
 476 0 l 1
 133 0 l 1
318 543 m 1
 373 700 l 1
 715 700 l 1
 660 543 l 1
 318 543 l 1
231 288 m 1
 284 440 l 1
 608 440 l 1
 554 288 l 1
 231 288 l 1
247 700 m 1
 434 700 l 1
 193 0 l 1
 8 0 l 1
 247 700 l 1
568 872 m 0
 580 920 634 957 682 957 c 0
 732 957 770 915 758 864 c 0
 746 816 692 779 644 779 c 0
 594 779 556 821 568 872 c 0
326 872 m 0
 338 920 392 957 440 957 c 0
 490 957 529 915 517 864 c 0
 505 816 450 779 402 779 c 0
 352 779 314 821 326 872 c 0
EndSplineSet
EndChar

StartChar: uni0403
Encoding: 1027 1027 396
Width: 496
VWidth: 0
Flags: HW
LayerCount: 2
Fore
SplineSet
255 700 m 1
 678 700 l 1
 618 526 l 1
 389 526 l 1
 208 0 l 1
 16 0 l 1
 255 700 l 1
710 919 m 1
 501 779 l 1
 408 834 l 1
 593 983 l 1
 710 919 l 1
EndSplineSet
EndChar

StartChar: uni040C
Encoding: 1036 1036 397
Width: 531
VWidth: 0
Flags: HW
LayerCount: 2
Fore
SplineSet
247 700 m 1
 449 700 l 1
 208 0 l 1
 8 0 l 1
 247 700 l 1
642 699 m 1
 885 699 l 1
 494 360 l 1
 639 0 l 1
 430 0 l 1
 277 380 l 1
 642 699 l 1
740 902 m 1
 531 763 l 1
 437 818 l 1
 624 967 l 1
 740 902 l 1
EndSplineSet
EndChar

StartChar: uni040D
Encoding: 1037 1037 398
Width: 751
VWidth: 0
Flags: HW
LayerCount: 2
Fore
SplineSet
798 491 m 1
 -12 -54 l 1
 85 209 l 1
 896 756 l 1
 798 491 l 1
434 700 m 1
 242 138 l 1
 -12 -54 l 1
 248 700 l 1
 434 700 l 1
896 756 m 1
 634 0 l 1
 448 0 l 1
 638 554 l 1
 896 756 l 1
480 919 m 1
 608 970 l 1
 702 799 l 1
 608 760 l 1
 480 919 l 1
EndSplineSet
EndChar

StartChar: uni040E
Encoding: 1038 1038 399
Width: 580
VWidth: 0
Flags: HW
LayerCount: 2
Fore
SplineSet
789 699 m 1
 240 0 l 1
 40 0 l 1
 217 230 l 1
 176 700 l 1
 366 700 l 1
 365 299 l 1
 282 301 l 1
 586 699 l 1
 789 699 l 1
388 927 m 1
 488 926 l 1
 489 903 488 877 517 873 c 0
 550 869 576 903 594 925 c 1
 706 924 l 1
 674 840 609 779 516 778 c 0
 422 777 380 840 388 927 c 1
EndSplineSet
EndChar

StartChar: uni0410
Encoding: 1040 1040 400
Width: 711
VWidth: 0
Flags: HW
LayerCount: 2
Fore
SplineSet
164 113 m 1
 218 256 l 1
 566 256 l 1
 521 112 l 1
 164 113 l 1
453 414 m 1
 292 202 l 1
 290 156 l 1
 161 0 l 1
 -69 0 l 1
 554 756 l 1
 658 0 l 1
 456 0 l 1
 430 154 l 1
 459 202 l 1
 453 414 l 1
EndSplineSet
EndChar

StartChar: uni0411
Encoding: 1041 1041 401
Width: 667
VWidth: 0
Flags: HW
LayerCount: 2
Fore
SplineSet
166 288 m 1
 212 440 l 1
 487 440 l 1
 609 439 690 343 656 221 c 0
 621 95 497 1 369 0 c 1
 60 0 l 1
 114 157 l 1
 354 157 l 2
 400 158 444 178 464 224 c 0
 482 265 453 285 415 286 c 1
 166 288 l 1
255 700 m 1
 771 700 l 1
 716 543 l 1
 399 543 l 1
 212 0 l 1
 16 0 l 1
 255 700 l 1
EndSplineSet
EndChar

StartChar: uni0412
Encoding: 1042 1042 402
Width: 655
VWidth: 0
Flags: HW
LayerCount: 2
Fore
SplineSet
262 342 m 1
 292 422 l 1
 388 424 l 1
 432 425 485 448 501 492 c 0
 515 530 494 550 458 552 c 1
 396 552 l 1
 250 146 l 1
 312 148 l 1
 364 150 429 170 449 226 c 0
 466 275 430 288 388 291 c 1
 244 293 l 1
 284 398 l 1
 418 398 l 1
 536 395 671 335 634 194 c 0
 597 50 446 2 314 0 c 1
 10 0 l 1
 250 700 l 1
 503 700 l 1
 607 697 742 650 708 520 c 0
 675 393 532 345 414 342 c 2
 262 342 l 1
EndSplineSet
EndChar

StartChar: uni0413
Encoding: 1043 1043 403
Width: 496
VWidth: 0
Flags: HW
LayerCount: 2
Fore
SplineSet
255 700 m 1
 678 700 l 1
 618 526 l 1
 389 526 l 1
 208 0 l 1
 16 0 l 1
 255 700 l 1
EndSplineSet
EndChar

StartChar: uni0414
Encoding: 1044 1044 404
Width: 854
VWidth: 0
Flags: HW
LayerCount: 2
Fore
SplineSet
508 383 m 1
 268 31 l 1
 32 31 l 1
 618 744 l 1
 715 30 l 1
 504 30 l 1
 508 383 l 1
570 0 m 1
 175 0 l 1
 135 -110 l 1
 -60 -110 l 1
 36 166 l 1
 821 166 l 1
 725 -110 l 1
 530 -110 l 1
 570 0 l 1
EndSplineSet
EndChar

StartChar: uni0415
Encoding: 1045 1045 405
Width: 586
VWidth: 0
Flags: HW
LayerCount: 2
Fore
SplineSet
136 0 m 1
 190 157 l 1
 532 157 l 1
 478 0 l 1
 136 0 l 1
320 543 m 1
 376 700 l 1
 718 700 l 1
 663 543 l 1
 320 543 l 1
234 288 m 1
 287 440 l 1
 610 440 l 1
 557 288 l 1
 234 288 l 1
250 700 m 1
 436 700 l 1
 196 0 l 1
 10 0 l 1
 250 700 l 1
EndSplineSet
EndChar

StartChar: uni0416
Encoding: 1046 1046 406
Width: 1075
VWidth: 0
Flags: HW
LayerCount: 2
Fore
SplineSet
402 700 m 1
 564 356 l 1
 170 0 l 1
 -71 0 l 1
 355 384 l 1
 203 700 l 1
 402 700 l 1
622 700 m 1
 825 700 l 1
 584 0 l 1
 384 0 l 1
 622 700 l 1
1014 699 m 1
 1263 699 l 1
 865 360 l 1
 1017 0 l 1
 809 0 l 1
 657 384 l 1
 1014 699 l 1
EndSplineSet
EndChar

StartChar: uni0417
Encoding: 1047 1047 407
Width: 646
VWidth: 0
Flags: HW
LayerCount: 2
Fore
SplineSet
350 336 m 1
 371 418 l 1
 427 423 520 435 540 499 c 0
 553 539 525 558 488 560 c 0
 432 563 391 530 361 486 c 1
 182 488 l 1
 230 632 360 714 510 714 c 0
 624 714 769 656 731 516 c 0
 688 358 484 339 350 336 c 1
300 -18 m 0
 144 -17 34 72 59 234 c 1
 240 232 l 1
 234 174 251 138 314 136 c 0
 370 134 434 159 458 213 c 0
 492 291 393 297 341 301 c 1
 365 395 l 1
 487 393 683 359 639 192 c 0
 601 45 438 -18 300 -18 c 0
EndSplineSet
EndChar

StartChar: uni0418
Encoding: 1048 1048 408
Width: 751
VWidth: 0
Flags: HW
LayerCount: 2
Fore
SplineSet
798 491 m 1
 -12 -54 l 1
 85 209 l 1
 896 756 l 1
 798 491 l 1
434 700 m 1
 242 138 l 1
 -12 -54 l 1
 248 700 l 1
 434 700 l 1
896 756 m 1
 634 0 l 1
 448 0 l 1
 638 554 l 1
 896 756 l 1
EndSplineSet
EndChar

StartChar: uni0419
Encoding: 1049 1049 409
Width: 751
VWidth: 0
Flags: HW
LayerCount: 2
Fore
SplineSet
798 491 m 1
 -12 -54 l 1
 85 209 l 1
 896 756 l 1
 798 491 l 1
434 700 m 1
 242 138 l 1
 -12 -54 l 1
 248 700 l 1
 434 700 l 1
896 756 m 1
 634 0 l 1
 448 0 l 1
 638 554 l 1
 896 756 l 1
472 931 m 1
 572 931 l 1
 574 907 576 881 606 877 c 0
 639 873 663 908 680 930 c 1
 788 929 l 1
 754 847 690 785 596 784 c 0
 504 783 463 845 472 931 c 1
EndSplineSet
EndChar

StartChar: uni041A
Encoding: 1050 1050 410
Width: 700
VWidth: 0
Flags: HW
LayerCount: 2
Fore
SplineSet
247 700 m 1
 449 700 l 1
 208 0 l 1
 8 0 l 1
 247 700 l 1
642 699 m 1
 885 699 l 1
 494 360 l 1
 639 0 l 1
 430 0 l 1
 277 380 l 1
 642 699 l 1
EndSplineSet
EndChar

StartChar: uni041B
Encoding: 1051 1051 411
Width: 756
VWidth: 0
Flags: HW
LayerCount: 2
Fore
SplineSet
872 700 m 1
 632 0 l 1
 434 0 l 1
 616 526 l 1
 430 526 l 1
 358 313 l 2
 292 119 164 12 -42 1 c 1
 2 163 l 1
 76 179 124 225 152 295 c 1
 292 700 l 1
 872 700 l 1
EndSplineSet
EndChar

StartChar: uni041C
Encoding: 1052 1052 412
Width: 861
VWidth: 0
Flags: HW
LayerCount: 2
Fore
SplineSet
324 319 m 1
 176 0 l 1
 -32 0 l 1
 335 736 l 1
 482 338 l 1
 921 752 l 1
 779 0 l 1
 579 0 l 1
 650 300 l 1
 406 60 l 1
 324 319 l 1
EndSplineSet
EndChar

StartChar: uni041D
Encoding: 1053 1053 413
Width: 761
VWidth: 0
Flags: HW
LayerCount: 2
Fore
SplineSet
148 280 m 1
 208 452 l 1
 731 452 l 1
 670 280 l 1
 148 280 l 1
690 700 m 1
 884 700 l 1
 643 0 l 1
 451 0 l 1
 690 700 l 1
247 700 m 1
 442 700 l 1
 201 0 l 1
 8 0 l 1
 247 700 l 1
EndSplineSet
EndChar

StartChar: uni041E
Encoding: 1054 1054 414
Width: 780
VWidth: 0
Flags: HW
LayerCount: 2
Fore
SplineSet
293 350 m 0
 261 270 268 163 376 160 c 0
 486 157 580 254 619 350 c 0
 652 430 645 537 537 540 c 0
 427 543 331 446 293 350 c 0
90 350 m 0
 151 552 350 718 564 718 c 0
 771 718 877 540 821 350 c 0
 760 146 562 -26 344 -26 c 0
 134 -26 33 160 90 350 c 0
EndSplineSet
EndChar

StartChar: uni041F
Encoding: 1055 1055 415
Width: 741
VWidth: 0
Flags: HW
LayerCount: 2
Fore
SplineSet
602 526 m 1
 393 526 l 1
 212 0 l 1
 16 0 l 1
 256 700 l 1
 856 700 l 1
 616 0 l 1
 420 0 l 1
 602 526 l 1
EndSplineSet
EndChar

StartChar: uni0420
Encoding: 1056 1056 416
Width: 614
VWidth: 0
Flags: HW
LayerCount: 2
Fore
SplineSet
250 700 m 1
 444 700 l 1
 204 0 l 1
 10 0 l 1
 250 700 l 1
317 544 m 1
 367 700 l 1
 482 700 l 1
 623 696 731 615 689 464 c 0
 646 312 505 235 355 231 c 1
 206 231 l 1
 262 388 l 1
 378 388 l 2
 430 389 487 416 507 467 c 0
 525 512 500 540 456 542 c 1
 317 544 l 1
EndSplineSet
EndChar

StartChar: uni0421
Encoding: 1057 1057 417
Width: 662
VWidth: 0
Flags: HW
LayerCount: 2
Fore
SplineSet
300 350 m 0
 264 261 294 171 400 168 c 0
 484 166 564 212 633 254 c 1
 578 50 l 1
 510 9 438 -18 358 -18 c 0
 148 -18 31 152 90 350 c 0
 152 559 356 718 576 718 c 0
 650 718 712 693 771 648 c 1
 714 444 l 1
 676 500 628 533 558 533 c 0
 447 532 342 452 300 350 c 0
EndSplineSet
EndChar

StartChar: uni0422
Encoding: 1058 1058 418
Width: 559
VWidth: 0
Flags: HW
LayerCount: 2
Fore
SplineSet
123 526 m 1
 184 700 l 1
 747 700 l 1
 686 526 l 1
 502 526 l 1
 322 0 l 1
 128 0 l 1
 309 526 l 1
 123 526 l 1
EndSplineSet
EndChar

StartChar: uni0423
Encoding: 1059 1059 419
Width: 596
VWidth: 0
Flags: HW
LayerCount: 2
Fore
SplineSet
804 699 m 1
 255 0 l 1
 48 0 l 1
 224 230 l 1
 176 700 l 1
 374 700 l 1
 372 299 l 1
 290 301 l 1
 594 699 l 1
 804 699 l 1
EndSplineSet
EndChar

StartChar: uni0424
Encoding: 1060 1060 420
Width: 919
VWidth: 0
Flags: HW
LayerCount: 2
Fore
SplineSet
546 700 m 1
 744 700 l 1
 504 0 l 1
 308 0 l 1
 546 700 l 1
758 351 m 0
 794 433 717 451 651 453 c 1
 501 454 l 2
 419 452 328 433 292 349 c 0
 256 267 334 249 400 247 c 1
 550 246 l 2
 632 248 722 267 758 351 c 0
952 349 m 0
 904 181 731 81 564 80 c 1
 336 80 l 1
 182 81 51 186 98 351 c 0
 146 519 320 619 487 620 c 1
 714 620 l 1
 868 619 999 514 952 349 c 0
EndSplineSet
EndChar

StartChar: uni0425
Encoding: 1061 1061 421
Width: 759
VWidth: 0
Flags: HW
LayerCount: 2
Fore
SplineSet
634 699 m 1
 886 699 l 1
 544 342 l 1
 643 0 l 1
 423 0 l 1
 388 205 l 1
 208 0 l 1
 -45 0 l 1
 322 370 l 1
 236 700 l 1
 456 700 l 1
 482 524 l 1
 634 699 l 1
EndSplineSet
EndChar

StartChar: uni0426
Encoding: 1062 1062 422
Width: 836
VWidth: 0
Flags: HW
LayerCount: 2
Fore
SplineSet
263 174 m 1
 509 174 l 1
 690 700 l 1
 888 700 l 1
 707 174 l 1
 818 174 l 1
 709 -142 l 1
 521 -142 l 1
 572 0 l 1
 8 0 l 1
 248 700 l 1
 444 700 l 1
 263 174 l 1
EndSplineSet
EndChar

StartChar: uni0427
Encoding: 1063 1063 423
Width: 703
VWidth: 0
Flags: HW
LayerCount: 2
Fore
SplineSet
323 204 m 1
 432 373 l 1
 580 376 l 1
 520 203 l 1
 323 204 l 1
618 700 m 1
 820 700 l 1
 579 0 l 1
 380 0 l 1
 618 700 l 1
444 699 m 1
 364 480 l 1
 344 412 366 373 432 373 c 1
 323 204 l 1
 185 204 129 323 165 453 c 1
 248 700 l 1
 444 699 l 1
EndSplineSet
EndChar

StartChar: uni0428
Encoding: 1064 1064 424
Width: 1044
VWidth: 0
Flags: HW
LayerCount: 2
Fore
SplineSet
786 174 m 1
 967 700 l 1
 1160 700 l 1
 920 0 l 1
 16 0 l 1
 256 700 l 1
 449 700 l 1
 268 174 l 1
 434 174 l 1
 615 700 l 1
 801 700 l 1
 620 174 l 1
 786 174 l 1
EndSplineSet
EndChar

StartChar: uni0429
Encoding: 1065 1065 425
Width: 1117
VWidth: 0
Flags: HW
LayerCount: 2
Fore
SplineSet
786 174 m 1
 967 700 l 1
 1160 700 l 1
 980 174 l 1
 1091 174 l 1
 982 -142 l 1
 794 -142 l 1
 845 0 l 1
 16 0 l 1
 256 700 l 1
 449 700 l 1
 268 174 l 1
 434 174 l 1
 615 700 l 1
 801 700 l 1
 620 174 l 1
 786 174 l 1
EndSplineSet
EndChar

StartChar: uni042A
Encoding: 1066 1066 426
Width: 714
VWidth: 0
Flags: HW
LayerCount: 2
Fore
SplineSet
342 312 m 1
 394 469 l 1
 508 469 l 2
 649 466 757 385 715 234 c 0
 672 82 531 3 381 0 c 2
 232 0 l 1
 288 156 l 1
 403 157 l 2
 455 158 514 185 534 236 c 0
 552 281 526 309 482 310 c 2
 342 312 l 1
301 528 m 1
 130 528 l 1
 190 700 l 1
 552 700 l 1
 312 0 l 1
 120 0 l 1
 301 528 l 1
EndSplineSet
EndChar

StartChar: uni042B
Encoding: 1067 1067 427
Width: 895
VWidth: 0
Flags: HW
LayerCount: 2
Fore
SplineSet
820 700 m 1
 1018 700 l 1
 778 0 l 1
 582 0 l 1
 820 700 l 1
247 700 m 1
 442 700 l 1
 201 0 l 1
 8 0 l 1
 247 700 l 1
236 312 m 1
 286 469 l 1
 400 469 l 2
 541 466 650 385 608 234 c 0
 565 82 424 3 274 0 c 2
 124 0 l 1
 180 156 l 1
 296 157 l 2
 348 158 406 185 426 236 c 0
 444 281 419 309 375 310 c 2
 236 312 l 1
EndSplineSet
EndChar

StartChar: uni042C
Encoding: 1068 1068 428
Width: 606
VWidth: 0
Flags: HW
LayerCount: 2
Fore
SplineSet
247 700 m 1
 442 700 l 1
 201 0 l 1
 8 0 l 1
 247 700 l 1
236 312 m 1
 286 469 l 1
 400 469 l 2
 541 466 650 385 608 234 c 0
 565 82 424 3 274 0 c 2
 124 0 l 1
 180 156 l 1
 296 157 l 2
 348 158 406 185 426 236 c 0
 444 281 419 309 375 310 c 2
 236 312 l 1
EndSplineSet
EndChar

StartChar: uni042D
Encoding: 1069 1069 429
Width: 663
VWidth: 0
Flags: HW
LayerCount: 2
Fore
SplineSet
164 274 m 1
 218 426 l 1
 564 426 l 1
 510 274 l 1
 164 274 l 1
518 350 m 0
 558 447 502 537 396 540 c 0
 316 542 239 504 169 470 c 1
 216 650 l 1
 283 691 356 718 436 718 c 0
 646 718 763 548 704 350 c 0
 642 141 438 -18 218 -18 c 0
 144 -18 81 7 22 52 c 1
 72 231 l 1
 116 186 168 158 234 159 c 0
 350 160 474 243 518 350 c 0
EndSplineSet
EndChar

StartChar: uni042E
Encoding: 1070 1070 430
Width: 1106
VWidth: 0
Flags: HW
LayerCount: 2
Fore
SplineSet
148 280 m 1
 208 452 l 1
 570 452 l 1
 510 280 l 1
 148 280 l 1
247 700 m 1
 442 700 l 1
 201 0 l 1
 8 0 l 1
 247 700 l 1
618 350 m 0
 586 270 592 163 700 160 c 0
 810 157 905 254 944 350 c 0
 977 430 970 537 862 540 c 0
 752 543 656 446 618 350 c 0
416 350 m 0
 477 552 676 718 890 718 c 0
 1097 718 1203 540 1147 350 c 0
 1086 146 888 -26 670 -26 c 0
 460 -26 359 160 416 350 c 0
EndSplineSet
EndChar

StartChar: uni042F
Encoding: 1071 1071 431
Width: 633
VWidth: 0
Flags: HW
LayerCount: 2
Fore
SplineSet
452 308 m 1
 172 0 l 1
 -66 0 l 1
 238 308 l 1
 452 308 l 1
757 700 m 1
 517 0 l 1
 323 0 l 1
 563 700 l 1
 757 700 l 1
582 536 m 1
 466 536 l 2
 414 536 356 507 336 456 c 0
 318 411 341 382 385 380 c 1
 532 378 l 1
 478 232 l 1
 348 231 l 0
 210 235 100 318 142 466 c 0
 184 616 328 697 476 700 c 1
 640 700 l 1
 582 536 l 1
EndSplineSet
EndChar

StartChar: uni0430
Encoding: 1072 1072 432
Width: 528
VWidth: 0
Flags: HW
LayerCount: 2
Fore
SplineSet
177 136 m 0
 171 114 189 99 208 98 c 0
 266 93 304 145 332 187 c 1
 332 127 l 1
 296 46 230 -10 138 -10 c 0
 55 -10 -15 43 8 132 c 0
 34 230 141 275 234 277 c 0
 290 277 338 263 382 230 c 1
 361 153 l 1
 334 175 308 191 272 189 c 0
 241 188 187 170 177 136 c 0
172 306 m 1
 145 425 l 1
 213 452 286 474 360 474 c 0
 452 474 573 430 537 322 c 2
 430 0 l 1
 264 0 l 1
 368 284 l 2
 380 318 364 340 328 344 c 0
 275 351 220 324 172 306 c 1
EndSplineSet
Substitution2: "alt a" a.alt
EndChar

StartChar: uni0431
Encoding: 1073 1073 433
Width: 589
VWidth: 0
Flags: HW
LayerCount: 2
Fore
SplineSet
368 332 m 1
 428 468 l 1
 559 468 632 363 598 229 c 0
 562 87 424 -9 281 -10 c 0
 107 -11 77 132 77 204 c 1
 246 192 l 1
 246 165 252 131 296 131 c 0
 352 131 405 183 423 232 c 0
 443 288 420 332 368 332 c 1
179 232 m 1
 219 360 290 468 428 468 c 1
 368 332 l 1
 312 332 246 288 246 192 c 1
 179 232 l 1
77 204 m 1
 77 399 213 593 370 664 c 0
 438 694 502 719 550 779 c 1
 718 778 l 1
 672 672 580 612 478 566 c 0
 382 524 258 439 244 323 c 1
 246 192 l 1
 77 204 l 1
EndSplineSet
EndChar

StartChar: uni0432
Encoding: 1074 1074 434
Width: 513
VWidth: 0
Flags: HW
LayerCount: 2
Fore
SplineSet
186 239 m 1
 341 240 l 2
 414 238 499 213 478 123 c 0
 460 45 383 0 308 0 c 2
 104 0 l 1
 142 102 l 1
 257 102 l 2
 281 102 317 119 327 145 c 0
 335 167 321 182 303 182 c 2
 171 182 l 1
 186 239 l 1
186 221 m 1
 202 282 l 1
 312 282 l 2
 334 282 360 299 370 322 c 0
 377 338 370 358 354 358 c 2
 224 358 l 1
 263 460 l 1
 406 460 l 2
 480 458 555 417 532 333 c 0
 511 255 428 224 354 221 c 2
 186 221 l 1
168 460 m 1
 335 460 l 1
 176 0 l 1
 12 0 l 1
 168 460 l 1
EndSplineSet
EndChar

StartChar: uni0433
Encoding: 1075 1075 435
Width: 344
VWidth: 0
Flags: HW
LayerCount: 2
Fore
SplineSet
150 460 m 1
 452 460 l 1
 404 320 l 1
 272 320 l 1
 161 0 l 1
 -7 0 l 1
 150 460 l 1
EndSplineSet
EndChar

StartChar: uni0434
Encoding: 1076 1076 436
Width: 676
VWidth: 0
Flags: HW
LayerCount: 2
Fore
SplineSet
377 254 m 1
 206 32 l 1
 48 78 l 1
 445 501 l 1
 552 66 l 1
 390 26 l 1
 377 254 l 1
426 0 m 1
 146 0 l 1
 113 -90 l 1
 -54 -90 l 1
 24 132 l 1
 632 132 l 1
 554 -90 l 1
 393 -90 l 1
 426 0 l 1
EndSplineSet
EndChar

StartChar: uni0435
Encoding: 1077 1077 437
Width: 557
VWidth: 0
Flags: HW
LayerCount: 2
Fore
SplineSet
136 194 m 1
 162 282 l 1
 390 284 l 1
 396 316 400 354 358 358 c 0
 296 364 256 297 232 251 c 2
 221 229 l 1
 205 186 194 118 256 112 c 0
 299 107 338 135 370 161 c 1
 523 127 l 1
 455 43 360 -10 250 -10 c 0
 110 -10 14 89 52 231 c 0
 56 248 62 263 69 279 c 0
 123 397 245 470 373 470 c 0
 513 470 592 375 560 237 c 0
 556 223 550 208 546 194 c 1
 136 194 l 1
EndSplineSet
EndChar

StartChar: uni0436
Encoding: 1078 1078 438
Width: 886
VWidth: 0
Flags: HW
LayerCount: 2
Fore
SplineSet
772 459 m 1
 986 459 l 1
 722 256 l 1
 826 0 l 1
 654 0 l 1
 534 282 l 1
 772 459 l 1
630 460 m 1
 472 0 l 1
 306 0 l 1
 465 460 l 1
 630 460 l 1
298 460 m 1
 431 258 l 1
 144 0 l 1
 -68 0 l 1
 240 281 l 1
 130 460 l 1
 298 460 l 1
EndSplineSet
EndChar

StartChar: uni0437
Encoding: 1079 1079 439
Width: 523
VWidth: 0
Flags: HW
LayerCount: 2
Fore
SplineSet
288 228 m 1
 306 287 l 1
 326 291 361 300 369 322 c 0
 373 334 364 348 344 348 c 0
 316 348 300 325 290 302 c 1
 134 304 l 1
 172 402 253 468 361 469 c 0
 439 470 550 429 526 332 c 0
 502 234 368 230 288 228 c 1
230 -10 m 0
 118 -10 47 48 50 162 c 1
 200 160 l 1
 205 136 211 109 249 109 c 0
 288 109 317 131 325 158 c 0
 335 192 302 198 280 202 c 1
 298 260 l 1
 373 256 502 241 477 133 c 0
 453 31 322 -10 230 -10 c 0
EndSplineSet
EndChar

StartChar: uni0438
Encoding: 1080 1080 440
Width: 569
VWidth: 0
Flags: HW
LayerCount: 2
Fore
SplineSet
568 308 m 1
 -28 -52 l 1
 50 152 l 1
 646 513 l 1
 568 308 l 1
316 460 m 1
 195 106 l 1
 -28 -52 l 1
 151 460 l 1
 316 460 l 1
646 513 m 1
 468 0 l 1
 302 0 l 1
 424 354 l 1
 646 513 l 1
EndSplineSet
EndChar

StartChar: uni0439
Encoding: 1081 1081 441
Width: 569
VWidth: 0
Flags: HW
LayerCount: 2
Fore
SplineSet
568 308 m 1
 -28 -52 l 1
 50 152 l 1
 646 513 l 1
 568 308 l 1
316 460 m 1
 195 106 l 1
 -28 -52 l 1
 151 460 l 1
 316 460 l 1
646 513 m 1
 468 0 l 1
 302 0 l 1
 424 354 l 1
 646 513 l 1
286 698 m 1
 385 698 l 1
 387 674 389 649 419 645 c 0
 452 641 477 675 494 697 c 1
 602 696 l 1
 568 614 503 552 409 551 c 0
 317 550 277 612 286 698 c 1
EndSplineSet
EndChar

StartChar: uni043A
Encoding: 1082 1082 442
Width: 568
VWidth: 0
Flags: HW
LayerCount: 2
Fore
SplineSet
148 460 m 1
 315 460 l 1
 156 0 l 1
 -9 0 l 1
 148 460 l 1
451 459 m 1
 674 459 l 1
 407 258 l 1
 514 0 l 1
 338 0 l 1
 218 282 l 1
 451 459 l 1
EndSplineSet
EndChar

StartChar: uni043B
Encoding: 1083 1083 443
Width: 604
VWidth: 0
Flags: HW
LayerCount: 2
Fore
SplineSet
639 460 m 1
 480 0 l 1
 314 0 l 1
 420 304 l 1
 289 303 l 1
 241 159 l 1
 195 30 82 7 -42 1 c 1
 -0 152 l 1
 40 158 68 171 88 210 c 1
 176 460 l 1
 639 460 l 1
EndSplineSet
EndChar

StartChar: uni043C
Encoding: 1084 1084 444
Width: 631
VWidth: 0
Flags: HW
LayerCount: 2
Fore
SplineSet
410 0 m 1
 459 316 l 1
 610 510 l 1
 573 0 l 1
 410 0 l 1
284 164 m 1
 610 510 l 1
 542 266 l 1
 254 -34 l 1
 284 164 l 1
254 -34 m 1
 171 294 l 1
 252 498 l 1
 340 134 l 1
 254 -34 l 1
-60 0 m 1
 252 498 l 1
 269 282 l 1
 118 0 l 1
 -60 0 l 1
EndSplineSet
EndChar

StartChar: uni043D
Encoding: 1085 1085 445
Width: 591
VWidth: 0
Flags: HW
LayerCount: 2
Fore
SplineSet
98 181 m 1
 141 304 l 1
 509 304 l 1
 466 181 l 1
 98 181 l 1
484 460 m 1
 650 460 l 1
 492 0 l 1
 326 0 l 1
 484 460 l 1
150 460 m 1
 316 460 l 1
 157 0 l 1
 -8 0 l 1
 150 460 l 1
EndSplineSet
EndChar

StartChar: uni043E
Encoding: 1086 1086 446
Width: 566
VWidth: 0
Flags: HW
LayerCount: 2
Fore
SplineSet
49 231 m 0
 88 371 230 470 374 470 c 0
 511 470 604 365 566 229 c 0
 527 89 387 -10 243 -10 c 0
 106 -10 11 95 49 231 c 0
222 228 m 0
 206 190 210 134 262 131 c 0
 318 128 373 184 393 232 c 0
 409 270 406 327 354 330 c 0
 298 333 242 276 222 228 c 0
EndSplineSet
EndChar

StartChar: uni043F
Encoding: 1087 1087 447
Width: 554
VWidth: 0
Flags: HW
LayerCount: 2
Fore
SplineSet
612 460 m 1
 454 0 l 1
 288 0 l 1
 396 312 l 1
 265 312 l 1
 157 0 l 1
 -9 0 l 1
 150 460 l 1
 612 460 l 1
EndSplineSet
EndChar

StartChar: uni0440
Encoding: 1088 1088 448
Width: 593
VWidth: 0
Flags: HW
LayerCount: 2
Fore
SplineSet
90 -220 m 1
 -85 -220 l 1
 150 460 l 1
 322 460 l 1
 90 -220 l 1
594 229 m 0
 559 109 452 -18 317 -18 c 0
 179 -18 173 128 203 231 c 0
 237 347 322 476 455 478 c 0
 591 480 626 339 594 229 c 0
416 232 m 0
 432 274 423 322 371 325 c 0
 317 328 261 276 243 228 c 0
 227 187 233 139 283 135 c 0
 337 131 398 184 416 232 c 0
EndSplineSet
EndChar

StartChar: uni0441
Encoding: 1089 1089 449
Width: 462
VWidth: 0
Flags: HW
LayerCount: 2
Fore
SplineSet
222 228 m 0
 202 178 220 130 278 126 c 0
 332 122 384 157 427 187 c 1
 386 26 l 1
 342 4 296 -10 246 -10 c 0
 109 -10 10 93 48 231 c 0
 88 375 232 469 377 470 c 0
 427 470 470 456 514 434 c 1
 470 273 l 1
 450 311 423 336 377 336 c 0
 315 335 245 285 222 228 c 0
EndSplineSet
EndChar

StartChar: uni0442
Encoding: 1090 1090 450
Width: 328
VWidth: 0
Flags: HW
LayerCount: 2
Fore
SplineSet
104 460 m 1
 432 460 l 1
 382 320 l 1
 54 320 l 1
 104 460 l 1
178 440 m 1
 344 440 l 1
 192 0 l 1
 27 0 l 1
 178 440 l 1
EndSplineSet
EndChar

StartChar: uni0443
Encoding: 1091 1091 451
Width: 512
VWidth: 0
Flags: HW
LayerCount: 2
Fore
SplineSet
636 459 m 1
 120 -219 l 1
 -56 -219 l 1
 140 39 l 1
 94 460 l 1
 268 460 l 1
 280 88 l 1
 188 90 l 1
 456 459 l 1
 636 459 l 1
EndSplineSet
EndChar

StartChar: uni0444
Encoding: 1092 1092 452
Width: 650
VWidth: 0
Flags: HW
LayerCount: 2
Fore
SplineSet
382 560 m 1
 544 560 l 1
 317 -100 l 1
 156 -100 l 1
 382 560 l 1
50 231 m 0
 94 391 261 471 416 471 c 0
 558 471 694 388 650 229 c 0
 606 69 439 -10 284 -10 c 0
 142 -10 6 72 50 231 c 0
201 229 m 0
 169 154 239 131 301 131 c 0
 377 130 467 155 499 231 c 0
 531 306 460 330 398 330 c 0
 322 331 233 305 201 229 c 0
EndSplineSet
EndChar

StartChar: uni0445
Encoding: 1093 1093 453
Width: 532
VWidth: 0
Flags: HW
LayerCount: 2
Fore
SplineSet
442 460 m 1
 639 460 l 1
 386 228 l 1
 491 0 l 1
 318 0 l 1
 268 126 l 1
 157 0 l 1
 -48 0 l 1
 214 252 l 1
 120 460 l 1
 300 460 l 1
 336 355 l 1
 442 460 l 1
EndSplineSet
EndChar

StartChar: uni0446
Encoding: 1094 1094 454
Width: 600
VWidth: 0
Flags: HW
LayerCount: 2
Fore
SplineSet
509 140 m 1
 586 140 l 1
 500 -106 l 1
 336 -106 l 1
 375 0 l 1
 -8 0 l 1
 150 460 l 1
 324 460 l 1
 212 140 l 1
 336 140 l 1
 447 460 l 1
 620 460 l 1
 509 140 l 1
EndSplineSet
EndChar

StartChar: uni0447
Encoding: 1095 1095 455
Width: 532
VWidth: 0
Flags: HW
LayerCount: 2
Fore
SplineSet
211 110 m 1
 291 246 l 1
 401 248 l 1
 352 110 l 1
 211 110 l 1
408 460 m 1
 582 460 l 1
 424 0 l 1
 252 0 l 1
 408 460 l 1
318 459 m 1
 263 311 l 2
 247 269 262 246 291 246 c 1
 211 110 l 1
 81 110 68 216 102 328 c 2
 146 460 l 1
 318 459 l 1
EndSplineSet
EndChar

StartChar: uni0448
Encoding: 1096 1096 456
Width: 802
VWidth: 0
Flags: HW
LayerCount: 2
Fore
SplineSet
476 140 m 1
 584 140 l 1
 694 460 l 1
 861 460 l 1
 702 0 l 1
 -8 0 l 1
 150 460 l 1
 316 460 l 1
 204 140 l 1
 312 140 l 1
 423 460 l 1
 588 460 l 1
 476 140 l 1
EndSplineSet
EndChar

StartChar: uni0449
Encoding: 1097 1097 457
Width: 840
VWidth: 0
Flags: HW
LayerCount: 2
Fore
SplineSet
476 140 m 1
 583 140 l 1
 694 460 l 1
 860 460 l 1
 750 140 l 1
 825 140 l 1
 740 -106 l 1
 576 -106 l 1
 615 0 l 1
 -8 0 l 1
 150 460 l 1
 316 460 l 1
 204 140 l 1
 312 140 l 1
 423 460 l 1
 588 460 l 1
 476 140 l 1
EndSplineSet
EndChar

StartChar: uni044A
Encoding: 1098 1098 458
Width: 585
VWidth: 0
Flags: HW
LayerCount: 2
Fore
SplineSet
266 205 m 1
 299 310 l 1
 421 310 l 2
 506 311 572 258 549 166 c 0
 526 74 439 2 346 1 c 2
 190 0 l 1
 238 130 l 1
 330 130 l 2
 354 130 382 145 392 169 c 0
 400 187 388 204 372 204 c 2
 266 205 l 1
180 320 m 1
 54 320 l 1
 104 460 l 1
 386 460 l 1
 228 0 l 1
 70 0 l 1
 180 320 l 1
EndSplineSet
EndChar

StartChar: uni044B
Encoding: 1099 1099 459
Width: 751
VWidth: 0
Flags: HW
LayerCount: 2
Fore
SplineSet
636 460 m 1
 810 460 l 1
 650 0 l 1
 478 0 l 1
 636 460 l 1
150 460 m 1
 324 460 l 1
 164 0 l 1
 -8 0 l 1
 150 460 l 1
199 205 m 1
 233 310 l 1
 355 310 l 2
 440 311 506 258 483 166 c 0
 460 74 373 2 280 1 c 2
 124 0 l 1
 171 130 l 1
 263 130 l 2
 287 130 316 145 326 169 c 0
 334 187 322 204 306 204 c 2
 199 205 l 1
EndSplineSet
EndChar

StartChar: uni044C
Encoding: 1100 1100 460
Width: 530
VWidth: 0
Flags: HW
LayerCount: 2
Fore
SplineSet
156 460 m 1
 331 460 l 1
 172 0 l 1
 0 0 l 1
 156 460 l 1
206 205 m 1
 240 310 l 1
 362 310 l 2
 447 311 513 258 490 166 c 0
 467 74 381 2 288 1 c 2
 130 0 l 1
 180 130 l 1
 270 130 l 2
 294 130 324 145 334 169 c 0
 342 187 331 204 312 204 c 2
 206 205 l 1
EndSplineSet
EndChar

StartChar: uni044D
Encoding: 1101 1101 461
Width: 468
VWidth: 0
Flags: HW
LayerCount: 2
Fore
SplineSet
136 283 m 1
 423 283 l 1
 372 177 l 1
 98 177 l 1
 136 283 l 1
294 231 m 0
 314 281 316 352 248 358 c 0
 194 362 140 326 98 298 c 1
 133 436 l 1
 177 456 224 470 273 470 c 0
 410 471 507 367 469 229 c 0
 429 85 285 -9 140 -10 c 0
 89 -10 46 4 2 28 c 1
 40 164 l 1
 60 124 85 100 132 100 c 0
 206 100 268 167 294 231 c 0
EndSplineSet
EndChar

StartChar: uni044E
Encoding: 1102 1102 462
Width: 792
VWidth: 0
Flags: HW
LayerCount: 2
Fore
SplineSet
98 181 m 1
 142 304 l 1
 434 304 l 1
 390 181 l 1
 98 181 l 1
150 460 m 1
 316 460 l 1
 157 0 l 1
 -8 0 l 1
 150 460 l 1
276 231 m 0
 315 371 456 470 600 470 c 0
 737 470 832 365 794 229 c 0
 755 89 614 -10 470 -10 c 0
 333 -10 238 95 276 231 c 0
449 228 m 0
 433 190 436 134 488 131 c 0
 544 128 599 184 619 232 c 0
 635 270 632 327 580 330 c 0
 524 333 469 276 449 228 c 0
EndSplineSet
EndChar

